<?xml version="1.0" standalone="no"?>
<!DOCTYPE svg PUBLIC "-//W3C//DTD SVG 1.1//EN" "http://www.w3.org/Graphics/SVG/1.1/DTD/svg11.dtd" >
<svg xmlns="http://www.w3.org/2000/svg" xmlns:xlink="http://www.w3.org/1999/xlink" version="1.1">
<metadata>
Created by FontForge 20150318 at Fri Jun  5 20:49:00 2015
 By uniteet7
Copyright (c) 1995 ParaGraph Intl., (c) 1998 ParaType Inc., ParaType Ltd. All rights reserved.
</metadata>
<defs>
<font id="FuturaPTHeavy" horiz-adv-x="500" >
  <font-face 
    font-family="FuturaPTHeavy"
    font-weight="400"
    font-stretch="normal"
    units-per-em="1000"
    panose-1="2 11 8 2 2 2 4 2 3 3"
    ascent="764"
    descent="-236"
    x-height="446"
    cap-height="667"
    bbox="-354 -260 1215 959"
    underline-thickness="50"
    underline-position="-50"
    unicode-range="U+0020-FB02"
  />
<missing-glyph 
d="M58 8h384v496h-384v-496zM50 0v512h400v-512h-400z" />
    <glyph glyph-name="afii10017.var.accented" unicode="&#x410;`" horiz-adv-x="677" 
d="M515 0l-50 126h-252l-51 -126h-160l269 667h141l263 -667h-160zM258 244h165l-82 224zM394 925l95 -72l-164 -129l-65 53z" />
    <glyph glyph-name="afii10022.var.accented" unicode="&#x415;`" horiz-adv-x="502" 
d="M450 667v-130h-223v-129h212v-130h-212v-148h223v-130h-377v667h377zM306 925l95 -72l-164 -129l-65 53z" />
    <glyph glyph-name="afii10026.var.accented" unicode="&#x418;`" horiz-adv-x="745" 
d="M73 667h154v-436l309 444h136v-675h-154v437l-309 -445h-136v675zM428 925l95 -72l-164 -129l-65 53z" />
    <glyph glyph-name="afii10032.var.accented" unicode="&#x41e;`" horiz-adv-x="810" 
d="M406 682q158 0 258 -97q104 -99 104 -252q0 -147 -104 -250q-103 -98 -258 -98q-156 0 -260 98q-49 46 -76.5 110.5t-27.5 137.5q0 70 28.5 138.5t74.5 114.5q98 98 261 98zM405 540q-89 0 -146 -57q-59 -57 -59 -151q0 -90 61 -150q58 -55 143 -55q91 0 148 57
q58 54 58 149q0 92 -58 150q-59 57 -147 57zM460 925l95 -72l-164 -129l-65 53z" />
    <glyph glyph-name="afii10037.var.accented" unicode="&#x423;`" horiz-adv-x="622" 
d="M4 667h172l140 -308l134 308h166l-305 -667h-166l97 192zM366 925l95 -72l-164 -129l-65 53z" />
    <glyph glyph-name="afii10045.var.accented" unicode="&#x42b;`" horiz-adv-x="847" 
d="M620 667h154v-667h-154v667zM73 0v667h154v-260h92q124 0 183 -56q56 -53 56 -148q0 -97 -54 -147q-59 -56 -190 -56h-241zM227 283v-159h68q55 0 80 18q29 19 29 62q0 46 -28 63q-22 16 -80 16h-69zM479 925l95 -72l-164 -129l-65 53z" />
    <glyph glyph-name="afii10047.var.accented" unicode="&#x42d;`" horiz-adv-x="623" 
d="M50 32v162q27 -25 68 -47q45 -22 107 -22q83 0 131 39q52 41 63 111h-259v124h258q-12 61 -56 99q-49 44 -133 44q-63 0 -110 -25q-33 -17 -69 -47v164q94 48 191 48q155 0 244 -89q96 -92 96 -258q0 -161 -95 -262q-50 -52 -108 -70t-130 -18q-121 0 -198 47zM337 925
l95 -72l-164 -129l-65 53z" />
    <glyph glyph-name="afii10048.var.accented" unicode="&#x42e;`" horiz-adv-x="1058" 
d="M227 412h89q20 107 94 177q94 93 250 93t255 -96q101 -97 101 -248q0 -155 -101 -256q-97 -97 -256 -97q-157 0 -253 99q-80 83 -92 198h-87v-282h-154v667h154v-255zM662 540q-84 0 -137 -53q-61 -61 -61 -154q0 -89 54 -146q56 -60 146 -60q78 0 131 50q63 59 63 159
q0 89 -56 149q-53 55 -140 55zM584 925l95 -72l-164 -129l-65 53z" />
    <glyph glyph-name="afii10049.var.accented" unicode="&#x42f;`" horiz-adv-x="602" 
d="M529 667v-667h-154v243h-20l-157 -243h-178l192 261q-58 11 -95 47q-56 52 -56 148q0 88 54 146q64 65 185 65h229zM375 361v180h-36q-62 0 -91 -24q-29 -29 -29 -67q0 -40 26 -64q28 -25 94 -25h36zM356 925l95 -72l-164 -129l-65 53z" />
    <glyph glyph-name="afii10023.var.accented" unicode="&#x401;`" horiz-adv-x="502" 
d="M450 667v-130h-223v-129h212v-130h-212v-148h223v-130h-377v667h377zM286 925l67 -54l-141 -133l-43 39zM39 826q0 29 21.5 46.5t43.5 17.5q25 0 46 -19t21 -45q0 -28 -21 -46.5t-46 -18.5t-45 18.5t-20 46.5zM352 826q0 26 21 45t46 19q22 0 43.5 -17.5t21.5 -46.5
q0 -28 -20 -46.5t-45 -18.5t-46 18.5t-21 46.5z" />
    <glyph glyph-name="afii10065.var.accented" unicode="&#x430;`" horiz-adv-x="598" 
d="M398 396v50h144v-446h-144v54q-45 -69 -132 -69q-103 0 -167 68q-65 71 -65 167q0 111 69 180q61 61 155 61t140 -65zM294 337q-47 0 -79 -32q-33 -33 -33 -81q0 -45 30 -80q33 -35 85 -35q44 0 75 31q35 35 35 84q0 51 -33 82q-34 31 -80 31zM360 715l94 -65l-152 -135
l-65 48z" />
    <glyph glyph-name="afii10070.var.accented" unicode="&#x435;`" horiz-adv-x="547" 
d="M185 284h195q-8 32 -29 52q-27 25 -68 25q-44 0 -73 -29q-20 -21 -25 -48zM513 213v-15h-333q0 -48 27 -76t74 -28q36 0 58 13q2 1 6.5 4.5t12 12.5t12.5 20l136 -14q-25 -74 -86 -112q-53 -33 -141 -33q-114 0 -178 64q-67 67 -67 172t68 176q64 64 171 64
q113 0 177 -67q63 -67 63 -181zM335 715l94 -65l-152 -135l-65 48z" />
    <glyph glyph-name="afii10074.var.accented" unicode="&#x438;`" horiz-adv-x="580" 
d="M56 446h144v-255l190 255h134v-446h-144v259l-190 -259h-134v446zM351 715l94 -65l-152 -135l-65 48z" />
    <glyph glyph-name="afii10080.var.accented" unicode="&#x43e;`" horiz-adv-x="592" 
d="M558 223q0 -99 -67 -166q-72 -72 -195 -72t-195 72q-67 67 -67 166t67 166q72 72 195 72t195 -72q67 -67 67 -166zM296 339q-49 0 -81 -32q-33 -33 -33 -84t33 -84q32 -32 82 -32q48 0 80 32q33 33 33 84t-33 84q-32 32 -81 32zM357 715l94 -65l-152 -135l-65 48z" />
    <glyph glyph-name="afii10085.var.accented" unicode="&#x443;`" horiz-adv-x="585" 
d="M58 -229l157 286l-213 389h166l126 -242l123 242h162l-359 -675h-162zM354 715l94 -65l-152 -135l-65 48z" />
    <glyph glyph-name="afii10093.var.accented" unicode="&#x44b;`" horiz-adv-x="703" 
d="M505 446h142v-446h-142v446zM200 293h99q79 0 121 -42q37 -37 37 -102q0 -70 -40 -110q-40 -39 -123 -39h-238v446h144v-153zM200 102h59q31 0 44 12q14 12 14 34q0 21 -14 32q-13 11 -43 11h-60v-89zM413 715l94 -65l-152 -135l-65 48z" />
    <glyph glyph-name="afii10095.var.accented" unicode="&#x44d;`" horiz-adv-x="460" 
d="M38 12v134q50 -45 122 -45q48 0 76 18q29 17 40 57h-170v98h170q-13 36 -44 54q-28 17 -73 17q-68 0 -121 -46v131q68 31 145 31q115 0 179 -64q64 -66 64 -169q0 -113 -68 -181q-39 -39 -82.5 -50.5t-98.5 -11.5q-75 0 -139 27zM258 715l94 -65l-152 -135l-65 48z" />
    <glyph glyph-name="afii10096.var.accented" unicode="&#x44e;`" horiz-adv-x="789" 
d="M200 285h56q12 62 54 104q70 72 186 72q120 0 191 -71q68 -68 68 -166q0 -105 -67 -172t-187 -67q-118 0 -184 62q-16 13 -36 45t-27 77h-54v-169h-144v446h144v-161zM496 339q-47 0 -77 -28q-35 -33 -35 -89q0 -49 31 -81q33 -34 81 -34q45 0 76 29q35 32 35 89
q0 51 -32 83q-31 31 -79 31zM456 715l94 -65l-152 -135l-65 48z" />
    <glyph glyph-name="afii10097.var.accented" unicode="&#x44f;`" horiz-adv-x="492" 
d="M18 0l128 161q-45 7 -77 39q-34 33 -34 90q0 69 41 110q48 46 147 46h213v-446h-144v149h-14l-104 -149h-156zM292 243v101h-51q-32 0 -45 -11q-17 -12 -17 -41q0 -21 14 -35q16 -14 51 -14h48zM308 715l94 -65l-152 -135l-65 48z" />
    <glyph glyph-name="afii10071.var.accented" unicode="&#x451;`" horiz-adv-x="547" 
d="M185 284h195q-8 32 -29 52q-27 25 -68 25q-44 0 -73 -29q-20 -21 -25 -48zM513 213v-15h-333q0 -48 27 -76t74 -28q36 0 58 13q2 1 6.5 4.5t12 12.5t12.5 20l136 -14q-25 -74 -86 -112q-53 -33 -141 -33q-114 0 -178 64q-67 67 -67 172t68 176q64 64 171 64
q113 0 177 -67q63 -67 63 -181zM305 715l70 -50l-145 -138l-48 36zM45 611q0 31 21.5 49t46.5 18q29 0 48 -19.5t19 -47.5q0 -32 -22 -50t-45 -18q-24 0 -46 18t-22 50zM369 611q0 31 21.5 49t46.5 18q29 0 48 -19.5t19 -47.5q0 -32 -22 -50t-45 -18q-24 0 -46 18t-22 50z
" />
    <glyph glyph-name="fi" unicode="fi" horiz-adv-x="574" 
d="M326 328h-114v-328h-144v328h-52v118h52v70q0 33 1.5 53.5t13.5 54.5t35 58q53 58 168 58q120 0 175 -53q53 -50 53 -172v-7h-144v8q0 55 -21 78q-22 22 -57 22q-34 0 -57 -23q-23 -26 -23 -71v-76h114v-118zM370 446h144v-446h-144v446z" />
    <glyph glyph-name="fl" unicode="fl" horiz-adv-x="574" 
d="M326 328h-114v-328h-144v328h-52v118h52v80q0 104 50 156q58 58 170 58q115 0 172 -53q34 -32 44 -74.5t10 -116.5v-496h-144v514q0 57 -21 80q-22 22 -57 22q-34 0 -57 -23q-23 -26 -23 -71v-76h114v-118z" />
    <glyph glyph-name=".notdef" 
d="M58 8h384v496h-384v-496zM50 0v512h400v-512h-400z" />
    <glyph glyph-name=".null" horiz-adv-x="0" 
 />
    <glyph glyph-name="nonmarkingreturn" horiz-adv-x="333" 
 />
    <glyph glyph-name="space" unicode=" " horiz-adv-x="233" 
 />
    <glyph glyph-name="exclam" unicode="!" horiz-adv-x="278" 
d="M213 215h-148v452h148v-452zM48 75q0 38 26.5 64.5t64.5 26.5t64.5 -26.5t26.5 -64.5t-26.5 -64.5t-64.5 -26.5t-64.5 26.5t-26.5 64.5z" />
    <glyph glyph-name="quotedbl" unicode="&#x22;" horiz-adv-x="407" 
d="M182 667l-24 -268h-93l-23 268h140zM365 667l-23 -268h-93l-24 268h140z" />
    <glyph glyph-name="numbersign" unicode="#" horiz-adv-x="600" 
d="M471 295h102l-17 -111h-102l-30 -184h-128l30 184h-89l-30 -184h-128l30 184h-101l18 111h100l15 92h-100l17 110h100l28 170h128l-28 -170h89l28 170h128l-28 -170h101l-17 -110h-101zM343 295l15 92h-89l-15 -92h89z" />
    <glyph glyph-name="dollar" unicode="$" horiz-adv-x="600" 
d="M263 775h90v-101q85 -8 152 -64l-67 -107q-54 47 -109 47q-43 0 -63 -19q-20 -20 -20 -42q0 -23 19 -39q7 -7 16.5 -12t26.5 -11.5t24 -9.5l56 -24q65 -28 94 -57q47 -50 47 -123q0 -89 -55 -149q-47 -50 -121 -62v-114h-90v110q-68 5 -120 33q-51 28 -90 68l74 110
q32 -32 65 -52q46 -27 93 -27q42 0 67 21q24 20 24 51q0 33 -30 54q-7 5 -15.5 8.5t-25 10t-28.5 11.5l-35 14q-70 30 -101 61q-45 46 -45 110q0 91 57 148q44 44 110 55v101z" />
    <glyph glyph-name="percent" unicode="%" horiz-adv-x="830" 
d="M185 2l391 676l70 -15l-392 -677zM205 595q-36 0 -57 -23q-22 -22 -22 -58t22 -58q21 -23 57 -23t57 23q22 22 22 58t-22 58q-21 23 -57 23zM380 514q0 -69 -43 -112q-48 -50 -132 -50t-132 50q-43 43 -43 112t43 112q48 50 132 50t132 -50q43 -43 43 -112zM625 234
q-36 0 -57 -23q-22 -22 -22 -58t22 -58q21 -23 57 -23t57 23q22 22 22 58t-22 58q-21 23 -57 23zM800 153q0 -69 -43 -112q-48 -50 -132 -50t-132 50q-43 43 -43 112t43 112q48 50 132 50t132 -50q43 -43 43 -112z" />
    <glyph glyph-name="ampersand" unicode="&#x26;" horiz-adv-x="744" 
d="M596 337l87 -85q-41 -52 -89 -96l142 -156h-188l-60 65q-42 -42 -85 -60q-49 -20 -125 -20q-113 0 -169 53q-57 57 -57 138t52 133q41 42 108 62q-28 28 -46 59q-18 35 -18 78q0 73 47 120q56 54 147 54q95 0 149 -54q46 -46 46 -114q0 -67 -51 -117q-28 -28 -72 -46
l97 -107q48 45 85 93zM402 162l-115 129q-37 -20 -54 -39q-23 -25 -23 -60q0 -30 24 -52q25 -22 65 -22q50 0 103 44zM291 519q0 -26 17 -49q11 -17 38 -44q29 14 47 36q21 26 21 55q0 26 -17 43q-18 16 -45 16q-24 0 -42 -14q-19 -16 -19 -43z" />
    <glyph glyph-name="quotesingle" unicode="'" horiz-adv-x="224" 
d="M182 667l-24 -268h-93l-23 268h140z" />
    <glyph glyph-name="parenleft" unicode="(" horiz-adv-x="335" 
d="M182 740l97 -54q-37 -73 -64 -175q-27 -109 -27 -234q0 -123 27 -232q27 -102 64 -175l-97 -54q-49 90 -79 192q-35 115 -35 269q0 146 35 271q30 102 79 192z" />
    <glyph glyph-name="parenright" unicode=")" horiz-adv-x="335" 
d="M68 686l97 54q49 -90 79 -192q35 -125 35 -271q0 -154 -35 -269q-30 -102 -79 -192l-97 54q37 73 64 175q27 109 27 232q0 125 -27 234q-27 102 -64 175z" />
    <glyph glyph-name="asterisk" unicode="*" horiz-adv-x="585" 
d="M147 659l104 -44l-8 114h99l-9 -114l105 44l31 -93l-111 -26l73 -87l-78 -58l-61 97l-60 -97l-78 58l73 86l-111 26z" />
    <glyph glyph-name="plus" unicode="+" 
d="M33 282v116h154v154h126v-154h154v-116h-154v-155h-126v155h-154z" />
    <glyph glyph-name="comma" unicode="," horiz-adv-x="351" 
d="M24 -128l110 282l131 -7l-151 -279z" />
    <glyph glyph-name="hyphen" unicode="-" horiz-adv-x="356" 
d="M50 190v126h256v-126h-256z" />
    <glyph glyph-name="period" unicode="." horiz-adv-x="278" 
d="M48 75q0 38 26.5 64.5t64.5 26.5t64.5 -26.5t26.5 -64.5t-26.5 -64.5t-64.5 -26.5t-64.5 26.5t-26.5 64.5z" />
    <glyph glyph-name="slash" unicode="/" horiz-adv-x="700" 
d="M15 -184l527 933l113 -20l-527 -933z" />
    <glyph glyph-name="zero" unicode="0" horiz-adv-x="600" 
d="M574 333q0 -184 -96 -279q-69 -69 -179 -69q-106 0 -177 69q-96 95 -96 279q0 185 96 280q71 69 177 69q110 0 179 -69q96 -95 96 -280zM300 550q-34 0 -62 -25q-56 -56 -56 -191q0 -138 56 -192q28 -25 62 -25t62 25q56 54 56 192q0 135 -56 191q-28 25 -62 25z" />
    <glyph glyph-name="one" unicode="1" horiz-adv-x="600" 
d="M231 0v537h-95v130h249v-667h-154z" />
    <glyph glyph-name="two" unicode="2" horiz-adv-x="600" 
d="M534 130v-130h-510l200 218q84 98 109 136q40 60 40 113q0 42 -26 66q-20 19 -61 19q-40 0 -61 -24q-28 -29 -28 -82h-154q9 104 69 167q63 69 184 69q110 0 173 -63q62 -62 62 -160q0 -77 -50 -147q-30 -42 -107 -115l-70 -67h230z" />
    <glyph glyph-name="three" unicode="3" horiz-adv-x="600" 
d="M193 467h-148q12 95 66 151q61 63 169 63q116 0 175 -59q51 -49 51 -136q0 -54 -27 -91q-21 -28 -50 -42q50 -20 76 -54q31 -42 31 -105q0 -91 -67 -152q-64 -58 -176 -58q-126 0 -195 69q-64 64 -74 165h154q5 -48 32 -75t74 -27q42 0 67 23q27 25 27 68q0 40 -29 64
q-27 21 -82 21h-12v106h9q44 0 67 19q25 20 25 60q0 34 -22 54t-57 20q-38 0 -60 -22t-24 -62z" />
    <glyph glyph-name="four" unicode="4" horiz-adv-x="600" 
d="M493 667v-419h80v-122h-80v-126h-148v126h-326v88l294 453h180zM181 248h164v259z" />
    <glyph glyph-name="five" unicode="5" horiz-adv-x="600" 
d="M493 667v-130h-225l-18 -89q32 5 55 5q108 0 170 -65q61 -61 61 -161q0 -104 -68 -172q-71 -70 -202 -70q-127 0 -222 73l35 143q35 -37 64 -55q43 -29 101 -29q61 0 95 27q39 30 39 84q0 46 -34 78q-35 35 -111 35q-75 0 -136 -35l68 361h328z" />
    <glyph glyph-name="six" unicode="6" horiz-adv-x="600" 
d="M288 682l165 -17l-176 -219q31 11 70 11q105 0 165 -64q58 -58 58 -154q0 -110 -63 -179q-69 -75 -205 -75q-144 0 -216 78q-58 62 -58 162q0 72 27 129.5t80 126.5zM297 111q45 0 80 30q35 31 35 88q0 51 -35 82q-30 28 -80 28q-52 0 -81 -29q-34 -31 -34 -85
q0 -52 34 -83q31 -31 81 -31z" />
    <glyph glyph-name="seven" unicode="7" horiz-adv-x="600" 
d="M50 20l302 517h-294v130h530l-395 -682z" />
    <glyph glyph-name="eight" unicode="8" horiz-adv-x="600" 
d="M299 -15q-57 0 -100 10t-82 46q-64 59 -64 145q0 67 45 114q35 35 83 50q-38 16 -61 41q-41 41 -41 106q0 75 49 124q59 61 173 61q112 0 171 -61q49 -49 49 -124q0 -65 -41 -106q-23 -25 -61 -41q48 -15 83 -50q45 -47 45 -114q0 -86 -64 -145q-39 -36 -82 -46t-102 -10
zM300 568q-33 0 -59 -22q-25 -24 -25 -57q0 -34 25 -57q25 -22 59 -22q35 0 58 22q25 24 25 57t-25 58q-26 21 -58 21zM298 288q-39 0 -63 -24q-26 -26 -26 -66q0 -44 26 -67q25 -24 65 -24t65 24q26 26 26 68q0 39 -26 65q-24 24 -67 24z" />
    <glyph glyph-name="nine" unicode="9" horiz-adv-x="600" 
d="M310 -15l-165 17l176 218q-31 -10 -67 -10q-106 0 -168 62q-58 58 -58 161q0 109 65 174q72 75 209 75q127 0 200 -67q68 -64 68 -169q0 -68 -30 -136q-24 -53 -78 -124zM301 556q-49 0 -80 -30q-35 -32 -35 -84q0 -56 34 -86q31 -28 81 -28q49 0 81 29q34 32 34 88
q0 48 -34 81q-32 30 -81 30z" />
    <glyph glyph-name="colon" unicode=":" horiz-adv-x="278" 
d="M48 76q0 38 26.5 64.5t64.5 26.5t64.5 -26.5t26.5 -64.5t-26.5 -64.5t-64.5 -26.5t-64.5 26.5t-26.5 64.5zM48 370q0 38 26.5 64.5t64.5 26.5t64.5 -26.5t26.5 -64.5t-26.5 -64.5t-64.5 -26.5t-64.5 26.5t-26.5 64.5z" />
    <glyph glyph-name="semicolon" unicode=";" horiz-adv-x="354" 
d="M4 -128l110 282l131 -7l-151 -279zM84 370q0 38 26.5 64.5t64.5 26.5t64.5 -26.5t26.5 -64.5t-26.5 -64.5t-64.5 -26.5t-64.5 26.5t-26.5 64.5z" />
    <glyph glyph-name="less" unicode="&#x3c;" 
d="M33 388l434 219v-124l-301 -149l301 -149v-124l-434 219v108z" />
    <glyph glyph-name="equal" unicode="=" 
d="M33 371v110h434v-110h-434zM33 199v110h434v-110h-434z" />
    <glyph glyph-name="greater" unicode="&#x3e;" 
d="M467 388v-108l-434 -219v124l301 149l-301 149v124z" />
    <glyph glyph-name="question" unicode="?" horiz-adv-x="525" 
d="M319 214h-146v184q32 -9 69 -3.5t59 24.5q30 25 30 69q0 31 -19 51q-18 19 -48 19q-32 0 -51 -19q-19 -20 -17 -56h-154q1 82 55 138q56 61 165 61q101 0 165 -60q56 -55 56 -138q0 -73 -50 -127q-43 -49 -114 -59v-84zM159 76q0 38 26.5 64.5t64.5 26.5t64.5 -26.5
t26.5 -64.5t-26.5 -64.5t-64.5 -26.5t-64.5 26.5t-26.5 64.5z" />
    <glyph glyph-name="at" unicode="@" horiz-adv-x="734" 
d="M468 445l8 42h84l-40 -203q-4 -11 -4 -34q0 -19 9 -28q6 -6 17 -6q15 0 32 15q25 23 39 65.5t14 78.5q0 91 -58 153q-68 70 -182 70q-117 0 -193 -78q-79 -81 -79 -198q0 -123 86 -201q69 -63 193 -63q94 0 180 33l19 -76q-92 -32 -196 -32q-176 0 -271 99
q-45 47 -69 112t-24 132q0 153 101 250q98 97 254 97q144 0 230 -86q83 -80 83 -206q0 -58 -19 -109.5t-53 -83.5q-42 -40 -93 -40q-32 0 -54 19q-17 13 -23 37q-42 -64 -122 -64q-61 0 -100 40q-42 42 -42 117q0 90 55 149q48 51 119 51q67 0 99 -52zM358 225q31 0 54 23
q34 34 34 86q0 41 -22 61q-17 15 -43 15q-33 0 -56 -23q-35 -35 -35 -86q0 -37 21 -58q18 -18 47 -18z" />
    <glyph glyph-name="A" unicode="A" horiz-adv-x="677" 
d="M515 0l-50 126h-252l-51 -126h-160l269 667h141l263 -667h-160zM258 244h165l-82 224z" />
    <glyph glyph-name="B" unicode="B" horiz-adv-x="594" 
d="M73 667h204q114 0 170 -51q48 -45 48 -126q0 -51 -22 -85q-20 -33 -56 -49q56 -9 92 -45q43 -43 43 -119q0 -83 -52 -135q-60 -57 -176 -57h-251v667zM225 547v-151h25q51 0 78 19q27 20 27 59q0 36 -26 56q-23 17 -80 17h-24zM225 282v-162h37q86 0 114 27q22 19 22 56
t-21 54q-27 25 -110 25h-42z" />
    <glyph glyph-name="C" unicode="C" horiz-adv-x="605" 
d="M555 198v-177q-70 -36 -147 -36q-163 0 -262 97q-104 102 -104 253q0 149 104 251q101 96 249 96q74 0 160 -37v-178q-69 71 -156 71q-83 0 -136 -52q-63 -61 -63 -154t58 -147q56 -56 144 -56q84 0 153 69z" />
    <glyph glyph-name="D" unicode="D" horiz-adv-x="685" 
d="M73 667h211q168 0 263 -92q96 -91 96 -239q0 -145 -91 -236q-100 -100 -263 -100h-216v667zM227 537v-407h41q100 0 152 45q65 56 65 161q0 89 -55 144q-57 57 -162 57h-41z" />
    <glyph glyph-name="E" unicode="E" horiz-adv-x="502" 
d="M450 667v-130h-223v-129h212v-130h-212v-148h223v-130h-377v667h377z" />
    <glyph glyph-name="F" unicode="F" horiz-adv-x="483" 
d="M443 667v-130h-216v-129h200v-130h-200v-278h-154v667h370z" />
    <glyph glyph-name="G" unicode="G" horiz-adv-x="767" 
d="M394 240v124h331v-7q0 -69 -26 -148.5t-77 -132.5q-89 -91 -238 -91q-72 0 -131.5 19t-112.5 74q-98 98 -98 254q0 155 96 253q95 97 262 97q110 0 187 -50q68 -47 108 -119l-139 -75q-22 46 -59 72q-44 32 -102 32q-89 0 -138 -54q-57 -60 -57 -158q0 -97 56 -153
q51 -52 135 -52q74 0 116 36q34 27 48 79h-161z" />
    <glyph glyph-name="H" unicode="H" horiz-adv-x="720" 
d="M227 667v-254h266v254h154v-667h-154v283h-266v-283h-154v667h154z" />
    <glyph glyph-name="I" unicode="I" horiz-adv-x="306" 
d="M76 667h154v-667h-154v667z" />
    <glyph glyph-name="J" unicode="J" horiz-adv-x="415" 
d="M188 667h154v-454q0 -123 -58 -178q-50 -50 -141 -50q-66 0 -106 24q-35 22 -63 56l96 108q18 -31 24 -37q15 -15 38 -15q22 0 36 14q20 20 20 79v453z" />
    <glyph glyph-name="K" unicode="K" horiz-adv-x="670" 
d="M227 667v-278l228 278h188l-270 -316l291 -351h-198l-239 296v-296h-154v667h154z" />
    <glyph glyph-name="L" unicode="L" horiz-adv-x="448" 
d="M73 667h154v-537h207v-130h-361v667z" />
    <glyph glyph-name="M" unicode="M" horiz-adv-x="886" 
d="M196 0h-154l107 667h128l166 -399l166 399h128l107 -667h-154l-53 398l-167 -398h-54l-167 398z" />
    <glyph glyph-name="N" unicode="N" horiz-adv-x="796" 
d="M227 0h-154v667h134l362 -430v430h154v-667h-134l-362 432v-432z" />
    <glyph glyph-name="O" unicode="O" horiz-adv-x="810" 
d="M406 682q158 0 258 -97q104 -99 104 -252q0 -147 -104 -250q-103 -98 -258 -98q-156 0 -260 98q-49 46 -76.5 110.5t-27.5 137.5q0 70 28.5 138.5t74.5 114.5q98 98 261 98zM405 540q-89 0 -146 -57q-59 -57 -59 -151q0 -90 61 -150q58 -55 143 -55q91 0 148 57
q58 54 58 149q0 92 -58 150q-59 57 -147 57z" />
    <glyph glyph-name="P" unicode="P" horiz-adv-x="572" 
d="M73 667h235q113 0 175 -55q65 -59 65 -162q0 -95 -57 -157q-59 -59 -170 -59h-94v-234h-154v667zM227 541v-181h55q57 0 83 25q25 25 25 66q0 40 -25 65t-86 25h-52z" />
    <glyph glyph-name="Q" unicode="Q" horiz-adv-x="813" 
d="M644 -31l-65 68q-69 -52 -187 -52q-149 0 -245 95q-105 104 -105 254q0 73 27.5 137.5t73.5 110.5q100 100 261 100q156 0 258 -96q104 -97 104 -254q0 -65 -28 -129q-24 -55 -65 -90l116 -126zM509 278l60 -64q39 55 39 120q0 90 -57 147q-59 59 -147 59q-89 0 -146 -59
q-58 -58 -58 -150q0 -86 56 -145t144 -59q41 0 80 17l-120 118z" />
    <glyph glyph-name="R" unicode="R" horiz-adv-x="607" 
d="M73 667h234q110 0 170 -58q58 -56 58 -149q0 -84 -52 -136q-38 -38 -93 -51l205 -273h-188l-180 263v-263h-154v667zM227 547v-183h35q63 0 92 29q25 25 25 65q0 42 -31 68q-28 21 -85 21h-36z" />
    <glyph glyph-name="S" unicode="S" horiz-adv-x="550" 
d="M486 616l-69 -112q-53 48 -112 48q-43 0 -65 -23q-17 -17 -17 -42q0 -23 15 -37q5 -4 10 -7.5t14 -7.5t15 -6.5t21 -8t24 -8.5l50 -19q61 -23 91 -51q49 -46 49 -124q0 -104 -59 -165q-65 -68 -189 -68q-75 0 -132 28q-49 24 -98 73l80 110q36 -36 62 -51q39 -24 84 -24
q42 0 70 23q24 20 24 54q0 30 -23 48q-8 7 -21.5 13.5t-34.5 15t-22 8.5l-55 19q-64 23 -93 53q-40 42 -40 116q0 91 58 150q60 61 165 61q111 0 198 -66z" />
    <glyph glyph-name="T" unicode="T" horiz-adv-x="460" 
d="M452 537h-145v-537h-154v537h-145v130h444v-130z" />
    <glyph glyph-name="U" unicode="U" horiz-adv-x="710" 
d="M637 667v-395q0 -137 -74 -211q-44 -46 -94 -61t-114 -15t-114 15t-94 61q-74 74 -74 211v395h154v-391q0 -75 35 -112q33 -35 93 -35t93 35q35 37 35 112v391h154z" />
    <glyph glyph-name="V" unicode="V" horiz-adv-x="678" 
d="M4 667h166l169 -427l169 427h166l-283 -667h-104z" />
    <glyph glyph-name="W" unicode="W" horiz-adv-x="1002" 
d="M4 667h160l142 -442l142 442h106l142 -442l142 442h160l-227 -667h-130l-140 405l-140 -405h-130z" />
    <glyph glyph-name="X" unicode="X" horiz-adv-x="686" 
d="M10 0l245 354l-207 313h185l110 -190l110 190h185l-207 -313l245 -354h-185l-148 231l-148 -231h-185z" />
    <glyph glyph-name="Y" unicode="Y" horiz-adv-x="632" 
d="M239 0v311l-239 356h182l134 -207l134 207h182l-239 -356v-311h-154z" />
    <glyph glyph-name="Z" unicode="Z" horiz-adv-x="616" 
d="M594 667l-319 -537h286v-130h-539l320 537h-268v130h520z" />
    <glyph glyph-name="bracketleft" unicode="[" horiz-adv-x="354" 
d="M304 631h-92v-717h92v-98h-214v913h214v-98z" />
    <glyph glyph-name="backslash" unicode="\" horiz-adv-x="700" 
d="M685 -184l-113 -20l-527 933l113 20z" />
    <glyph glyph-name="bracketright" unicode="]" horiz-adv-x="354" 
d="M50 631v98h214v-913h-214v98h92v717h-92z" />
    <glyph glyph-name="asciicircum" unicode="^" 
d="M249 570l-111 -237h-132l161 334h165l161 -334h-132z" />
    <glyph glyph-name="underscore" unicode="_" 
d="M0 -184v118h500v-118h-500z" />
    <glyph glyph-name="grave" unicode="`" 
d="M240 515l-152 135l95 65l122 -152z" />
    <glyph glyph-name="a" unicode="a" horiz-adv-x="598" 
d="M398 396v50h144v-446h-144v54q-45 -69 -132 -69q-103 0 -167 68q-65 71 -65 167q0 111 69 180q61 61 155 61t140 -65zM294 337q-47 0 -79 -32q-33 -33 -33 -81q0 -45 30 -80q33 -35 85 -35q44 0 75 31q35 35 35 84q0 51 -33 82q-34 31 -80 31z" />
    <glyph glyph-name="b" unicode="b" horiz-adv-x="602" 
d="M60 729h144v-333q48 65 139 65q92 0 155 -60q70 -67 70 -176t-70 -179q-59 -61 -153 -61t-141 69v-54h-144v729zM308 337q-49 0 -81 -33q-32 -36 -32 -82q0 -49 33 -80q33 -33 82 -33q41 0 75 31q35 33 35 82q0 52 -35 85q-30 30 -77 30z" />
    <glyph glyph-name="c" unicode="c" horiz-adv-x="431" 
d="M391 436v-131q-41 34 -94 34q-50 0 -82 -32q-33 -33 -33 -84q0 -50 30 -80q34 -36 87 -36q51 0 92 35v-130q-50 -27 -114 -27q-104 0 -173 67q-70 66 -70 170q0 107 74 176q68 63 170 63q62 0 113 -25z" />
    <glyph glyph-name="d" unicode="d" horiz-adv-x="602" 
d="M542 729v-729h-144v54q-47 -69 -141 -69t-153 61q-70 70 -70 179t70 176q63 60 155 60q91 0 139 -65v333h144zM294 337q-47 0 -77 -30q-35 -33 -35 -85q0 -49 35 -82q34 -31 75 -31q49 0 82 33q33 31 33 80q0 46 -32 82q-32 33 -81 33z" />
    <glyph glyph-name="e" unicode="e" horiz-adv-x="547" 
d="M185 284h195q-8 32 -29 52q-27 25 -68 25q-44 0 -73 -29q-20 -21 -25 -48zM513 213v-15h-333q0 -48 27 -76t74 -28q36 0 58 13q2 1 6.5 4.5t12 12.5t12.5 20l136 -14q-25 -74 -86 -112q-53 -33 -141 -33q-114 0 -178 64q-67 67 -67 172t68 176q64 64 171 64
q113 0 177 -67q63 -67 63 -181z" />
    <glyph glyph-name="f" unicode="f" horiz-adv-x="326" 
d="M326 330h-114v-330h-144v330h-52v116h52v88q0 102 50 155q48 51 125 51q42 0 82 -15v-126q-25 17 -55 17q-26 0 -42 -18q-16 -21 -16 -77v-75h114v-116z" />
    <glyph glyph-name="g" unicode="g" horiz-adv-x="595" 
d="M395 394v52h144v-419q0 -40 -2.5 -66.5t-15.5 -61.5t-37 -62q-64 -66 -188 -66q-120 0 -186 57q-53 45 -67 118h157q9 -28 32 -44q23 -15 62 -15q43 0 72 24q29 29 29 93v51q-36 -67 -133 -67q-100 0 -163 63q-65 67 -65 168q0 112 66 178q62 64 162 64q88 0 133 -67z
M295 336q-47 0 -79 -29q-34 -31 -34 -83q0 -47 31 -80q30 -32 81 -32q49 0 78 29q35 33 35 85q0 48 -34 82q-31 28 -78 28z" />
    <glyph glyph-name="h" unicode="h" horiz-adv-x="571" 
d="M60 0v729h144v-336q26 31 54 46q37 19 87 19q81 0 126 -45q44 -44 44 -130v-283h-144v229q0 65 -24 89q-20 20 -56 20q-35 0 -57 -22q-30 -30 -30 -93v-223h-144z" />
    <glyph glyph-name="i" unicode="i" horiz-adv-x="276" 
d="M66 446h144v-446h-144v446zM54 636q0 35 24.5 59.5t59.5 24.5t59.5 -24.5t24.5 -59.5t-24.5 -59.5t-59.5 -24.5t-59.5 24.5t-24.5 59.5z" />
    <glyph glyph-name="j" unicode="j" horiz-adv-x="276" 
d="M66 446h144v-675h-144v675zM54 636q0 35 24.5 59.5t59.5 24.5t59.5 -24.5t24.5 -59.5t-24.5 -59.5t-59.5 -24.5t-59.5 24.5t-24.5 59.5z" />
    <glyph glyph-name="k" unicode="k" horiz-adv-x="566" 
d="M60 729h144v-447l162 164h189l-212 -202l227 -244h-194l-172 192v-192h-144v729z" />
    <glyph glyph-name="l" unicode="l" horiz-adv-x="264" 
d="M60 729h144v-729h-144v729z" />
    <glyph glyph-name="m" unicode="m" horiz-adv-x="843" 
d="M56 0v446h144v-52q42 63 125 63q51 0 84 -20q34 -19 54 -62q18 32 57 57q41 25 95 25q83 0 125 -42q46 -43 46 -133v-282h-144v226q0 63 -19 87t-52 24q-36 0 -56 -27q-22 -28 -22 -88v-222h-144v232q0 64 -23 87q-18 18 -48 18t-50 -18q-28 -28 -28 -91v-228h-144z" />
    <glyph glyph-name="n" unicode="n" horiz-adv-x="567" 
d="M56 0v446h144v-53q51 65 138 65q83 0 128 -45t45 -131v-282h-144v229q0 65 -24 89q-20 20 -55 20q-38 0 -60 -24q-28 -28 -28 -85v-229h-144z" />
    <glyph glyph-name="o" unicode="o" horiz-adv-x="592" 
d="M558 223q0 -99 -67 -166q-72 -72 -195 -72t-195 72q-67 67 -67 166t67 166q72 72 195 72t195 -72q67 -67 67 -166zM296 339q-49 0 -81 -32q-33 -33 -33 -84t33 -84q32 -32 82 -32q48 0 80 32q33 33 33 84t-33 84q-32 32 -81 32z" />
    <glyph glyph-name="p" unicode="p" horiz-adv-x="598" 
d="M200 51v-280h-144v675h144v-53q54 68 139 68q95 0 158 -63q67 -67 67 -174q0 -108 -71 -179q-60 -60 -151 -60q-93 0 -142 66zM304 337q-47 0 -80 -33q-34 -34 -34 -82q0 -44 32 -79q34 -34 82 -34q44 0 77 31q35 35 35 85q0 49 -34 81q-32 31 -78 31z" />
    <glyph glyph-name="q" unicode="q" horiz-adv-x="598" 
d="M398 -229v280q-54 -66 -142 -66q-91 0 -151 60q-71 71 -71 179q0 104 67 174q61 63 156 63q87 0 141 -68v53h144v-675h-144zM294 337q-46 0 -78 -31q-34 -32 -34 -81q0 -50 35 -85q33 -31 77 -31q48 0 82 34q32 35 32 79q0 48 -34 82q-33 33 -80 33z" />
    <glyph glyph-name="r" unicode="r" horiz-adv-x="384" 
d="M56 0v446h144v-70q20 39 56 62q30 19 77 19q26 0 47 -7l-8 -135q-29 16 -65 16q-43 0 -72 -30q-35 -38 -35 -120v-181h-144z" />
    <glyph glyph-name="s" unicode="s" horiz-adv-x="434" 
d="M386 423l-57 -91q-44 25 -79 25q-28 0 -41 -13q-9 -9 -9 -20q0 -12 14 -20q6 -4 21.5 -8.5t21.5 -6.5l38 -12q48 -15 74 -39q35 -31 35 -85q0 -71 -46 -117q-51 -51 -145 -51q-109 0 -183 64l61 97q30 -24 49 -33q25 -14 60 -14q33 0 45 10q15 12 15 29q0 16 -16 26
q-4 3 -44 16l-36 11q-44 13 -72 41q-32 35 -32 81q0 65 43 103q49 45 135 45q83 0 148 -38z" />
    <glyph glyph-name="t" unicode="t" horiz-adv-x="299" 
d="M293 330h-89v-330h-144v330h-50v116h50v144h144v-144h89v-116z" />
    <glyph glyph-name="u" unicode="u" horiz-adv-x="570" 
d="M56 446h144v-246q0 -49 25 -72q26 -21 60 -21q38 0 61 21q24 23 24 72v246h144v-260q0 -46 -9.5 -79.5t-40.5 -63.5q-58 -58 -179 -58q-122 0 -180 58q-49 48 -49 134v269z" />
    <glyph glyph-name="v" unicode="v" horiz-adv-x="546" 
d="M2 446h158l113 -239l113 239h158l-226 -446h-90z" />
    <glyph glyph-name="w" unicode="w" horiz-adv-x="852" 
d="M426 254l-112 -254h-90l-222 446h158l115 -237l113 243h76l113 -243l115 237h158l-222 -446h-90z" />
    <glyph glyph-name="x" unicode="x" horiz-adv-x="620" 
d="M2 0l218 243l-177 203h184l83 -103l83 103h184l-177 -203l218 -243h-186l-122 144l-122 -144h-186z" />
    <glyph glyph-name="y" unicode="y" horiz-adv-x="585" 
d="M58 -229l157 286l-213 389h166l126 -242l123 242h162l-359 -675h-162z" />
    <glyph glyph-name="z" unicode="z" horiz-adv-x="499" 
d="M487 446l-231 -326h211v-120h-455l232 326h-197v120h440z" />
    <glyph glyph-name="braceleft" unicode="{" horiz-adv-x="504" 
d="M242 272q33 -15 46 -42q14 -30 14 -84v-160q0 -33 12 -45q14 -14 71 -14h19v-109q-34 -2 -73 -2q-82 0 -116 32q-17 15 -25.5 36t-9.5 35t-1 41v189q0 39 -17 56q-16 16 -38 17v106q22 1 38 17q17 17 17 56v184q0 27 1 41t9.5 35t25.5 36q34 32 116 32q39 0 73 -2v-109
h-19q-57 0 -71 -14q-12 -12 -12 -45v-161q0 -54 -14 -84q-13 -27 -46 -42z" />
    <glyph glyph-name="bar" unicode="|" horiz-adv-x="504" 
d="M189 -250v1000h126v-1000h-126z" />
    <glyph glyph-name="braceright" unicode="}" horiz-adv-x="504" 
d="M202 -14v160q0 54 14 84q13 27 46 42q-33 15 -46 42q-14 30 -14 84v161q0 33 -12 45q-14 14 -71 14h-19v109q34 2 73 2q82 0 116 -32q17 -15 25.5 -36t9.5 -35t1 -41v-184q0 -39 17 -56q16 -16 38 -17v-106q-22 -1 -38 -17q-17 -17 -17 -56v-189q0 -27 -1 -41t-9.5 -35
t-25.5 -36q-34 -32 -116 -32q-39 0 -73 2v109h19q57 0 71 14q12 12 12 45z" />
    <glyph glyph-name="asciitilde" unicode="~" 
d="M254 225l-36 14q-43 16 -64 16q-31 0 -49 -18q-18 -17 -28 -43l-71 43l5 11q33 70 56 93q36 36 90 36q36 0 87 -20l38 -14q41 -16 68 -16q28 0 48 18q16 16 24 34l72 -42l-4 -8q-28 -56 -53 -81q-40 -43 -96 -43q-34 0 -87 20z" />
    <glyph glyph-name="uni00A0" unicode="&#xa0;" horiz-adv-x="233" 
 />
    <glyph glyph-name="exclamdown" unicode="&#xa1;" horiz-adv-x="278" 
d="M213 222v-452h-148v452h148zM48 362q0 38 26.5 64.5t64.5 26.5t64.5 -26.5t26.5 -64.5t-26.5 -64.5t-64.5 -26.5t-64.5 26.5t-26.5 64.5z" />
    <glyph glyph-name="cent" unicode="&#xa2;" horiz-adv-x="600" 
d="M309 660h90v-94q36 -3 63 -19v-133q-34 38 -86 38q-47 0 -82 -32q-34 -32 -34 -86q0 -52 34 -86q29 -28 80 -28q55 0 88 37v-134q-33 -14 -63 -17v-93h-90v89q-76 10 -130 63q-67 66 -67 164q0 107 69 176q52 52 128 65v90z" />
    <glyph glyph-name="sterling" unicode="&#xa3;" horiz-adv-x="600" 
d="M159 248h-112v92h68q-30 49 -30 114q0 97 63 158q70 69 188 69q113 0 175 -60q62 -59 62 -165q0 -16 -1 -24h-153q0 68 -25 95q-26 26 -65 26q-37 0 -63 -23q-32 -30 -32 -80q0 -12 2.5 -25.5t7 -27t8 -22.5t9 -21t6.5 -14h149v-92h-125q8 -30 8 -47q0 -25 -10 -59
l58 -19q55 -18 83 -18q26 0 39 14q8 8 15 34l98 -12q-9 -74 -49 -115q-41 -41 -103 -41q-45 0 -115 23l-39 13q-42 14 -76 14q-33 0 -49 -13q-13 -9 -19 -27l-104 9q16 67 54 105q35 35 83 43q8 26 8 46q0 26 -14 50z" />
    <glyph glyph-name="currency" unicode="&#xa4;" horiz-adv-x="667" 
d="M89 67l-68 68l103 103q-44 56 -44 138q0 76 45 138l-104 104l68 68l104 -103q58 44 140 44q83 0 139 -44l103 103l68 -68l-102 -103q45 -57 45 -139q0 -85 -44 -138l103 -103l-68 -68l-103 103q-53 -45 -141 -45q-84 0 -141 44zM333 237q59 0 97 38q40 40 40 101t-39 100
t-98 39q-61 0 -98 -39q-39 -39 -39 -100q0 -58 38 -98q37 -41 99 -41z" />
    <glyph glyph-name="yen" unicode="&#xa5;" horiz-adv-x="600" 
d="M202 347h-140v97h82l-134 223h174l117 -212l114 212h176l-138 -223h86v-97h-146l-23 -35v-28h169v-97h-169v-187h-146v187h-162v97h162v28z" />
    <glyph glyph-name="brokenbar" unicode="&#xa6;" horiz-adv-x="504" 
d="M189 365v385h126v-385h-126zM189 -250v386h126v-386h-126z" />
    <glyph glyph-name="section" unicode="&#xa7;" horiz-adv-x="574" 
d="M481 545h-130q0 40 -19 59q-18 18 -47 18q-26 0 -43 -15t-17 -39q0 -32 31 -53q10 -7 22.5 -13.5t30.5 -14t28 -12.5l31 -14q60 -26 89 -58q44 -44 44 -114q0 -63 -33 -109q-29 -41 -76 -60q38 -18 59 -50q24 -34 24 -79q0 -78 -50 -126q-50 -49 -135 -49q-93 0 -147 56
q-49 52 -54 137h130q0 -35 18 -60q17 -23 50 -23q28 0 44 16q20 18 20 51q0 27 -21 47q-17 15 -84 39q-92 32 -126 68q-47 47 -47 129q0 61 28 99q24 37 78 59q-32 17 -55 46q-26 34 -26 83q0 70 44 116q48 50 139 50q98 0 146 -50q47 -47 54 -134zM288 356q-35 0 -57 -22
t-22 -57q0 -36 22 -58t57 -22q33 0 55 22t22 58q0 35 -22 57t-55 22z" />
    <glyph glyph-name="dieresis" unicode="&#xa8;" 
d="M280 599q0 32 23.5 55.5t55.5 23.5t55.5 -23.5t23.5 -55.5t-23.5 -55.5t-55.5 -23.5t-55.5 23.5t-23.5 55.5zM62 599q0 32 23.5 55.5t55.5 23.5t55.5 -23.5t23.5 -55.5t-23.5 -55.5t-55.5 -23.5t-55.5 23.5t-23.5 55.5z" />
    <glyph glyph-name="copyright" unicode="&#xa9;" horiz-adv-x="762" 
d="M507 518v-122q-43 50 -102 50q-49 0 -80 -30q-32 -29 -32 -84q0 -47 28 -78q32 -34 85 -34q60 0 101 49v-120q-54 -25 -111 -25q-98 0 -157 59q-58 62 -58 148q0 90 59 149q58 62 160 62q56 0 107 -24zM381 620q-49 0 -101 -21t-90 -57q-38 -37 -62 -93t-24 -115
q0 -60 24 -116t62 -93q38 -36 90 -57t101 -21t101 21t90 57q38 37 62 93t24 116q0 59 -24 115t-62 93q-38 36 -90 57t-101 21zM728 333q0 -146 -103 -249q-101 -99 -244 -99t-244 99q-103 103 -103 249q0 147 103 250q101 99 244 99t244 -99q103 -103 103 -250z" />
    <glyph glyph-name="ordfeminine" unicode="&#xaa;" horiz-adv-x="352" 
d="M236 629v30h84v-264h-84v32q-28 -41 -82 -41q-56 0 -91 35q-41 39 -41 106q0 64 41 105q35 35 90 35q52 0 83 -38zM32 291v66h288v-66h-288zM174 593q-31 0 -49 -21q-17 -19 -17 -47t17 -45q20 -20 49 -20t49 20q17 19 17 45q0 31 -17 48q-20 20 -49 20z" />
    <glyph glyph-name="guillemotleft" unicode="&#xab;" horiz-adv-x="534" 
d="M158 224l118 -159l-81 -57l-155 216l155 215l79 -55zM366 224l118 -159l-81 -57l-155 216l155 215l79 -55z" />
    <glyph glyph-name="logicalnot" unicode="&#xac;" 
d="M468 0h-126v149h-310v118h436v-267z" />
    <glyph glyph-name="uni00AD" unicode="&#xad;" horiz-adv-x="356" 
d="M50 190v126h256v-126h-256z" />
    <glyph glyph-name="registered" unicode="&#xae;" horiz-adv-x="761" 
d="M227 529h142q81 0 120 -39q31 -31 31 -82q0 -44 -29 -76q-23 -24 -54 -30l107 -152h-133l-76 128v-128h-108v379zM335 449v-88h15q30 0 45 9q19 12 19 37q0 21 -14 32q-14 10 -51 10h-14zM380 620q-49 0 -101 -21t-90 -57q-38 -37 -62 -93t-24 -115q0 -60 24 -116t62 -93
q38 -36 90 -57t101 -21t101 21t90 57q38 37 62 93t24 116q0 59 -24 115t-62 93q-38 36 -90 57t-101 21zM727 333q0 -146 -103 -249q-101 -99 -244 -99t-244 99q-103 103 -103 249q0 147 103 250q101 99 244 99t244 -99q103 -103 103 -250z" />
    <glyph glyph-name="overscore" unicode="&#xaf;" 
d="M60 543v90h380v-90h-380z" />
    <glyph glyph-name="degree" unicode="&#xb0;" horiz-adv-x="502" 
d="M175 515q0 -30 22 -52t54 -22t54 22t22 52t-22 52t-54 22t-54 -22t-22 -52zM97 515q0 63 44.5 107.5t109.5 44.5t109.5 -44.5t44.5 -107.5t-44.5 -107.5t-109.5 -44.5t-109.5 44.5t-44.5 107.5z" />
    <glyph glyph-name="plusminus" unicode="&#xb1;" 
d="M33 356v116h154v155h126v-155h154v-116h-154v-155h-126v155h-154zM33 51v116h434v-116h-434z" />
    <glyph glyph-name="twosuperior" unicode="&#xb2;" horiz-adv-x="395" 
d="M29 275l105 119q65 73 80 97q16 25 16 55q0 23 -13 39q-12 14 -37 14q-22 0 -36 -18q-11 -18 -13 -42h-94q5 64 43 102t107 38t107 -38q36 -35 36 -92q0 -45 -24 -86q-13 -22 -55 -64l-48 -46h131v-78h-305z" />
    <glyph glyph-name="threesuperior" unicode="&#xb3;" horiz-adv-x="395" 
d="M30 397h94q1 -25 18 -40q14 -14 41 -14q25 0 41 13q17 14 17 39q0 21 -17 36q-15 12 -52 12h-11v70h10q28 0 41 10q16 12 16 36q0 19 -15 34q-13 10 -32 10q-21 0 -35 -14q-12 -13 -12 -34h-94q7 53 38 86q36 38 104 38q71 0 108 -33q32 -30 32 -78q0 -32 -13 -52
q-17 -21 -32 -30q24 -11 36 -23q28 -28 28 -71q0 -54 -36 -90q-39 -39 -111 -39q-78 0 -120 40q-38 37 -44 94z" />
    <glyph glyph-name="acute" unicode="&#xb4;" 
d="M317 715l94 -65l-152 -135l-65 48z" />
    <glyph glyph-name="mu" unicode="&#xb5;" horiz-adv-x="566" 
d="M224 -229h-141v675h144v-215q0 -91 35 -121q20 -16 48 -16t48 16q35 29 35 121v215h144v-446h-141v58q-16 -36 -31 -50q-20 -18 -55 -18t-55 18q-21 16 -31 50v-287z" />
    <glyph glyph-name="mu" unicode="&#x3bc;" horiz-adv-x="566" 
d="M224 -229h-141v675h144v-215q0 -91 35 -121q20 -16 48 -16t48 16q35 29 35 121v215h144v-446h-141v58q-16 -36 -31 -50q-20 -18 -55 -18t-55 18q-21 16 -31 50v-287z" />
    <glyph glyph-name="paragraph" unicode="&#xb6;" horiz-adv-x="659" 
d="M324 -94h-108v415h-8q-88 0 -138 51q-44 46 -44 119q0 76 49 124q32 31 72.5 41.5t108.5 10.5h331v-98h-72v-663h-108v663h-83v-663z" />
    <glyph glyph-name="middot" unicode="&#xb7;" horiz-adv-x="256" 
d="M20 334q0 46 31 77t77 31t77 -31t31 -77t-31 -77t-77 -31t-77 31t-31 77z" />
    <glyph glyph-name="cedilla" unicode="&#xb8;" 
d="M264 -46l94 -44l-118 -146l-74 40z" />
    <glyph glyph-name="onesuperior" unicode="&#xb9;" horiz-adv-x="395" 
d="M163 275v314h-67v78h159v-392h-92z" />
    <glyph glyph-name="ordmasculine" unicode="&#xba;" horiz-adv-x="346" 
d="M29 291v66h288v-66h-288zM173 593q-29 0 -49 -20q-17 -17 -17 -47q0 -29 17 -46q20 -20 49 -20q31 0 49 20q17 17 17 46q0 30 -17 47q-20 20 -49 20zM325 527q0 -57 -39 -98q-43 -43 -113 -43t-113 43q-39 41 -39 98q0 58 39 97q43 43 113 43t113 -43q39 -39 39 -97z" />
    <glyph glyph-name="guillemotright" unicode="&#xbb;" horiz-adv-x="534" 
d="M168 224l-116 160l79 55l155 -215l-155 -216l-81 57zM376 224l-116 160l79 55l155 -215l-155 -216l-81 57z" />
    <glyph glyph-name="onequarter" unicode="&#xbc;" horiz-adv-x="860" 
d="M734 400v-250h46v-74h-46v-76h-88v76h-192v50l174 274h106zM552 150h94v148zM153 267v322h-67v78h159v-400h-92zM173 10l390 668l68 -23l-390 -669z" />
    <glyph glyph-name="onehalf" unicode="&#xbd;" horiz-adv-x="860" 
d="M142 275v314h-66v78h158v-392h-92zM162 10l390 668l68 -23l-390 -669zM490 0l104 119q11 12 26.5 29.5t23 26t16 20t14.5 21.5q16 25 16 55q0 23 -13 39q-14 14 -34 14q-25 0 -38 -18q-12 -16 -14 -42h-94q5 64 43 102q40 38 104 38q70 0 109 -37q37 -35 37 -93
q0 -47 -26 -88q-14 -23 -53 -62l-48 -46h131v-78h-304z" />
    <glyph glyph-name="threequarters" unicode="&#xbe;" horiz-adv-x="859" 
d="M28 399h94q1 -25 18 -40q14 -14 41 -14q28 0 41 13q17 15 17 38q0 24 -17 38q-16 12 -52 12h-11v70h10q28 0 41 10q16 12 16 36q0 19 -15 34q-13 10 -32 10q-21 0 -35 -14q-12 -14 -12 -34h-90q7 53 38 86q36 38 104 38q67 0 104 -33q32 -30 32 -78q0 -32 -13 -52
q-17 -21 -32 -30q24 -11 36 -23q28 -28 28 -73q0 -53 -36 -89q-39 -39 -111 -39q-78 0 -120 40q-38 37 -44 94zM222 10l390 668l68 -23l-390 -669zM601 150h94v148zM783 400v-250h46v-74h-46v-76h-88v76h-192v50l174 274h106z" />
    <glyph glyph-name="questiondown" unicode="&#xbf;" horiz-adv-x="525" 
d="M206 226h146v-184q-25 5 -43 5q-56 0 -85 -26q-30 -25 -30 -69q0 -31 19 -51q18 -19 48 -19q32 0 51 19q17 19 17 56h154q-1 -82 -55 -138q-56 -61 -165 -61q-101 0 -165 60q-56 55 -56 138q0 73 50 127q43 49 114 59v84zM366 362q0 -38 -26.5 -64.5t-64.5 -26.5
t-64.5 26.5t-26.5 64.5t26.5 64.5t64.5 26.5t64.5 -26.5t26.5 -64.5z" />
    <glyph glyph-name="Agrave" unicode="&#xc0;" horiz-adv-x="677" 
d="M515 0l-50 126h-252l-51 -126h-160l269 667h141l263 -667h-160zM258 244h165l-82 224zM354 724l-164 129l96 72l133 -148z" />
    <glyph glyph-name="Aacute" unicode="&#xc1;" horiz-adv-x="677" 
d="M515 0l-50 126h-252l-51 -126h-160l269 667h141l263 -667h-160zM258 244h165l-82 224zM394 925l95 -72l-164 -129l-65 53z" />
    <glyph glyph-name="Acircumflex" unicode="&#xc2;" horiz-adv-x="677" 
d="M515 0l-50 126h-252l-51 -126h-160l269 667h141l263 -667h-160zM258 244h165l-82 224zM214 726l-64 71l188 140l189 -140l-66 -71l-123 93z" />
    <glyph glyph-name="Atilde" unicode="&#xc3;" horiz-adv-x="677" 
d="M515 0l-50 126h-252l-51 -126h-160l269 667h141l263 -667h-160zM258 244h165l-82 224zM464 867l71 -50q-18 -34 -42 -58q-31 -31 -71 -31q-21 0 -62 16l-41 16q-25 11 -37 11q-31 0 -46 -39l-71 50q19 41 37 59q27 30 73 30q26 0 60 -14l40 -16q33 -12 41 -12q31 0 48 38
z" />
    <glyph glyph-name="Adieresis" unicode="&#xc4;" horiz-adv-x="677" 
d="M515 0l-50 126h-252l-51 -126h-160l269 667h141l263 -667h-160zM258 244h165l-82 224zM150 811q0 32 23.5 55.5t55.5 23.5t55.5 -23.5t23.5 -55.5t-23.5 -55.5t-55.5 -23.5t-55.5 23.5t-23.5 55.5zM368 811q0 32 23.5 55.5t55.5 23.5t55.5 -23.5t23.5 -55.5t-23.5 -55.5
t-55.5 -23.5t-55.5 23.5t-23.5 55.5z" />
    <glyph glyph-name="Aring" unicode="&#xc5;" horiz-adv-x="677" 
d="M515 0l-50 126h-252l-51 -126h-160l269 667h141l263 -667h-160zM258 244h165l-82 224zM454 827q0 -39 -27 -66q-35 -32 -89 -32t-89 32q-27 27 -27 66t27 66q35 32 89 32t89 -32q27 -27 27 -66zM338 866q-22 0 -34 -12t-12 -27t12 -27t34 -12t34 12t12 27t-12 27t-34 12z
" />
    <glyph glyph-name="AE" unicode="&#xc6;" horiz-adv-x="920" 
d="M522 0l-51 129h-255l-50 -129h-160l273 667h144h235l48 -130h-232l51 -129h230l50 -130h-231l59 -148h232l49 -130h-232h-160zM261 247h168l-82 219z" />
    <glyph glyph-name="Ccedilla" unicode="&#xc7;" horiz-adv-x="605" 
d="M555 198v-177q-70 -36 -147 -36q-163 0 -262 97q-104 102 -104 253q0 149 104 251q101 96 249 96q74 0 160 -37v-178q-69 71 -156 71q-83 0 -136 -52q-63 -61 -63 -154t58 -147q56 -56 144 -56q84 0 153 69zM385 -46l100 -44l-112 -146l-80 40z" />
    <glyph glyph-name="Egrave" unicode="&#xc8;" horiz-adv-x="502" 
d="M450 667v-130h-223v-129h212v-130h-212v-148h223v-130h-377v667h377zM285 724l-164 129l96 72l133 -148z" />
    <glyph glyph-name="Eacute" unicode="&#xc9;" horiz-adv-x="502" 
d="M450 667v-130h-223v-129h212v-130h-212v-148h223v-130h-377v667h377zM325 925l95 -72l-164 -129l-65 53z" />
    <glyph glyph-name="Ecircumflex" unicode="&#xca;" horiz-adv-x="502" 
d="M450 667v-130h-223v-129h212v-130h-212v-148h223v-130h-377v667h377zM130 726l-64 71l188 140l189 -140l-66 -71l-123 93z" />
    <glyph glyph-name="Edieresis" unicode="&#xcb;" horiz-adv-x="502" 
d="M450 667v-130h-223v-129h212v-130h-212v-148h223v-130h-377v667h377zM67 811q0 32 23.5 55.5t55.5 23.5t55.5 -23.5t23.5 -55.5t-23.5 -55.5t-55.5 -23.5t-55.5 23.5t-23.5 55.5zM285 811q0 32 23.5 55.5t55.5 23.5t55.5 -23.5t23.5 -55.5t-23.5 -55.5t-55.5 -23.5
t-55.5 23.5t-23.5 55.5z" />
    <glyph glyph-name="Igrave" unicode="&#xcc;" horiz-adv-x="306" 
d="M76 667h154v-667h-154v667zM170 724l-164 129l96 72l133 -148z" />
    <glyph glyph-name="Iacute" unicode="&#xcd;" horiz-adv-x="306" 
d="M76 667h154v-667h-154v667zM210 925l95 -72l-164 -129l-65 53z" />
    <glyph glyph-name="Icircumflex" unicode="&#xce;" horiz-adv-x="306" 
d="M76 667h154v-667h-154v667zM30 726l-64 71l188 140l189 -140l-66 -71l-123 93z" />
    <glyph glyph-name="Idieresis" unicode="&#xcf;" horiz-adv-x="306" 
d="M76 667h154v-667h-154v667zM-34 811q0 32 23.5 55.5t55.5 23.5t55.5 -23.5t23.5 -55.5t-23.5 -55.5t-55.5 -23.5t-55.5 23.5t-23.5 55.5zM184 811q0 32 23.5 55.5t55.5 23.5t55.5 -23.5t23.5 -55.5t-23.5 -55.5t-55.5 -23.5t-55.5 23.5t-23.5 55.5z" />
    <glyph glyph-name="Eth" unicode="&#xd0;" horiz-adv-x="712" 
d="M100 413v254h211q168 0 263 -92q96 -91 96 -239q0 -145 -91 -236q-100 -100 -263 -100h-216v303h-90v110h90zM254 537v-124h120v-110h-120v-173h41q100 0 152 45q65 56 65 161q0 89 -55 144q-57 57 -162 57h-41z" />
    <glyph glyph-name="Ntilde" unicode="&#xd1;" horiz-adv-x="796" 
d="M227 0h-154v667h134l362 -430v430h154v-667h-134l-362 432v-432zM519 867l71 -50q-18 -34 -42 -58q-31 -31 -71 -31q-21 0 -62 16l-41 16q-25 11 -37 11q-31 0 -46 -39l-71 50q19 41 37 59q27 30 73 30q26 0 60 -14l40 -16q33 -12 41 -12q31 0 48 38z" />
    <glyph glyph-name="Ograve" unicode="&#xd2;" horiz-adv-x="810" 
d="M406 682q158 0 258 -97q104 -99 104 -252q0 -147 -104 -250q-103 -98 -258 -98q-156 0 -260 98q-49 46 -76.5 110.5t-27.5 137.5q0 70 28.5 138.5t74.5 114.5q98 98 261 98zM405 540q-89 0 -146 -57q-59 -57 -59 -151q0 -90 61 -150q58 -55 143 -55q91 0 148 57
q58 54 58 149q0 92 -58 150q-59 57 -147 57zM420 724l-164 129l96 72l133 -148z" />
    <glyph glyph-name="Oacute" unicode="&#xd3;" horiz-adv-x="810" 
d="M406 682q158 0 258 -97q104 -99 104 -252q0 -147 -104 -250q-103 -98 -258 -98q-156 0 -260 98q-49 46 -76.5 110.5t-27.5 137.5q0 70 28.5 138.5t74.5 114.5q98 98 261 98zM405 540q-89 0 -146 -57q-59 -57 -59 -151q0 -90 61 -150q58 -55 143 -55q91 0 148 57
q58 54 58 149q0 92 -58 150q-59 57 -147 57zM460 925l95 -72l-164 -129l-65 53z" />
    <glyph glyph-name="Ocircumflex" unicode="&#xd4;" horiz-adv-x="810" 
d="M406 682q158 0 258 -97q104 -99 104 -252q0 -147 -104 -250q-103 -98 -258 -98q-156 0 -260 98q-49 46 -76.5 110.5t-27.5 137.5q0 70 28.5 138.5t74.5 114.5q98 98 261 98zM405 540q-89 0 -146 -57q-59 -57 -59 -151q0 -90 61 -150q58 -55 143 -55q91 0 148 57
q58 54 58 149q0 92 -58 150q-59 57 -147 57zM281 726l-64 71l188 140l189 -140l-66 -71l-123 93z" />
    <glyph glyph-name="Otilde" unicode="&#xd5;" horiz-adv-x="810" 
d="M406 682q158 0 258 -97q104 -99 104 -252q0 -147 -104 -250q-103 -98 -258 -98q-156 0 -260 98q-49 46 -76.5 110.5t-27.5 137.5q0 70 28.5 138.5t74.5 114.5q98 98 261 98zM405 540q-89 0 -146 -57q-59 -57 -59 -151q0 -90 61 -150q58 -55 143 -55q91 0 148 57
q58 54 58 149q0 92 -58 150q-59 57 -147 57zM519 867l71 -50q-18 -34 -42 -58q-31 -31 -71 -31q-21 0 -62 16l-41 16q-25 11 -37 11q-31 0 -46 -39l-71 50q19 41 37 59q27 30 73 30q26 0 60 -14l40 -16q33 -12 41 -12q31 0 48 38z" />
    <glyph glyph-name="Odieresis" unicode="&#xd6;" horiz-adv-x="810" 
d="M406 682q158 0 258 -97q104 -99 104 -252q0 -147 -104 -250q-103 -98 -258 -98q-156 0 -260 98q-49 46 -76.5 110.5t-27.5 137.5q0 70 28.5 138.5t74.5 114.5q98 98 261 98zM405 540q-89 0 -146 -57q-59 -57 -59 -151q0 -90 61 -150q58 -55 143 -55q91 0 148 57
q58 54 58 149q0 92 -58 150q-59 57 -147 57zM217 811q0 32 23.5 55.5t55.5 23.5t55.5 -23.5t23.5 -55.5t-23.5 -55.5t-55.5 -23.5t-55.5 23.5t-23.5 55.5zM435 811q0 32 23.5 55.5t55.5 23.5t55.5 -23.5t23.5 -55.5t-23.5 -55.5t-55.5 -23.5t-55.5 23.5t-23.5 55.5z" />
    <glyph glyph-name="multiply" unicode="&#xd7;" 
d="M47 218l118 118l-118 119l87 87l118 -119l118 119l84 -84l-118 -118l118 -119l-87 -87l-118 119l-119 -118z" />
    <glyph glyph-name="Oslash" unicode="&#xd8;" horiz-adv-x="822" 
d="M30 35l88 87q-70 89 -70 205q0 75 28 142.5t75 114.5q98 98 261 98q119 0 209 -58l88 88l83 -80l-87 -87q69 -94 69 -209q0 -151 -104 -253q-100 -98 -258 -98q-118 0 -210 59l-89 -89zM229 233l283 283q-50 24 -101 24q-89 0 -146 -57q-59 -59 -59 -153q0 -54 23 -97z
M593 434l-284 -283q45 -24 101 -24q91 0 148 57q58 56 58 155q0 55 -23 95z" />
    <glyph glyph-name="Ugrave" unicode="&#xd9;" horiz-adv-x="710" 
d="M637 667v-395q0 -137 -74 -211q-44 -46 -94 -61t-114 -15t-114 15t-94 61q-74 74 -74 211v395h154v-391q0 -75 35 -112q33 -35 93 -35t93 35q35 37 35 112v391h154zM370 724l-164 129l96 72l133 -148z" />
    <glyph glyph-name="Uacute" unicode="&#xda;" horiz-adv-x="710" 
d="M637 667v-395q0 -137 -74 -211q-44 -46 -94 -61t-114 -15t-114 15t-94 61q-74 74 -74 211v395h154v-391q0 -75 35 -112q33 -35 93 -35t93 35q35 37 35 112v391h154zM410 925l95 -72l-164 -129l-65 53z" />
    <glyph glyph-name="Ucircumflex" unicode="&#xdb;" horiz-adv-x="710" 
d="M637 667v-395q0 -137 -74 -211q-44 -46 -94 -61t-114 -15t-114 15t-94 61q-74 74 -74 211v395h154v-391q0 -75 35 -112q33 -35 93 -35t93 35q35 37 35 112v391h154zM231 726l-64 71l188 140l189 -140l-66 -71l-123 93z" />
    <glyph glyph-name="Udieresis" unicode="&#xdc;" horiz-adv-x="710" 
d="M637 667v-395q0 -137 -74 -211q-44 -46 -94 -61t-114 -15t-114 15t-94 61q-74 74 -74 211v395h154v-391q0 -75 35 -112q33 -35 93 -35t93 35q35 37 35 112v391h154zM167 811q0 32 23.5 55.5t55.5 23.5t55.5 -23.5t23.5 -55.5t-23.5 -55.5t-55.5 -23.5t-55.5 23.5
t-23.5 55.5zM385 811q0 32 23.5 55.5t55.5 23.5t55.5 -23.5t23.5 -55.5t-23.5 -55.5t-55.5 -23.5t-55.5 23.5t-23.5 55.5z" />
    <glyph glyph-name="Yacute" unicode="&#xdd;" horiz-adv-x="632" 
d="M239 0v311l-239 356h182l134 -207l134 207h182l-239 -356v-311h-154zM381 925l95 -72l-164 -129l-65 53z" />
    <glyph glyph-name="Thorn" unicode="&#xde;" horiz-adv-x="572" 
d="M73 667h154v-92h79q115 0 177 -55q65 -59 65 -159q0 -103 -57 -160q-59 -59 -172 -59h-92v-142h-154v667zM227 449v-181h53q60 0 85 25t25 66q0 40 -25 65t-88 25h-50z" />
    <glyph glyph-name="germandbls" unicode="&#xdf;" horiz-adv-x="585" 
d="M204 0h-144v510q0 113 55 170q53 60 165 60q109 0 165 -56q53 -53 53 -136q0 -52 -27 -94q-21 -30 -55 -46q61 -19 97 -67q38 -51 38 -125q0 -100 -66 -165q-68 -65 -212 -65h-6v124q65 0 98 30q34 30 34 81q0 48 -30 78q-37 37 -102 37v122q45 0 70 21q25 22 25 60
q0 34 -21 55q-22 22 -57 22q-34 0 -57 -24t-23 -82v-510z" />
    <glyph glyph-name="agrave" unicode="&#xe0;" horiz-adv-x="598" 
d="M398 396v50h144v-446h-144v54q-45 -69 -132 -69q-103 0 -167 68q-65 71 -65 167q0 111 69 180q61 61 155 61t140 -65zM294 337q-47 0 -79 -32q-33 -33 -33 -81q0 -45 30 -80q33 -35 85 -35q44 0 75 31q35 35 35 84q0 51 -33 82q-34 31 -80 31zM315 515l-152 135l95 65
l122 -152z" />
    <glyph glyph-name="aacute" unicode="&#xe1;" horiz-adv-x="598" 
d="M398 396v50h144v-446h-144v54q-45 -69 -132 -69q-103 0 -167 68q-65 71 -65 167q0 111 69 180q61 61 155 61t140 -65zM294 337q-47 0 -79 -32q-33 -33 -33 -81q0 -45 30 -80q33 -35 85 -35q44 0 75 31q35 35 35 84q0 51 -33 82q-34 31 -80 31zM347 715l94 -65l-152 -135
l-65 48z" />
    <glyph glyph-name="acircumflex" unicode="&#xe2;" horiz-adv-x="598" 
d="M398 396v50h144v-446h-144v54q-45 -69 -132 -69q-103 0 -167 68q-65 71 -65 167q0 111 69 180q61 61 155 61t140 -65zM294 337q-47 0 -79 -32q-33 -33 -33 -81q0 -45 30 -80q33 -35 85 -35q44 0 75 31q35 35 35 84q0 51 -33 82q-34 31 -80 31zM299 610l-119 -95l-64 69
l183 142l184 -142l-66 -69z" />
    <glyph glyph-name="atilde" unicode="&#xe3;" horiz-adv-x="598" 
d="M398 396v50h144v-446h-144v54q-45 -69 -132 -69q-103 0 -167 68q-65 71 -65 167q0 111 69 180q61 61 155 61t140 -65zM294 337q-47 0 -79 -32q-33 -33 -33 -81q0 -45 30 -80q33 -35 85 -35q44 0 75 31q35 35 35 84q0 51 -33 82q-34 31 -80 31zM404 657l66 -44
q-16 -40 -39 -63q-30 -30 -70 -30q-18 0 -59 14l-35 13q-32 13 -49 13q-30 0 -43 -37l-65 44q15 43 34 63q27 30 71 30q27 0 62 -13l34 -13q35 -14 53 -14q31 0 40 37z" />
    <glyph glyph-name="adieresis" unicode="&#xe4;" horiz-adv-x="598" 
d="M398 396v50h144v-446h-144v54q-45 -69 -132 -69q-103 0 -167 68q-65 71 -65 167q0 111 69 180q61 61 155 61t140 -65zM294 337q-47 0 -79 -32q-33 -33 -33 -81q0 -45 30 -80q33 -35 85 -35q44 0 75 31q35 35 35 84q0 51 -33 82q-34 31 -80 31zM329 599q0 32 23.5 55.5
t55.5 23.5t55.5 -23.5t23.5 -55.5t-23.5 -55.5t-55.5 -23.5t-55.5 23.5t-23.5 55.5zM111 599q0 32 23.5 55.5t55.5 23.5t55.5 -23.5t23.5 -55.5t-23.5 -55.5t-55.5 -23.5t-55.5 23.5t-23.5 55.5z" />
    <glyph glyph-name="aring" unicode="&#xe5;" horiz-adv-x="598" 
d="M398 396v50h144v-446h-144v54q-45 -69 -132 -69q-103 0 -167 68q-65 71 -65 167q0 111 69 180q61 61 155 61t140 -65zM294 337q-47 0 -79 -32q-33 -33 -33 -81q0 -45 30 -80q33 -35 85 -35q44 0 75 31q35 35 35 84q0 51 -33 82q-34 31 -80 31zM413 614q0 -38 -27 -65
q-33 -31 -87 -31t-87 31q-27 27 -27 65t27 65q33 31 87 31t87 -31q27 -27 27 -65zM299 650q-21 0 -31 -9q-13 -13 -13 -27t13 -27q10 -9 31 -9t31 9q13 13 13 27t-13 27q-10 9 -31 9z" />
    <glyph glyph-name="ae" unicode="&#xe6;" horiz-adv-x="840" 
d="M666 144l135 -9q-26 -75 -87 -116q-52 -34 -136 -34q-72 0 -109 20q-32 16 -64 53q-30 -39 -75 -57q-38 -16 -107 -16q-101 0 -150 49q-39 39 -39 100q0 56 37 93q52 52 157 52q60 0 105 -27v9q0 40 -26 66q-28 28 -87 28q-49 0 -115 -22v110q65 18 131 18q117 0 165 -77
q60 77 171 77t174 -68q60 -65 60 -181v-14h-326q1 -45 30 -77q24 -28 73 -28q30 0 51 12q23 14 32 39zM247 191q-43 0 -66 -23q-13 -13 -13 -31t13 -31q23 -23 65 -23q47 0 70 23q13 13 13 31t-13 31q-23 23 -69 23zM484 284h187q-6 32 -29 54q-25 23 -64 23t-62 -21
t-32 -56z" />
    <glyph glyph-name="ccedilla" unicode="&#xe7;" horiz-adv-x="431" 
d="M391 436v-131q-41 34 -94 34q-50 0 -82 -32q-33 -33 -33 -84q0 -50 30 -80q34 -36 87 -36q51 0 92 35v-130q-50 -27 -114 -27q-104 0 -173 67q-70 66 -70 170q0 107 74 176q68 63 170 63q62 0 113 -25zM256 -46l94 -44l-118 -146l-74 40z" />
    <glyph glyph-name="egrave" unicode="&#xe8;" horiz-adv-x="547" 
d="M185 284h195q-8 32 -29 52q-27 25 -68 25q-44 0 -73 -29q-20 -21 -25 -48zM513 213v-15h-333q0 -48 27 -76t74 -28q36 0 58 13q2 1 6.5 4.5t12 12.5t12.5 20l136 -14q-25 -74 -86 -112q-53 -33 -141 -33q-114 0 -178 64q-67 67 -67 172t68 176q64 64 171 64
q113 0 177 -67q63 -67 63 -181zM305 515l-152 135l95 65l122 -152z" />
    <glyph glyph-name="eacute" unicode="&#xe9;" horiz-adv-x="547" 
d="M185 284h195q-8 32 -29 52q-27 25 -68 25q-44 0 -73 -29q-20 -21 -25 -48zM513 213v-15h-333q0 -48 27 -76t74 -28q36 0 58 13q2 1 6.5 4.5t12 12.5t12.5 20l136 -14q-25 -74 -86 -112q-53 -33 -141 -33q-114 0 -178 64q-67 67 -67 172t68 176q64 64 171 64
q113 0 177 -67q63 -67 63 -181zM327 715l94 -65l-152 -135l-65 48z" />
    <glyph glyph-name="ecircumflex" unicode="&#xea;" horiz-adv-x="547" 
d="M185 284h195q-8 32 -29 52q-27 25 -68 25q-44 0 -73 -29q-20 -21 -25 -48zM513 213v-15h-333q0 -48 27 -76t74 -28q36 0 58 13q2 1 6.5 4.5t12 12.5t12.5 20l136 -14q-25 -74 -86 -112q-53 -33 -141 -33q-114 0 -178 64q-67 67 -67 172t68 176q64 64 171 64
q113 0 177 -67q63 -67 63 -181zM273 610l-119 -95l-64 69l183 142l184 -142l-66 -69z" />
    <glyph glyph-name="edieresis" unicode="&#xeb;" horiz-adv-x="547" 
d="M185 284h195q-8 32 -29 52q-27 25 -68 25q-44 0 -73 -29q-20 -21 -25 -48zM513 213v-15h-333q0 -48 27 -76t74 -28q36 0 58 13q2 1 6.5 4.5t12 12.5t12.5 20l136 -14q-25 -74 -86 -112q-53 -33 -141 -33q-114 0 -178 64q-67 67 -67 172t68 176q64 64 171 64
q113 0 177 -67q63 -67 63 -181zM303 599q0 32 23.5 55.5t55.5 23.5t55.5 -23.5t23.5 -55.5t-23.5 -55.5t-55.5 -23.5t-55.5 23.5t-23.5 55.5zM85 599q0 32 23.5 55.5t55.5 23.5t55.5 -23.5t23.5 -55.5t-23.5 -55.5t-55.5 -23.5t-55.5 23.5t-23.5 55.5z" />
    <glyph glyph-name="igrave" unicode="&#xec;" horiz-adv-x="276" 
d="M66 446h144v-446h-144v446zM139 515l-133 135l96 65l102 -152z" />
    <glyph glyph-name="iacute" unicode="&#xed;" horiz-adv-x="276" 
d="M66 446h144v-446h-144v446zM175 715l94 -65l-132 -135l-65 48z" />
    <glyph glyph-name="icircumflex" unicode="&#xee;" horiz-adv-x="276" 
d="M66 446h144v-446h-144v446zM138 602l-94 -87l-65 69l159 142l159 -142l-66 -69z" />
    <glyph glyph-name="idieresis" unicode="&#xef;" horiz-adv-x="276" 
d="M66 446h144v-446h-144v446zM161 599q0 36 22 57.5t49 21.5q29 0 50 -23.5t21 -55.5t-21 -55.5t-50 -23.5q-27 0 -49 21.5t-22 57.5zM-27 599q0 32 21 55.5t50 23.5q27 0 49 -21.5t22 -57.5t-22 -57.5t-49 -21.5q-29 0 -50 23.5t-21 55.5z" />
    <glyph glyph-name="eth" unicode="&#xf0;" horiz-adv-x="580" 
d="M71 596l36 96q128 -3 230 -53l151 60l35 -72l-109 -43q62 -51 94 -128q32 -79 32 -173q0 -154 -80 -234q-64 -64 -174 -64q-109 0 -180 66q-72 68 -72 172q0 94 59 155q61 65 169 65q79 0 132 -47q-9 50 -37 84q-25 32 -63 53l-197 -85l-32 69l143 60q-63 21 -137 19z
M286 327q-44 0 -73 -29q-31 -31 -31 -81t31 -81q29 -29 73 -29t73 29q31 31 31 81t-31 81q-29 29 -73 29z" />
    <glyph glyph-name="ntilde" unicode="&#xf1;" horiz-adv-x="567" 
d="M56 0v446h144v-53q51 65 138 65q83 0 128 -45t45 -131v-282h-144v229q0 65 -24 89q-20 20 -55 20q-38 0 -60 -24q-28 -28 -28 -85v-229h-144zM404 657l66 -44q-16 -40 -39 -63q-30 -30 -70 -30q-18 0 -59 14l-35 13q-32 13 -49 13q-30 0 -43 -37l-65 44q15 43 34 63
q27 30 71 30q27 0 62 -13l34 -13q35 -14 53 -14q31 0 40 37z" />
    <glyph glyph-name="ograve" unicode="&#xf2;" horiz-adv-x="592" 
d="M558 223q0 -99 -67 -166q-72 -72 -195 -72t-195 72q-67 67 -67 166t67 166q72 72 195 72t195 -72q67 -67 67 -166zM296 339q-49 0 -81 -32q-33 -33 -33 -84t33 -84q32 -32 82 -32q48 0 80 32q33 33 33 84t-33 84q-32 32 -81 32zM280 515l-152 135l95 65l122 -152z" />
    <glyph glyph-name="oacute" unicode="&#xf3;" horiz-adv-x="592" 
d="M558 223q0 -99 -67 -166q-72 -72 -195 -72t-195 72q-67 67 -67 166t67 166q72 72 195 72t195 -72q67 -67 67 -166zM296 339q-49 0 -81 -32q-33 -33 -33 -84t33 -84q32 -32 82 -32q48 0 80 32q33 33 33 84t-33 84q-32 32 -81 32zM347 715l94 -65l-152 -135l-65 48z" />
    <glyph glyph-name="ocircumflex" unicode="&#xf4;" horiz-adv-x="592" 
d="M558 223q0 -99 -67 -166q-72 -72 -195 -72t-195 72q-67 67 -67 166t67 166q72 72 195 72t195 -72q67 -67 67 -166zM296 339q-49 0 -81 -32q-33 -33 -33 -84t33 -84q32 -32 82 -32q48 0 80 32q33 33 33 84t-33 84q-32 32 -81 32zM296 610l-119 -95l-64 69l183 142
l184 -142l-66 -69z" />
    <glyph glyph-name="otilde" unicode="&#xf5;" horiz-adv-x="592" 
d="M558 223q0 -99 -67 -166q-72 -72 -195 -72t-195 72q-67 67 -67 166t67 166q72 72 195 72t195 -72q67 -67 67 -166zM296 339q-49 0 -81 -32q-33 -33 -33 -84t33 -84q32 -32 82 -32q48 0 80 32q33 33 33 84t-33 84q-32 32 -81 32zM412 657l66 -44q-16 -40 -39 -63
q-30 -30 -70 -30q-18 0 -59 14l-35 13q-32 13 -49 13q-30 0 -43 -37l-65 44q15 43 34 63q27 30 71 30q27 0 62 -13l34 -13q35 -14 53 -14q31 0 40 37z" />
    <glyph glyph-name="odieresis" unicode="&#xf6;" horiz-adv-x="592" 
d="M558 223q0 -99 -67 -166q-72 -72 -195 -72t-195 72q-67 67 -67 166t67 166q72 72 195 72t195 -72q67 -67 67 -166zM296 339q-49 0 -81 -32q-33 -33 -33 -84t33 -84q32 -32 82 -32q48 0 80 32q33 33 33 84t-33 84q-32 32 -81 32zM326 599q0 32 23.5 55.5t55.5 23.5
t55.5 -23.5t23.5 -55.5t-23.5 -55.5t-55.5 -23.5t-55.5 23.5t-23.5 55.5zM108 599q0 32 23.5 55.5t55.5 23.5t55.5 -23.5t23.5 -55.5t-23.5 -55.5t-55.5 -23.5t-55.5 23.5t-23.5 55.5z" />
    <glyph glyph-name="divide" unicode="&#xf7;" 
d="M33 282v116h434v-116h-434zM177 510q0 30 21.5 51.5t51.5 21.5t51.5 -21.5t21.5 -51.5t-21.5 -51.5t-51.5 -21.5t-51.5 21.5t-21.5 51.5zM177 168q0 30 21.5 51.5t51.5 21.5t51.5 -21.5t21.5 -51.5t-21.5 -51.5t-51.5 -21.5t-51.5 21.5t-21.5 51.5z" />
    <glyph glyph-name="oslash" unicode="&#xf8;" horiz-adv-x="616" 
d="M582 440l-63 -63q56 -63 56 -152q0 -101 -67 -168q-72 -72 -197 -72q-82 0 -147 37l-77 -77l-53 50l74 74q-57 63 -57 152q0 101 67 168q75 72 195 72q83 0 149 -37l67 67zM210 171l156 156q-25 12 -53 12q-49 0 -81 -32q-33 -33 -33 -84q0 -27 11 -52zM416 274
l-155 -155q23 -12 53 -12q45 0 80 32q33 33 33 84q0 30 -11 51z" />
    <glyph glyph-name="ugrave" unicode="&#xf9;" horiz-adv-x="570" 
d="M56 446h144v-246q0 -49 25 -72q26 -21 60 -21q38 0 61 21q24 23 24 72v246h144v-260q0 -46 -9.5 -79.5t-40.5 -63.5q-58 -58 -179 -58q-122 0 -180 58q-49 48 -49 134v269zM269 515l-152 135l95 65l122 -152z" />
    <glyph glyph-name="uacute" unicode="&#xfa;" horiz-adv-x="570" 
d="M56 446h144v-246q0 -49 25 -72q26 -21 60 -21q38 0 61 21q24 23 24 72v246h144v-260q0 -46 -9.5 -79.5t-40.5 -63.5q-58 -58 -179 -58q-122 0 -180 58q-49 48 -49 134v269zM346 715l94 -65l-152 -135l-65 48z" />
    <glyph glyph-name="ucircumflex" unicode="&#xfb;" horiz-adv-x="570" 
d="M56 446h144v-246q0 -49 25 -72q26 -21 60 -21q38 0 61 21q24 23 24 72v246h144v-260q0 -46 -9.5 -79.5t-40.5 -63.5q-58 -58 -179 -58q-122 0 -180 58q-49 48 -49 134v269zM285 610l-119 -95l-64 69l183 142l184 -142l-66 -69z" />
    <glyph glyph-name="udieresis" unicode="&#xfc;" horiz-adv-x="570" 
d="M56 446h144v-246q0 -49 25 -72q26 -21 60 -21q38 0 61 21q24 23 24 72v246h144v-260q0 -46 -9.5 -79.5t-40.5 -63.5q-58 -58 -179 -58q-122 0 -180 58q-49 48 -49 134v269zM315 599q0 32 23.5 55.5t55.5 23.5t55.5 -23.5t23.5 -55.5t-23.5 -55.5t-55.5 -23.5t-55.5 23.5
t-23.5 55.5zM97 599q0 32 23.5 55.5t55.5 23.5t55.5 -23.5t23.5 -55.5t-23.5 -55.5t-55.5 -23.5t-55.5 23.5t-23.5 55.5z" />
    <glyph glyph-name="yacute" unicode="&#xfd;" horiz-adv-x="585" 
d="M58 -229l157 286l-213 389h166l126 -242l123 242h162l-359 -675h-162zM354 715l94 -65l-152 -135l-65 48z" />
    <glyph glyph-name="thorn" unicode="&#xfe;" horiz-adv-x="598" 
d="M200 51v-280h-144v958h144v-336q54 68 139 68q95 0 158 -63q67 -67 67 -174q0 -108 -71 -179q-60 -60 -151 -60q-93 0 -142 66zM304 337q-47 0 -80 -33q-34 -34 -34 -82q0 -44 32 -79q34 -34 82 -34q44 0 77 31q35 35 35 85q0 49 -34 81q-32 31 -78 31z" />
    <glyph glyph-name="ydieresis" unicode="&#xff;" horiz-adv-x="585" 
d="M58 -229l157 286l-213 389h166l126 -242l123 242h162l-359 -675h-162zM322 599q0 32 23.5 55.5t55.5 23.5t55.5 -23.5t23.5 -55.5t-23.5 -55.5t-55.5 -23.5t-55.5 23.5t-23.5 55.5zM104 599q0 32 23.5 55.5t55.5 23.5t55.5 -23.5t23.5 -55.5t-23.5 -55.5t-55.5 -23.5
t-55.5 23.5t-23.5 55.5z" />
    <glyph glyph-name="Amacron" unicode="&#x100;" horiz-adv-x="677" 
d="M515 0l-50 126h-252l-51 -126h-160l269 667h141l263 -667h-160zM258 244h165l-82 224zM146 753v92h388v-92h-388z" />
    <glyph glyph-name="amacron" unicode="&#x101;" horiz-adv-x="598" 
d="M398 396v50h144v-446h-144v54q-45 -69 -132 -69q-103 0 -167 68q-65 71 -65 167q0 111 69 180q61 61 155 61t140 -65zM294 337q-47 0 -79 -32q-33 -33 -33 -81q0 -45 30 -80q33 -35 85 -35q44 0 75 31q35 35 35 84q0 51 -33 82q-34 31 -80 31zM109 543v90h380v-90h-380z
" />
    <glyph glyph-name="Abreve" unicode="&#x102;" horiz-adv-x="677" 
d="M515 0l-50 126h-252l-51 -126h-160l269 667h141l263 -667h-160zM258 244h165l-82 224zM414 874h96q-12 -71 -46 -105q-44 -44 -126 -44t-126 44q-34 34 -46 105h96q5 -24 19 -42q18 -21 57 -21t57 21q14 18 19 42z" />
    <glyph glyph-name="abreve" unicode="&#x103;" horiz-adv-x="598" 
d="M398 396v50h144v-446h-144v54q-45 -69 -132 -69q-103 0 -167 68q-65 71 -65 167q0 111 69 180q61 61 155 61t140 -65zM294 337q-47 0 -79 -32q-33 -33 -33 -81q0 -45 30 -80q33 -35 85 -35q44 0 75 31q35 35 35 84q0 51 -33 82q-34 31 -80 31zM374 664h94
q-4 -61 -44 -102q-43 -45 -125 -45t-125 45q-40 41 -44 102h94q4 -25 21 -42q20 -19 54 -19t54 19q17 17 21 42z" />
    <glyph glyph-name="Aogonek" unicode="&#x104;" horiz-adv-x="677" 
d="M271 667h141l263 -667h-90q-15 -14 -31 -35q-17 -27 -17 -46q0 -13 11 -24q10 -9 28 -9q16 0 31 5.5t19 9.5l-18 -77q-27 -17 -65 -17q-41 0 -69 24q-23 21 -23 56q0 28 20 63q18 29 44 50l-50 126h-252l-51 -126h-160zM258 244h165l-82 224z" />
    <glyph glyph-name="aogonek" unicode="&#x105;" horiz-adv-x="598" 
d="M398 396v50h144v-446h-40q-4 -4 -14 -14.5t-13 -13.5q-19 -22 -19 -44q0 -18 12 -28q10 -10 29 -10q23 0 50 15l-18 -77q-27 -17 -66 -17q-44 0 -68 24q-23 23 -23 56q0 29 21 61q14 19 43 48h-38v58q-44 -73 -139 -73q-98 0 -160 68q-65 71 -65 167q0 111 69 180
q61 61 155 61t140 -65zM294 337q-47 0 -79 -32q-33 -33 -33 -81q0 -45 30 -80q33 -35 85 -35q44 0 75 31q35 35 35 84q0 51 -33 82q-34 31 -80 31z" />
    <glyph glyph-name="Cacute" unicode="&#x106;" horiz-adv-x="605" 
d="M555 198v-177q-70 -36 -147 -36q-163 0 -262 97q-104 102 -104 253q0 149 104 251q101 96 249 96q74 0 160 -37v-178q-69 71 -156 71q-83 0 -136 -52q-63 -61 -63 -154t58 -147q56 -56 144 -56q84 0 153 69zM455 925l95 -72l-164 -129l-65 53z" />
    <glyph glyph-name="cacute" unicode="&#x107;" horiz-adv-x="431" 
d="M391 436v-131q-41 34 -94 34q-50 0 -82 -32q-33 -33 -33 -84q0 -50 30 -80q34 -36 87 -36q51 0 92 35v-130q-50 -27 -114 -27q-104 0 -173 67q-70 66 -70 170q0 107 74 176q68 63 170 63q62 0 113 -25zM332 715l94 -65l-152 -135l-65 48z" />
    <glyph glyph-name="Ccircumflex" unicode="&#x108;" horiz-adv-x="605" 
d="M555 198v-177q-70 -36 -147 -36q-163 0 -262 97q-104 102 -104 253q0 149 104 251q101 96 249 96q74 0 160 -37v-178q-69 71 -156 71q-83 0 -136 -52q-63 -61 -63 -154t58 -147q56 -56 144 -56q84 0 153 69zM250 726l-64 71l188 140l189 -140l-66 -71l-123 93z" />
    <glyph glyph-name="ccircumflex" unicode="&#x109;" horiz-adv-x="431" 
d="M391 436v-131q-41 34 -94 34q-50 0 -82 -32q-33 -33 -33 -84q0 -50 30 -80q34 -36 87 -36q51 0 92 35v-130q-50 -27 -114 -27q-104 0 -173 67q-70 66 -70 170q0 107 74 176q68 63 170 63q62 0 113 -25zM262 610l-119 -95l-64 69l183 142l184 -142l-66 -69z" />
    <glyph glyph-name="Cdotaccent" unicode="&#x10a;" horiz-adv-x="605" 
d="M555 198v-177q-70 -36 -147 -36q-163 0 -262 97q-104 102 -104 253q0 149 104 251q101 96 249 96q74 0 160 -37v-178q-69 71 -156 71q-83 0 -136 -52q-63 -61 -63 -154t58 -147q56 -56 144 -56q84 0 153 69zM294 815q0 36 24.5 60.5t60.5 24.5t60.5 -24.5t24.5 -60.5
t-24.5 -60.5t-60.5 -24.5t-60.5 24.5t-24.5 60.5z" />
    <glyph glyph-name="cdotaccent" unicode="&#x10b;" horiz-adv-x="431" 
d="M391 436v-131q-41 34 -94 34q-50 0 -82 -32q-33 -33 -33 -84q0 -50 30 -80q34 -36 87 -36q51 0 92 35v-130q-50 -27 -114 -27q-104 0 -173 67q-70 66 -70 170q0 107 74 176q68 63 170 63q62 0 113 -25zM187 603q0 35 24 59t59 24t59 -24t24 -59t-24 -59t-59 -24t-59 24
t-24 59z" />
    <glyph glyph-name="Ccaron" unicode="&#x10c;" horiz-adv-x="605" 
d="M555 198v-177q-70 -36 -147 -36q-163 0 -262 97q-104 102 -104 253q0 149 104 251q101 96 249 96q74 0 160 -37v-178q-69 71 -156 71q-83 0 -136 -52q-63 -61 -63 -154t58 -147q56 -56 144 -56q84 0 153 69zM379 844l123 93l66 -70l-189 -141l-188 141l64 70z" />
    <glyph glyph-name="ccaron" unicode="&#x10d;" horiz-adv-x="431" 
d="M391 436v-131q-41 34 -94 34q-50 0 -82 -32q-33 -33 -33 -84q0 -50 30 -80q34 -36 87 -36q51 0 92 35v-130q-50 -27 -114 -27q-104 0 -173 67q-70 66 -70 170q0 107 74 176q68 63 170 63q62 0 113 -25zM264 631l118 95l66 -68l-184 -143l-183 143l64 68z" />
    <glyph glyph-name="Dcaron" unicode="&#x10e;" horiz-adv-x="685" 
d="M73 667h211q168 0 263 -92q96 -91 96 -239q0 -145 -91 -236q-100 -100 -263 -100h-216v667zM227 537v-407h41q100 0 152 45q65 56 65 161q0 89 -55 144q-57 57 -162 57h-41zM303 844l123 93l66 -70l-189 -141l-188 141l64 70z" />
    <glyph glyph-name="dcaron" unicode="&#x10f;" horiz-adv-x="781" 
d="M542 729v-729h-144v54q-47 -69 -141 -69t-153 61q-70 70 -70 179t70 176q63 60 155 60q91 0 139 -65v333h144zM294 337q-47 0 -77 -30q-35 -33 -35 -85q0 -49 35 -82q34 -31 75 -31q49 0 82 33q33 31 33 80q0 46 -32 82q-32 33 -81 33zM590 492l70 208l130 -30l-112 -198
z" />
    <glyph glyph-name="Dcroat" unicode="&#x110;" horiz-adv-x="712" 
d="M100 413v254h211q168 0 263 -92q96 -91 96 -239q0 -145 -91 -236q-100 -100 -263 -100h-216v303h-90v110h90zM254 537v-124h120v-110h-120v-173h41q100 0 152 45q65 56 65 161q0 89 -55 144q-57 57 -162 57h-41z" />
    <glyph glyph-name="dslash" unicode="&#x111;" horiz-adv-x="612" 
d="M542 729v-93h80v-94h-80v-542h-144v54q-47 -69 -141 -69t-153 61q-70 70 -70 179t70 176q63 60 155 60q91 0 139 -65v146h-192v94h192v93h144zM294 337q-47 0 -77 -30q-35 -33 -35 -85q0 -49 35 -82q34 -31 75 -31q49 0 82 33q33 31 33 80q0 46 -32 82q-32 33 -81 33z
" />
    <glyph glyph-name="Emacron" unicode="&#x112;" horiz-adv-x="502" 
d="M450 667v-130h-223v-129h212v-130h-212v-148h223v-130h-377v667h377zM61 753v92h388v-92h-388z" />
    <glyph glyph-name="emacron" unicode="&#x113;" horiz-adv-x="547" 
d="M185 284h195q-8 32 -29 52q-27 25 -68 25q-44 0 -73 -29q-20 -21 -25 -48zM513 213v-15h-333q0 -48 27 -76t74 -28q36 0 58 13q2 1 6.5 4.5t12 12.5t12.5 20l136 -14q-25 -74 -86 -112q-53 -33 -141 -33q-114 0 -178 64q-67 67 -67 172t68 176q64 64 171 64
q113 0 177 -67q63 -67 63 -181zM83 543v90h380v-90h-380z" />
    <glyph glyph-name="Edotaccent" unicode="&#x116;" horiz-adv-x="502" 
d="M450 667v-130h-223v-129h212v-130h-212v-148h223v-130h-377v667h377zM170 815q0 36 24.5 60.5t60.5 24.5t60.5 -24.5t24.5 -60.5t-24.5 -60.5t-60.5 -24.5t-60.5 24.5t-24.5 60.5z" />
    <glyph glyph-name="edotaccent" unicode="&#x117;" horiz-adv-x="547" 
d="M185 284h195q-8 32 -29 52q-27 25 -68 25q-44 0 -73 -29q-20 -21 -25 -48zM513 213v-15h-333q0 -48 27 -76t74 -28q36 0 58 13q2 1 6.5 4.5t12 12.5t12.5 20l136 -14q-25 -74 -86 -112q-53 -33 -141 -33q-114 0 -178 64q-67 67 -67 172t68 176q64 64 171 64
q113 0 177 -67q63 -67 63 -181zM183 603q0 35 24 59t59 24t59 -24t24 -59t-24 -59t-59 -24t-59 24t-24 59z" />
    <glyph glyph-name="Eogonek" unicode="&#x118;" horiz-adv-x="502" 
d="M450 667v-130h-223v-129h212v-130h-212v-148h223v-130h-40q-15 -14 -31 -35q-17 -27 -17 -46q0 -13 11 -24q11 -9 28 -9q16 0 31 5.5t19 9.5l-18 -77q-27 -17 -65 -17q-41 0 -69 24q-23 21 -23 56q0 28 20 63q18 29 44 50h-267v667h377z" />
    <glyph glyph-name="eogonek" unicode="&#x119;" horiz-adv-x="547" 
d="M185 284h195q-8 32 -29 52q-27 25 -68 25q-44 0 -73 -29q-20 -21 -25 -48zM513 213v-15h-333q2 -47 27 -76q24 -28 76 -28q39 0 56 13q2 1 6.5 4.5t12 12.5t12.5 20l136 -14q-10 -43 -43 -76q-22 -22 -62 -44q-45 -25 -59 -40q-18 -20 -18 -42q0 -18 12 -28
q10 -10 29 -10q23 0 50 15l-18 -77q-27 -17 -66 -17q-44 0 -68 24q-23 22 -23 56q0 30 17 55q13 22 33 39q-64 0 -108.5 14t-80.5 50q-67 69 -67 169q0 111 68 179q64 64 173 64q111 0 175 -67q63 -67 63 -181z" />
    <glyph glyph-name="Ecaron" unicode="&#x11a;" horiz-adv-x="502" 
d="M450 667v-130h-223v-129h212v-130h-212v-148h223v-130h-377v667h377zM254 844l123 93l66 -70l-189 -141l-188 141l64 70z" />
    <glyph glyph-name="ecaron" unicode="&#x11b;" horiz-adv-x="547" 
d="M185 284h195q-8 32 -29 52q-27 25 -68 25q-44 0 -73 -29q-20 -21 -25 -48zM513 213v-15h-333q0 -48 27 -76t74 -28q36 0 58 13q2 1 6.5 4.5t12 12.5t12.5 20l136 -14q-25 -74 -86 -112q-53 -33 -141 -33q-114 0 -178 64q-67 67 -67 172t68 176q64 64 171 64
q113 0 177 -67q63 -67 63 -181zM273 631l118 95l66 -68l-184 -143l-183 143l64 68z" />
    <glyph glyph-name="Gcircumflex" unicode="&#x11c;" horiz-adv-x="767" 
d="M394 240v124h331v-7q0 -69 -26 -148.5t-77 -132.5q-89 -91 -238 -91q-72 0 -131.5 19t-112.5 74q-98 98 -98 254q0 155 96 253q95 97 262 97q110 0 187 -50q68 -47 108 -119l-139 -75q-22 46 -59 72q-44 32 -102 32q-89 0 -138 -54q-57 -60 -57 -158q0 -97 56 -153
q51 -52 135 -52q74 0 116 36q34 27 48 79h-161zM259 726l-64 71l188 140l189 -140l-66 -71l-123 93z" />
    <glyph glyph-name="gcircumflex" unicode="&#x11d;" horiz-adv-x="595" 
d="M395 394v52h144v-419q0 -40 -2.5 -66.5t-15.5 -61.5t-37 -62q-64 -66 -188 -66q-120 0 -186 57q-53 45 -67 118h157q9 -28 32 -44q23 -15 62 -15q43 0 72 24q29 29 29 93v51q-36 -67 -133 -67q-100 0 -163 63q-65 67 -65 168q0 112 66 178q62 64 162 64q88 0 133 -67z
M295 336q-47 0 -79 -29q-34 -31 -34 -83q0 -47 31 -80q30 -32 81 -32q49 0 78 29q35 33 35 85q0 48 -34 82q-31 28 -78 28zM297 610l-119 -95l-64 69l183 142l184 -142l-66 -69z" />
    <glyph glyph-name="Gbreve" unicode="&#x11e;" horiz-adv-x="767" 
d="M394 240v124h331v-7q0 -69 -26 -148.5t-77 -132.5q-89 -91 -238 -91q-72 0 -131.5 19t-112.5 74q-98 98 -98 254q0 155 96 253q95 97 262 97q110 0 187 -50q68 -47 108 -119l-139 -75q-22 46 -59 72q-44 32 -102 32q-89 0 -138 -54q-57 -60 -57 -158q0 -97 56 -153
q51 -52 135 -52q74 0 116 36q34 27 48 79h-161zM459 874h96q-12 -71 -46 -105q-44 -44 -126 -44t-126 44q-34 34 -46 105h96q5 -24 19 -42q18 -21 57 -21t57 21q14 18 19 42z" />
    <glyph glyph-name="gbreve" unicode="&#x11f;" horiz-adv-x="595" 
d="M395 394v52h144v-419q0 -40 -2.5 -66.5t-15.5 -61.5t-37 -62q-64 -66 -188 -66q-120 0 -186 57q-53 45 -67 118h157q9 -28 32 -44q23 -15 62 -15q43 0 72 24q29 29 29 93v51q-36 -67 -133 -67q-100 0 -163 63q-65 67 -65 168q0 112 66 178q62 64 162 64q88 0 133 -67z
M295 336q-47 0 -79 -29q-34 -31 -34 -83q0 -47 31 -80q30 -32 81 -32q49 0 78 29q35 33 35 85q0 48 -34 82q-31 28 -78 28zM372 664h94q-4 -61 -44 -102q-43 -45 -125 -45t-125 45q-40 41 -44 102h94q4 -25 21 -42q20 -19 54 -19t54 19q17 17 21 42z" />
    <glyph glyph-name="Gdotaccent" unicode="&#x120;" horiz-adv-x="767" 
d="M394 240v124h331v-7q0 -69 -26 -148.5t-77 -132.5q-89 -91 -238 -91q-72 0 -131.5 19t-112.5 74q-98 98 -98 254q0 155 96 253q95 97 262 97q110 0 187 -50q68 -47 108 -119l-139 -75q-22 46 -59 72q-44 32 -102 32q-89 0 -138 -54q-57 -60 -57 -158q0 -97 56 -153
q51 -52 135 -52q74 0 116 36q34 27 48 79h-161zM298 815q0 36 24.5 60.5t60.5 24.5t60.5 -24.5t24.5 -60.5t-24.5 -60.5t-60.5 -24.5t-60.5 24.5t-24.5 60.5z" />
    <glyph glyph-name="gdotaccent" unicode="&#x121;" horiz-adv-x="595" 
d="M395 394v52h144v-419q0 -40 -2.5 -66.5t-15.5 -61.5t-37 -62q-64 -66 -188 -66q-120 0 -186 57q-53 45 -67 118h157q9 -28 32 -44q23 -15 62 -15q43 0 72 24q29 29 29 93v51q-36 -67 -133 -67q-100 0 -163 63q-65 67 -65 168q0 112 66 178q62 64 162 64q88 0 133 -67z
M295 336q-47 0 -79 -29q-34 -31 -34 -83q0 -47 31 -80q30 -32 81 -32q49 0 78 29q35 33 35 85q0 48 -34 82q-31 28 -78 28zM195 603q0 35 24 59t59 24t59 -24t24 -59t-24 -59t-59 -24t-59 24t-24 59z" />
    <glyph glyph-name="Gcommaaccent" unicode="&#x122;" horiz-adv-x="767" 
d="M394 240v124h331v-7q0 -69 -26 -148.5t-77 -132.5q-89 -91 -238 -91q-72 0 -131.5 19t-112.5 74q-98 98 -98 254q0 155 96 253q95 97 262 97q110 0 187 -50q68 -47 108 -119l-139 -75q-22 46 -59 72q-44 32 -102 32q-89 0 -138 -54q-57 -60 -57 -158q0 -97 56 -153
q51 -52 135 -52q74 0 116 36q34 27 48 79h-161zM260 -248l56 198l134 -16l-98 -194z" />
    <glyph glyph-name="gcommaaccent" unicode="&#x123;" horiz-adv-x="595" 
d="M395 394v52h144v-419q0 -40 -2.5 -66.5t-15.5 -61.5t-37 -62q-64 -66 -188 -66q-120 0 -186 57q-53 45 -67 118h157q9 -28 32 -44q23 -15 62 -15q43 0 72 24q29 29 29 93v51q-36 -67 -133 -67q-100 0 -163 63q-65 67 -65 168q0 112 66 178q62 64 162 64q88 0 133 -67z
M295 336q-47 0 -79 -29q-34 -31 -34 -83q0 -47 31 -80q30 -32 81 -32q49 0 78 29q35 33 35 85q0 48 -34 82q-31 28 -78 28zM398 690l-56 -188l-134 16l98 184z" />
    <glyph glyph-name="Hcircumflex" unicode="&#x124;" horiz-adv-x="720" 
d="M227 667v-254h266v254h154v-667h-154v283h-266v-283h-154v667h154zM236 726l-64 71l188 140l189 -140l-66 -71l-123 93z" />
    <glyph glyph-name="hcircumflex" unicode="&#x125;" horiz-adv-x="571" 
d="M60 0v729h144v-336q26 31 54 46q37 19 87 19q81 0 126 -45q44 -44 44 -130v-283h-144v229q0 65 -24 89q-20 20 -56 20q-35 0 -57 -22q-30 -30 -30 -93v-223h-144zM133 843l-119 -95l-64 69l183 142l184 -142l-66 -69z" />
    <glyph glyph-name="Hbar" unicode="&#x126;" horiz-adv-x="720" 
d="M227 667v-53h266v53h154v-53h60v-106h-60v-508h-154v283h-266v-283h-154v508h-60v106h60v53h154zM493 508h-266v-95h266v95z" />
    <glyph glyph-name="hbar" unicode="&#x127;" horiz-adv-x="581" 
d="M70 0v542h-80v94h80v93h144v-93h192v-94h-192v-149q26 31 54 46q37 19 87 19q81 0 126 -45q44 -44 44 -130v-283h-144v229q0 65 -24 89q-20 20 -56 20q-35 0 -57 -22q-30 -30 -30 -93v-223h-144z" />
    <glyph glyph-name="Imacron" unicode="&#x12a;" horiz-adv-x="306" 
d="M76 667h154v-667h-154v667zM-44 753v92h388v-92h-388z" />
    <glyph glyph-name="imacron" unicode="&#x12b;" horiz-adv-x="276" 
d="M66 446h144v-446h-144v446zM0 543v90h276v-90h-276z" />
    <glyph glyph-name="Iogonek" unicode="&#x12e;" horiz-adv-x="306" 
d="M76 667h154v-667q-15 -14 -31 -35q-17 -27 -17 -46q0 -13 11 -24q11 -9 28 -9q16 0 31 5.5t19 9.5l-18 -77q-27 -17 -65 -17q-41 0 -69 24q-23 21 -23 56q0 28 20 63q18 29 44 50h-84v667z" />
    <glyph glyph-name="iogonek" unicode="&#x12f;" horiz-adv-x="276" 
d="M66 446h144v-446q-4 -4 -14 -14.5t-13 -13.5q-19 -22 -19 -44q0 -18 12 -28q10 -10 29 -10q23 0 50 15l-18 -77q-27 -17 -66 -17q-44 0 -68 24q-23 23 -23 56q0 29 21 61q17 24 43 48h-78v446zM54 636q0 35 24.5 59.5t59.5 24.5t59.5 -24.5t24.5 -59.5t-24.5 -59.5
t-59.5 -24.5t-59.5 24.5t-24.5 59.5z" />
    <glyph glyph-name="Idot" unicode="&#x130;" horiz-adv-x="306" 
d="M76 667h154v-667h-154v667zM69 815q0 36 24.5 60.5t60.5 24.5t60.5 -24.5t24.5 -60.5t-24.5 -60.5t-60.5 -24.5t-60.5 24.5t-24.5 60.5z" />
    <glyph glyph-name="dotlessi" unicode="&#x131;" horiz-adv-x="276" 
d="M66 446h144v-446h-144v446z" />
    <glyph glyph-name="Jcircumflex" unicode="&#x134;" horiz-adv-x="415" 
d="M188 667h154v-454q0 -123 -58 -178q-50 -50 -141 -50q-66 0 -106 24q-35 22 -63 56l96 108q18 -31 24 -37q15 -15 38 -15q22 0 36 14q20 20 20 79v453zM143 726l-64 71l188 140l189 -140l-66 -71l-123 93z" />
    <glyph glyph-name="jcircumflex" unicode="&#x135;" horiz-adv-x="276" 
d="M66 446h144v-675h-144v675zM138 602l-94 -87l-65 69l159 142l159 -142l-66 -69z" />
    <glyph glyph-name="Kcommaaccent" unicode="&#x136;" horiz-adv-x="670" 
d="M227 667v-278l228 278h188l-270 -316l291 -351h-198l-239 296v-296h-154v667h154zM220 -248l56 198l134 -16l-98 -194z" />
    <glyph glyph-name="kcommaaccent" unicode="&#x137;" horiz-adv-x="566" 
d="M60 729h144v-447l162 164h189l-212 -202l227 -244h-194l-172 192v-192h-144v729zM190 -238l56 188l134 -16l-98 -184z" />
    <glyph glyph-name="Lacute" unicode="&#x139;" horiz-adv-x="448" 
d="M73 667h154v-537h207v-130h-361v667zM206 925l95 -72l-164 -129l-65 53z" />
    <glyph glyph-name="lacute" unicode="&#x13a;" horiz-adv-x="264" 
d="M60 729h144v-729h-144v729zM198 955l94 -65l-152 -135l-65 48z" />
    <glyph glyph-name="Lcommaaccent" unicode="&#x13b;" horiz-adv-x="448" 
d="M73 667h154v-537h207v-130h-361v667zM130 -248l56 198l134 -16l-98 -194z" />
    <glyph glyph-name="lcommaaccent" unicode="&#x13c;" horiz-adv-x="264" 
d="M60 729h144v-729h-144v729zM21 -238l56 188l134 -16l-98 -184z" />
    <glyph glyph-name="Lcaron" unicode="&#x13d;" horiz-adv-x="448" 
d="M73 667h154v-537h207v-130h-361v667zM280 472l70 208l130 -30l-112 -198z" />
    <glyph glyph-name="lcaron" unicode="&#x13e;" horiz-adv-x="441" 
d="M60 729h144v-729h-144v729zM250 492l70 208l130 -30l-112 -198z" />
    <glyph glyph-name="Ldot" unicode="&#x13f;" horiz-adv-x="448" 
d="M73 667h154v-537h207v-130h-361v667zM293 335q0 36 24.5 60.5t60.5 24.5t60.5 -24.5t24.5 -60.5t-24.5 -60.5t-60.5 -24.5t-60.5 24.5t-24.5 60.5z" />
    <glyph glyph-name="ldot" unicode="&#x140;" horiz-adv-x="434" 
d="M60 729h144v-729h-144v729zM266 365q0 35 24 59t59 24t59 -24t24 -59t-24 -59t-59 -24t-59 24t-24 59z" />
    <glyph glyph-name="Lslash" unicode="&#x141;" horiz-adv-x="471" 
d="M96 0v258l-86 -55v120l86 55v289h154v-226l102 65v-120l-102 -65v-191h207v-130h-361z" />
    <glyph glyph-name="lslash" unicode="&#x142;" horiz-adv-x="272" 
d="M64 449v280h144v-213l80 54v-106l-80 -54v-410h-144v343l-80 -54v106z" />
    <glyph glyph-name="Nacute" unicode="&#x143;" horiz-adv-x="796" 
d="M227 0h-154v667h134l362 -430v430h154v-667h-134l-362 432v-432zM453 925l95 -72l-164 -129l-65 53z" />
    <glyph glyph-name="nacute" unicode="&#x144;" horiz-adv-x="567" 
d="M56 0v446h144v-53q51 65 138 65q83 0 128 -45t45 -131v-282h-144v229q0 65 -24 89q-20 20 -55 20q-38 0 -60 -24q-28 -28 -28 -85v-229h-144zM357 715l94 -65l-152 -135l-65 48z" />
    <glyph glyph-name="Ncommaaccent" unicode="&#x145;" horiz-adv-x="796" 
d="M227 0h-154v667h134l362 -430v430h154v-667h-134l-362 432v-432zM284 -248l56 198l134 -16l-98 -194z" />
    <glyph glyph-name="ncommaaccent" unicode="&#x146;" horiz-adv-x="567" 
d="M56 0v446h144v-53q51 65 138 65q83 0 128 -45t45 -131v-282h-144v229q0 65 -24 89q-20 20 -55 20q-38 0 -60 -24q-28 -28 -28 -85v-229h-144zM185 -238l56 188l134 -16l-98 -184z" />
    <glyph glyph-name="Ncaron" unicode="&#x147;" horiz-adv-x="796" 
d="M227 0h-154v667h134l362 -430v430h154v-667h-134l-362 432v-432zM388 844l123 93l66 -70l-189 -141l-188 141l64 70z" />
    <glyph glyph-name="ncaron" unicode="&#x148;" horiz-adv-x="567" 
d="M56 0v446h144v-53q51 65 138 65q83 0 128 -45t45 -131v-282h-144v229q0 65 -24 89q-20 20 -55 20q-38 0 -60 -24q-28 -28 -28 -85v-229h-144zM279 631l118 95l66 -68l-184 -143l-183 143l64 68z" />
    <glyph glyph-name="Omacron" unicode="&#x14c;" horiz-adv-x="810" 
d="M406 682q158 0 258 -97q104 -99 104 -252q0 -147 -104 -250q-103 -98 -258 -98q-156 0 -260 98q-49 46 -76.5 110.5t-27.5 137.5q0 70 28.5 138.5t74.5 114.5q98 98 261 98zM405 540q-89 0 -146 -57q-59 -57 -59 -151q0 -90 61 -150q58 -55 143 -55q91 0 148 57
q58 54 58 149q0 92 -58 150q-59 57 -147 57zM207 753v92h388v-92h-388z" />
    <glyph glyph-name="omacron" unicode="&#x14d;" horiz-adv-x="592" 
d="M558 223q0 -99 -67 -166q-72 -72 -195 -72t-195 72q-67 67 -67 166t67 166q72 72 195 72t195 -72q67 -67 67 -166zM296 339q-49 0 -81 -32q-33 -33 -33 -84t33 -84q32 -32 82 -32q48 0 80 32q33 33 33 84t-33 84q-32 32 -81 32zM98 543v90h380v-90h-380z" />
    <glyph glyph-name="Obreve" unicode="&#x14e;" horiz-adv-x="810" 
d="M406 682q158 0 258 -97q104 -99 104 -252q0 -147 -104 -250q-103 -98 -258 -98q-156 0 -260 98q-49 46 -76.5 110.5t-27.5 137.5q0 70 28.5 138.5t74.5 114.5q98 98 261 98zM405 540q-89 0 -146 -57q-59 -57 -59 -151q0 -90 61 -150q58 -55 143 -55q91 0 148 57
q58 54 58 149q0 92 -58 150q-59 57 -147 57zM481 874h96q-12 -71 -46 -105q-44 -44 -126 -44t-126 44q-34 34 -46 105h96q5 -24 19 -42q18 -21 57 -21t57 21q14 18 19 42z" />
    <glyph glyph-name="obreve" unicode="&#x14f;" horiz-adv-x="592" 
d="M558 223q0 -99 -67 -166q-72 -72 -195 -72t-195 72q-67 67 -67 166t67 166q72 72 195 72t195 -72q67 -67 67 -166zM296 339q-49 0 -81 -32q-33 -33 -33 -84t33 -84q32 -32 82 -32q48 0 80 32q33 33 33 84t-33 84q-32 32 -81 32zM371 664h94q-4 -61 -44 -102
q-43 -45 -125 -45t-125 45q-40 41 -44 102h94q4 -25 21 -42q20 -19 54 -19t54 19q17 17 21 42z" />
    <glyph glyph-name="Ohungarumlaut" unicode="&#x150;" horiz-adv-x="810" 
d="M406 682q158 0 258 -97q104 -99 104 -252q0 -147 -104 -250q-103 -98 -258 -98q-156 0 -260 98q-49 46 -76.5 110.5t-27.5 137.5q0 70 28.5 138.5t74.5 114.5q98 98 261 98zM405 540q-89 0 -146 -57q-59 -57 -59 -151q0 -90 61 -150q58 -55 143 -55q91 0 148 57
q58 54 58 149q0 92 -58 150q-59 57 -147 57zM360 925l86 -66l-140 -135l-55 48zM546 925l87 -66l-140 -135l-56 48z" />
    <glyph glyph-name="ohungarumlaut" unicode="&#x151;" horiz-adv-x="592" 
d="M558 223q0 -99 -67 -166q-72 -72 -195 -72t-195 72q-67 67 -67 166t67 166q72 72 195 72t195 -72q67 -67 67 -166zM296 339q-49 0 -81 -32q-33 -33 -33 -84t33 -84q32 -32 82 -32q48 0 80 32q33 33 33 84t-33 84q-32 32 -81 32zM250 710l82 -66l-134 -135l-52 48z
M430 709l83 -65l-134 -135l-53 48z" />
    <glyph glyph-name="OE" unicode="&#x152;" horiz-adv-x="1032" 
d="M980 667v-130h-217v-129h206v-130h-206v-148h217v-130h-369v82q-86 -97 -224 -97q-77 0 -133 21.5t-105 69.5q-107 105 -107 255q0 154 108 258q100 93 247 93q134 0 214 -95v80h369zM400 540q-81 0 -139 -55q-22 -19 -41.5 -58t-19.5 -94q0 -92 61 -151q58 -55 139 -55
t139 55q61 59 61 151q0 91 -61 152q-58 55 -139 55z" />
    <glyph glyph-name="oe" unicode="&#x153;" horiz-adv-x="904" 
d="M732 144l132 -9q-18 -72 -78 -112q-55 -38 -144 -38q-126 0 -181 82q-64 -82 -182 -82q-110 0 -176 64q-69 66 -69 169q0 110 67 177q66 66 183 66q118 0 182 -73q55 73 170 73q111 0 171 -62q63 -65 63 -189v-12h-330q5 -49 29 -76q25 -28 74 -28q69 0 89 50zM289 339
q-42 0 -72 -28q-35 -33 -35 -88q0 -54 34 -88q30 -28 73 -28t73 28q34 34 34 88q0 55 -35 88q-30 28 -72 28zM544 284h195q-8 32 -29 52q-27 25 -68 25q-44 0 -73 -29q-20 -21 -25 -48z" />
    <glyph glyph-name="Racute" unicode="&#x154;" horiz-adv-x="607" 
d="M73 667h234q110 0 170 -58q58 -56 58 -149q0 -84 -52 -136q-38 -38 -93 -51l205 -273h-188l-180 263v-263h-154v667zM227 547v-183h35q63 0 92 29q25 25 25 65q0 42 -31 68q-28 21 -85 21h-36zM349 925l95 -72l-164 -129l-65 53z" />
    <glyph glyph-name="racute" unicode="&#x155;" horiz-adv-x="384" 
d="M56 0v446h144v-70q20 39 56 62q30 19 77 19q26 0 47 -7l-8 -135q-29 16 -65 16q-43 0 -72 -30q-35 -38 -35 -120v-181h-144zM268 715l94 -65l-152 -135l-65 48z" />
    <glyph glyph-name="Rcommaaccent" unicode="&#x156;" horiz-adv-x="607" 
d="M73 667h234q110 0 170 -58q58 -56 58 -149q0 -84 -52 -136q-38 -38 -93 -51l205 -273h-188l-180 263v-263h-154v667zM227 547v-183h35q63 0 92 29q25 25 25 65q0 42 -31 68q-28 21 -85 21h-36zM200 -248l56 198l134 -16l-98 -194z" />
    <glyph glyph-name="rcommaaccent" unicode="&#x157;" horiz-adv-x="384" 
d="M56 0v446h144v-70q20 39 56 62q30 19 77 19q26 0 47 -7l-8 -135q-29 16 -65 16q-43 0 -72 -30q-35 -38 -35 -120v-181h-144zM91 -238l56 188l134 -16l-98 -184z" />
    <glyph glyph-name="Rcaron" unicode="&#x158;" horiz-adv-x="607" 
d="M73 667h234q110 0 170 -58q58 -56 58 -149q0 -84 -52 -136q-38 -38 -93 -51l205 -273h-188l-180 263v-263h-154v667zM227 547v-183h35q63 0 92 29q25 25 25 65q0 42 -31 68q-28 21 -85 21h-36zM284 844l123 93l66 -70l-189 -141l-188 141l64 70z" />
    <glyph glyph-name="rcaron" unicode="&#x159;" horiz-adv-x="384" 
d="M56 0v446h144v-70q20 39 56 62q30 19 77 19q26 0 47 -7l-8 -135q-29 16 -65 16q-43 0 -72 -30q-35 -38 -35 -120v-181h-144zM209 631l118 95l66 -68l-184 -143l-183 143l64 68z" />
    <glyph glyph-name="Sacute" unicode="&#x15a;" horiz-adv-x="550" 
d="M486 616l-69 -112q-53 48 -112 48q-43 0 -65 -23q-17 -17 -17 -42q0 -23 15 -37q5 -4 10 -7.5t14 -7.5t15 -6.5t21 -8t24 -8.5l50 -19q61 -23 91 -51q49 -46 49 -124q0 -104 -59 -165q-65 -68 -189 -68q-75 0 -132 28q-49 24 -98 73l80 110q36 -36 62 -51q39 -24 84 -24
q42 0 70 23q24 20 24 54q0 30 -23 48q-8 7 -21.5 13.5t-34.5 15t-22 8.5l-55 19q-64 23 -93 53q-40 42 -40 116q0 91 58 150q60 61 165 61q111 0 198 -66zM360 925l95 -72l-164 -129l-65 53z" />
    <glyph glyph-name="sacute" unicode="&#x15b;" horiz-adv-x="434" 
d="M386 423l-57 -91q-44 25 -79 25q-28 0 -41 -13q-9 -9 -9 -20q0 -12 14 -20q6 -4 21.5 -8.5t21.5 -6.5l38 -12q48 -15 74 -39q35 -31 35 -85q0 -71 -46 -117q-51 -51 -145 -51q-109 0 -183 64l61 97q30 -24 49 -33q25 -14 60 -14q33 0 45 10q15 12 15 29q0 16 -16 26
q-4 3 -44 16l-36 11q-44 13 -72 41q-32 35 -32 81q0 65 43 103q49 45 135 45q83 0 148 -38zM288 715l94 -65l-152 -135l-65 48z" />
    <glyph glyph-name="Scircumflex" unicode="&#x15c;" horiz-adv-x="550" 
d="M486 616l-69 -112q-53 48 -112 48q-43 0 -65 -23q-17 -17 -17 -42q0 -23 15 -37q5 -4 10 -7.5t14 -7.5t15 -6.5t21 -8t24 -8.5l50 -19q61 -23 91 -51q49 -46 49 -124q0 -104 -59 -165q-65 -68 -189 -68q-75 0 -132 28q-49 24 -98 73l80 110q36 -36 62 -51q39 -24 84 -24
q42 0 70 23q24 20 24 54q0 30 -23 48q-8 7 -21.5 13.5t-34.5 15t-22 8.5l-55 19q-64 23 -93 53q-40 42 -40 116q0 91 58 150q60 61 165 61q111 0 198 -66zM155 726l-64 71l188 140l189 -140l-66 -71l-123 93z" />
    <glyph glyph-name="scircumflex" unicode="&#x15d;" horiz-adv-x="434" 
d="M386 423l-57 -91q-44 25 -79 25q-28 0 -41 -13q-9 -9 -9 -20q0 -12 14 -20q6 -4 21.5 -8.5t21.5 -6.5l38 -12q48 -15 74 -39q35 -31 35 -85q0 -71 -46 -117q-51 -51 -145 -51q-109 0 -183 64l61 97q30 -24 49 -33q25 -14 60 -14q33 0 45 10q15 12 15 29q0 16 -16 26
q-4 3 -44 16l-36 11q-44 13 -72 41q-32 35 -32 81q0 65 43 103q49 45 135 45q83 0 148 -38zM230 610l-119 -95l-64 69l183 142l184 -142l-66 -69z" />
    <glyph glyph-name="Scedilla" unicode="&#x15e;" horiz-adv-x="550" 
d="M486 616l-69 -112q-53 48 -112 48q-43 0 -65 -23q-17 -17 -17 -42q0 -23 15 -37q5 -4 10 -7.5t14 -7.5t15 -6.5t21 -8t24 -8.5l50 -19q61 -23 91 -51q49 -46 49 -124q0 -104 -59 -165q-65 -68 -189 -68q-75 0 -132 28q-49 24 -98 73l80 110q36 -36 62 -51q39 -24 84 -24
q42 0 70 23q24 20 24 54q0 30 -23 48q-8 7 -21.5 13.5t-34.5 15t-22 8.5l-55 19q-64 23 -93 53q-40 42 -40 116q0 91 58 150q60 61 165 61q111 0 198 -66zM243 -46l100 -44l-112 -146l-80 40z" />
    <glyph glyph-name="scedilla" unicode="&#x15f;" horiz-adv-x="434" 
d="M386 423l-57 -91q-44 25 -79 25q-28 0 -41 -13q-9 -9 -9 -20q0 -12 14 -20q6 -4 21.5 -8.5t21.5 -6.5l38 -12q48 -15 74 -39q35 -31 35 -85q0 -71 -46 -117q-51 -51 -145 -51q-109 0 -183 64l61 97q30 -24 49 -33q25 -14 60 -14q33 0 45 10q15 12 15 29q0 16 -16 26
q-4 3 -44 16l-36 11q-44 13 -72 41q-32 35 -32 81q0 65 43 103q49 45 135 45q83 0 148 -38zM196 -46l94 -44l-118 -146l-74 40z" />
    <glyph glyph-name="Scaron" unicode="&#x160;" horiz-adv-x="550" 
d="M486 616l-69 -112q-53 48 -112 48q-43 0 -65 -23q-17 -17 -17 -42q0 -23 15 -37q5 -4 10 -7.5t14 -7.5t15 -6.5t21 -8t24 -8.5l50 -19q61 -23 91 -51q49 -46 49 -124q0 -104 -59 -165q-65 -68 -189 -68q-75 0 -132 28q-49 24 -98 73l80 110q36 -36 62 -51q39 -24 84 -24
q42 0 70 23q24 20 24 54q0 30 -23 48q-8 7 -21.5 13.5t-34.5 15t-22 8.5l-55 19q-64 23 -93 53q-40 42 -40 116q0 91 58 150q60 61 165 61q111 0 198 -66zM279 844l123 93l66 -70l-189 -141l-188 141l64 70z" />
    <glyph glyph-name="scaron" unicode="&#x161;" horiz-adv-x="434" 
d="M386 423l-57 -91q-44 25 -79 25q-28 0 -41 -13q-9 -9 -9 -20q0 -12 14 -20q6 -4 21.5 -8.5t21.5 -6.5l38 -12q48 -15 74 -39q35 -31 35 -85q0 -71 -46 -117q-51 -51 -145 -51q-109 0 -183 64l61 97q30 -24 49 -33q25 -14 60 -14q33 0 45 10q15 12 15 29q0 16 -16 26
q-4 3 -44 16l-36 11q-44 13 -72 41q-32 35 -32 81q0 65 43 103q49 45 135 45q83 0 148 -38zM230 631l118 95l66 -68l-184 -143l-183 143l64 68z" />
    <glyph glyph-name="Tcedilla" unicode="&#x162;" horiz-adv-x="460" 
d="M452 537h-145v-537h-154v537h-145v130h444v-130zM205 -46l100 -44l-112 -146l-80 40z" />
    <glyph glyph-name="tcedilla" unicode="&#x163;" horiz-adv-x="299" 
d="M293 330h-89v-330h-144v330h-50v116h50v144h144v-144h89v-116zM116 -46l94 -44l-118 -146l-74 40z" />
    <glyph glyph-name="Tcaron" unicode="&#x164;" horiz-adv-x="460" 
d="M452 537h-145v-537h-154v537h-145v130h444v-130zM231 844l123 93l66 -70l-189 -141l-188 141l64 70z" />
    <glyph glyph-name="tcaron" unicode="&#x165;" horiz-adv-x="441" 
d="M293 330h-89v-330h-144v330h-50v116h50v144h144v-144h89v-116zM250 492l70 208l130 -30l-112 -198z" />
    <glyph glyph-name="Utilde" unicode="&#x168;" horiz-adv-x="710" 
d="M637 667v-395q0 -137 -74 -211q-44 -46 -94 -61t-114 -15t-114 15t-94 61q-74 74 -74 211v395h154v-391q0 -75 35 -112q33 -35 93 -35t93 35q35 37 35 112v391h154zM476 867l71 -50q-18 -34 -42 -58q-31 -31 -71 -31q-21 0 -62 16l-41 16q-25 11 -37 11q-31 0 -46 -39
l-71 50q19 41 37 59q27 30 73 30q26 0 60 -14l40 -16q33 -12 41 -12q31 0 48 38z" />
    <glyph glyph-name="utilde" unicode="&#x169;" horiz-adv-x="570" 
d="M56 446h144v-246q0 -49 25 -72q26 -21 60 -21q38 0 61 21q24 23 24 72v246h144v-260q0 -46 -9.5 -79.5t-40.5 -63.5q-58 -58 -179 -58q-122 0 -180 58q-49 48 -49 134v269zM401 657l66 -44q-16 -40 -39 -63q-30 -30 -70 -30q-18 0 -59 14l-35 13q-32 13 -49 13
q-30 0 -43 -37l-65 44q15 43 34 63q27 30 71 30q27 0 62 -13l34 -13q35 -14 53 -14q31 0 40 37z" />
    <glyph glyph-name="Umacron" unicode="&#x16a;" horiz-adv-x="710" 
d="M637 667v-395q0 -137 -74 -211q-44 -46 -94 -61t-114 -15t-114 15t-94 61q-74 74 -74 211v395h154v-391q0 -75 35 -112q33 -35 93 -35t93 35q35 37 35 112v391h154zM157 753v92h388v-92h-388z" />
    <glyph glyph-name="umacron" unicode="&#x16b;" horiz-adv-x="570" 
d="M56 446h144v-246q0 -49 25 -72q26 -21 60 -21q38 0 61 21q24 23 24 72v246h144v-260q0 -46 -9.5 -79.5t-40.5 -63.5q-58 -58 -179 -58q-122 0 -180 58q-49 48 -49 134v269zM87 543v90h380v-90h-380z" />
    <glyph glyph-name="Ubreve" unicode="&#x16c;" horiz-adv-x="710" 
d="M637 667v-395q0 -137 -74 -211q-44 -46 -94 -61t-114 -15t-114 15t-94 61q-74 74 -74 211v395h154v-391q0 -75 35 -112q33 -35 93 -35t93 35q35 37 35 112v391h154zM431 874h96q-12 -71 -46 -105q-44 -44 -126 -44t-126 44q-34 34 -46 105h96q5 -24 19 -42q18 -21 57 -21
t57 21q14 18 19 42z" />
    <glyph glyph-name="ubreve" unicode="&#x16d;" horiz-adv-x="570" 
d="M56 446h144v-246q0 -49 25 -72q26 -21 60 -21q38 0 61 21q24 23 24 72v246h144v-260q0 -46 -9.5 -79.5t-40.5 -63.5q-58 -58 -179 -58q-122 0 -180 58q-49 48 -49 134v269zM360 664h94q-4 -61 -44 -102q-43 -45 -125 -45t-125 45q-40 41 -44 102h94q4 -25 21 -42
q20 -19 54 -19t54 19q17 17 21 42z" />
    <glyph glyph-name="Uring" unicode="&#x16e;" horiz-adv-x="710" 
d="M637 667v-395q0 -137 -74 -211q-44 -46 -94 -61t-114 -15t-114 15t-94 61q-74 74 -74 211v395h154v-391q0 -75 35 -112q33 -35 93 -35t93 35q35 37 35 112v391h154zM471 827q0 -39 -27 -66q-35 -32 -89 -32t-89 32q-27 27 -27 66t27 66q35 32 89 32t89 -32q27 -27 27 -66
zM355 866q-22 0 -34 -12t-12 -27t12 -27t34 -12t34 12t12 27t-12 27t-34 12z" />
    <glyph glyph-name="uring" unicode="&#x16f;" horiz-adv-x="570" 
d="M56 446h144v-246q0 -49 25 -72q26 -21 60 -21q38 0 61 21q24 23 24 72v246h144v-260q0 -46 -9.5 -79.5t-40.5 -63.5q-58 -58 -179 -58q-122 0 -180 58q-49 48 -49 134v269zM399 614q0 -38 -27 -65q-33 -31 -87 -31t-87 31q-27 27 -27 65t27 65q33 31 87 31t87 -31
q27 -27 27 -65zM285 650q-21 0 -31 -9q-13 -13 -13 -27t13 -27q10 -9 31 -9t31 9q13 13 13 27t-13 27q-10 9 -31 9z" />
    <glyph glyph-name="Uhungarumlaut" unicode="&#x170;" horiz-adv-x="710" 
d="M637 667v-395q0 -137 -74 -211q-44 -46 -94 -61t-114 -15t-114 15t-94 61q-74 74 -74 211v395h154v-391q0 -75 35 -112q33 -35 93 -35t93 35q35 37 35 112v391h154zM320 925l86 -66l-140 -135l-55 48zM506 925l87 -66l-140 -135l-56 48z" />
    <glyph glyph-name="uhungarumlaut" unicode="&#x171;" horiz-adv-x="570" 
d="M56 446h144v-246q0 -49 25 -72q26 -21 60 -21q38 0 61 21q24 23 24 72v246h144v-260q0 -46 -9.5 -79.5t-40.5 -63.5q-58 -58 -179 -58q-122 0 -180 58q-49 48 -49 134v269zM226 710l82 -66l-134 -135l-52 48zM406 709l83 -65l-134 -135l-53 48z" />
    <glyph glyph-name="Uogonek" unicode="&#x172;" horiz-adv-x="710" 
d="M637 667v-395q0 -95 -31 -155q-28 -54 -102 -100q-4 -2 -16 -9.5t-19 -11.5t-17.5 -13t-18.5 -18q-19 -19 -19 -46q0 -13 11 -24q11 -9 28 -9q16 0 31 5.5t19 9.5l-18 -77q-27 -17 -65 -17q-41 0 -69 24q-23 21 -23 56q0 28 16 56q12 20 33 43q-11 -1 -32 -1
q-130 0 -198 76q-74 77 -74 211v395h154v-391q0 -75 35 -112q33 -35 93 -35t93 35q35 37 35 112v391h154z" />
    <glyph glyph-name="uogonek" unicode="&#x173;" horiz-adv-x="570" 
d="M56 446h144v-246q0 -49 25 -72q26 -21 60 -21q38 0 61 21q24 23 24 72v246h144v-260q0 -26 -2 -43t-13.5 -44t-33.5 -51q-12 -14 -51 -41q-38 -26 -53 -41q-20 -20 -20 -38t12 -28q10 -10 29 -10q23 0 50 15l-18 -77q-27 -17 -67 -17q-43 0 -67 24q-23 23 -23 57
q0 22 15 50q15 26 34 44q-9 -1 -29 -1q-114 0 -172 58q-49 48 -49 134v269z" />
    <glyph glyph-name="Ydieresis" unicode="&#x178;" horiz-adv-x="632" 
d="M239 0v311l-239 356h182l134 -207l134 207h182l-239 -356v-311h-154zM128 811q0 32 23.5 55.5t55.5 23.5t55.5 -23.5t23.5 -55.5t-23.5 -55.5t-55.5 -23.5t-55.5 23.5t-23.5 55.5zM346 811q0 32 23.5 55.5t55.5 23.5t55.5 -23.5t23.5 -55.5t-23.5 -55.5t-55.5 -23.5
t-55.5 23.5t-23.5 55.5z" />
    <glyph glyph-name="Zacute" unicode="&#x179;" horiz-adv-x="616" 
d="M594 667l-319 -537h286v-130h-539l320 537h-268v130h520zM373 925l95 -72l-164 -129l-65 53z" />
    <glyph glyph-name="zacute" unicode="&#x17a;" horiz-adv-x="499" 
d="M487 446l-231 -326h211v-120h-455l232 326h-197v120h440zM312 715l94 -65l-152 -135l-65 48z" />
    <glyph glyph-name="Zdotaccent" unicode="&#x17b;" horiz-adv-x="616" 
d="M594 667l-319 -537h286v-130h-539l320 537h-268v130h520zM235 815q0 36 24.5 60.5t60.5 24.5t60.5 -24.5t24.5 -60.5t-24.5 -60.5t-60.5 -24.5t-60.5 24.5t-24.5 60.5z" />
    <glyph glyph-name="zdotaccent" unicode="&#x17c;" horiz-adv-x="499" 
d="M487 446l-231 -326h211v-120h-455l232 326h-197v120h440zM161 603q0 35 24 59t59 24t59 -24t24 -59t-24 -59t-59 -24t-59 24t-24 59z" />
    <glyph glyph-name="Zcaron" unicode="&#x17d;" horiz-adv-x="616" 
d="M594 667l-319 -537h286v-130h-539l320 537h-268v130h520zM314 844l123 93l66 -70l-189 -141l-188 141l64 70z" />
    <glyph glyph-name="zcaron" unicode="&#x17e;" horiz-adv-x="499" 
d="M487 446l-231 -326h211v-120h-455l232 326h-197v120h440zM249 631l118 95l66 -68l-184 -143l-183 143l64 68z" />
    <glyph glyph-name="uni018F" unicode="&#x18f;" horiz-adv-x="765" 
d="M42 375h520q0 15 -12.5 50.5t-39.5 64.5q-49 50 -134 50q-58 0 -100 -23q-39 -21 -66 -65l-142 55q45 77 115 122q84 53 206 53q147 0 237 -90q97 -97 97 -255q0 -167 -102 -265q-52 -50 -109 -68.5t-130 -18.5q-74 0 -127 18.5t-100 66.5q-58 58 -85.5 142t-27.5 159v4z
M559 267h-346q7 -57 44 -97q43 -47 127 -47q75 0 122 42q44 40 53 102z" />
    <glyph glyph-name="florin" unicode="&#x192;" horiz-adv-x="600" 
d="M183 118l43 238h-68l15 90h69l20 115q15 83 60 130q46 49 128 49q55 0 99 -20l-23 -123q-26 17 -58 17q-27 0 -43 -15q-21 -19 -30 -76l-13 -77h102l-16 -90h-102l-48 -268q-25 -153 -89 -214q-61 -58 -176 -58q-29 0 -61 7l23 128q20 -5 41 -5q53 0 77 28q29 32 50 144z
" />
    <glyph glyph-name="uni01CF" unicode="&#x1cf;" horiz-adv-x="306" 
d="M76 667h154v-667h-154v667zM154 844l123 93l66 -70l-189 -141l-188 141l64 70z" />
    <glyph glyph-name="uni01D0" unicode="&#x1d0;" horiz-adv-x="276" 
d="M66 446h144v-446h-144v446zM138 639l93 87l66 -69l-159 -142l-159 142l65 69z" />
    <glyph glyph-name="uni01DD" unicode="&#x1dd;" horiz-adv-x="547" 
d="M362 168h-195q6 -33 29 -55q25 -25 69 -25t72 29q20 20 25 51zM34 233v18h332q0 43 -26 72q-27 29 -72 29q-40 0 -60 -13q-2 -1 -6.5 -4.5t-12 -12.5t-12.5 -20l-136 14q24 75 86 112q51 33 142 33q113 0 177 -64q67 -69 67 -170q0 -110 -68 -178q-64 -64 -173 -64
q-112 0 -175 67t-63 181z" />
    <glyph glyph-name="Gcaron" unicode="&#x1e6;" horiz-adv-x="767" 
d="M394 240v124h331v-7q0 -69 -26 -148.5t-77 -132.5q-89 -91 -238 -91q-72 0 -131.5 19t-112.5 74q-98 98 -98 254q0 155 96 253q95 97 262 97q110 0 187 -50q68 -47 108 -119l-139 -75q-22 46 -59 72q-44 32 -102 32q-89 0 -138 -54q-57 -60 -57 -158q0 -97 56 -153
q51 -52 135 -52q74 0 116 36q34 27 48 79h-161zM384 844l123 93l66 -70l-189 -141l-188 141l64 70z" />
    <glyph glyph-name="gcaron" unicode="&#x1e7;" horiz-adv-x="595" 
d="M395 394v52h144v-419q0 -40 -2.5 -66.5t-15.5 -61.5t-37 -62q-64 -66 -188 -66q-120 0 -186 57q-53 45 -67 118h157q9 -28 32 -44q23 -15 62 -15q43 0 72 24q29 29 29 93v51q-36 -67 -133 -67q-100 0 -163 63q-65 67 -65 168q0 112 66 178q62 64 162 64q88 0 133 -67z
M295 336q-47 0 -79 -29q-34 -31 -34 -83q0 -47 31 -80q30 -32 81 -32q49 0 78 29q35 33 35 85q0 48 -34 82q-31 28 -78 28zM273 631l118 95l66 -68l-184 -143l-183 143l64 68z" />
    <glyph glyph-name="AEacute" unicode="&#x1fc;" horiz-adv-x="920" 
d="M522 0l-51 129h-255l-50 -129h-160l273 667h144h235l48 -130h-232l51 -129h230l50 -130h-231l59 -148h232l49 -130h-232h-160zM261 247h168l-82 219zM515 925l95 -72l-164 -129l-65 53z" />
    <glyph glyph-name="aeacute" unicode="&#x1fd;" horiz-adv-x="840" 
d="M666 144l135 -9q-26 -75 -87 -116q-52 -34 -136 -34q-72 0 -109 20q-32 16 -64 53q-30 -39 -75 -57q-38 -16 -107 -16q-101 0 -150 49q-39 39 -39 100q0 56 37 93q52 52 157 52q60 0 105 -27v9q0 40 -26 66q-28 28 -87 28q-49 0 -115 -22v110q65 18 131 18q117 0 165 -77
q60 77 171 77t174 -68q60 -65 60 -181v-14h-326q1 -45 30 -77q24 -28 73 -28q30 0 51 12q23 14 32 39zM247 191q-43 0 -66 -23q-13 -13 -13 -31t13 -31q23 -23 65 -23q47 0 70 23q13 13 13 31t-13 31q-23 23 -69 23zM484 284h187q-6 32 -29 54q-25 23 -64 23t-62 -21
t-32 -56zM487 715l94 -65l-152 -135l-65 48z" />
    <glyph glyph-name="Scommaaccent" unicode="&#x218;" horiz-adv-x="550" 
d="M486 616l-69 -112q-53 48 -112 48q-43 0 -65 -23q-17 -17 -17 -42q0 -23 15 -37q5 -4 10 -7.5t14 -7.5t15 -6.5t21 -8t24 -8.5l50 -19q61 -23 91 -51q49 -46 49 -124q0 -104 -59 -165q-65 -68 -189 -68q-75 0 -132 28q-49 24 -98 73l80 110q36 -36 62 -51q39 -24 84 -24
q42 0 70 23q24 20 24 54q0 30 -23 48q-8 7 -21.5 13.5t-34.5 15t-22 8.5l-55 19q-64 23 -93 53q-40 42 -40 116q0 91 58 150q60 61 165 61q111 0 198 -66zM141 -248l56 198l134 -16l-98 -194z" />
    <glyph glyph-name="scommaaccent" unicode="&#x219;" horiz-adv-x="434" 
d="M386 423l-57 -91q-44 25 -79 25q-28 0 -41 -13q-9 -9 -9 -20q0 -12 14 -20q6 -4 21.5 -8.5t21.5 -6.5l38 -12q48 -15 74 -39q35 -31 35 -85q0 -71 -46 -117q-51 -51 -145 -51q-109 0 -183 64l61 97q30 -24 49 -33q25 -14 60 -14q33 0 45 10q15 12 15 29q0 16 -16 26
q-4 3 -44 16l-36 11q-44 13 -72 41q-32 35 -32 81q0 65 43 103q49 45 135 45q83 0 148 -38zM115 -238l56 188l134 -16l-98 -184z" />
    <glyph glyph-name="Tcommaaccent" unicode="&#x21a;" horiz-adv-x="460" 
d="M452 537h-145v-537h-154v537h-145v130h444v-130zM111 -248l56 198l134 -16l-98 -194z" />
    <glyph glyph-name="tcommaaccent" unicode="&#x21b;" horiz-adv-x="299" 
d="M293 330h-89v-330h-144v330h-50v116h50v144h144v-144h89v-116zM36 -238l56 188l134 -16l-98 -184z" />
    <glyph glyph-name="uni0228" unicode="&#x228;" horiz-adv-x="502" 
d="M450 667v-130h-223v-129h212v-130h-212v-148h223v-130h-377v667h377zM255 -46l100 -44l-112 -146l-80 40z" />
    <glyph glyph-name="uni0229" unicode="&#x229;" horiz-adv-x="547" 
d="M185 284h195q-8 32 -29 52q-27 25 -68 25q-44 0 -73 -29q-20 -21 -25 -48zM513 213v-15h-333q0 -48 27 -76t74 -28q36 0 58 13q2 1 6.5 4.5t12 12.5t12.5 20l136 -14q-25 -74 -86 -112q-53 -33 -141 -33q-114 0 -178 64q-67 67 -67 172t68 176q64 64 171 64
q113 0 177 -67q63 -67 63 -181zM262 -46l94 -44l-118 -146l-74 40z" />
    <glyph glyph-name="uni0237" unicode="&#x237;" horiz-adv-x="276" 
d="M66 446h144v-675h-144v675z" />
    <glyph glyph-name="uni0259" unicode="&#x259;" horiz-adv-x="547" 
d="M362 168h-195q6 -33 29 -55q25 -25 69 -25t72 29q20 20 25 51zM34 233v18h332q0 43 -26 72q-27 29 -72 29q-40 0 -60 -13q-2 -1 -6.5 -4.5t-12 -12.5t-12.5 -20l-136 14q24 75 86 112q51 33 142 33q113 0 177 -64q67 -69 67 -170q0 -110 -68 -178q-64 -64 -173 -64
q-112 0 -175 67t-63 181z" />
    <glyph glyph-name="afii57929" unicode="&#x2bc;" 
d="M120 492l70 208l130 -30l-112 -198z" />
    <glyph glyph-name="circumflex" unicode="&#x2c6;" 
d="M249 610l-119 -95l-64 69l183 142l184 -142l-66 -69z" />
    <glyph glyph-name="caron" unicode="&#x2c7;" 
d="M249 631l118 95l66 -68l-184 -143l-183 143l64 68z" />
    <glyph glyph-name="uni02C9" unicode="&#x2c9;" 
d="M60 543v90h380v-90h-380z" />
    <glyph glyph-name="breve" unicode="&#x2d8;" 
d="M325 664h94q-4 -61 -44 -102q-43 -45 -125 -45t-125 45q-40 41 -44 102h94q4 -25 21 -42q20 -19 54 -19t54 19q17 17 21 42z" />
    <glyph glyph-name="dotaccent" unicode="&#x2d9;" 
d="M167 603q0 35 24 59t59 24t59 -24t24 -59t-24 -59t-59 -24t-59 24t-24 59z" />
    <glyph glyph-name="ring" unicode="&#x2da;" 
d="M364 614q0 -38 -27 -65q-33 -31 -87 -31t-87 31q-27 27 -27 65t27 65q33 31 87 31t87 -31q27 -27 27 -65zM250 650q-21 0 -31 -9q-13 -13 -13 -27t13 -27q10 -9 31 -9t31 9q13 13 13 27t-13 27q-10 9 -31 9z" />
    <glyph glyph-name="ogonek" unicode="&#x2db;" 
d="M377 -95l-18 -77q-27 -17 -66 -17q-44 0 -68 24q-23 23 -23 56q0 29 21 61q17 24 43 48h66q-4 -4 -14 -14.5t-13 -13.5q-19 -22 -19 -44q0 -18 12 -28q10 -10 29 -10q23 0 50 15z" />
    <glyph glyph-name="tilde" unicode="&#x2dc;" 
d="M364 657l66 -44q-16 -40 -39 -63q-30 -30 -70 -30q-18 0 -59 14l-35 13q-32 13 -49 13q-30 0 -43 -37l-65 44q15 43 34 63q27 30 71 30q27 0 62 -13l34 -13q35 -14 53 -14q31 0 40 37z" />
    <glyph glyph-name="hungarumlaut" unicode="&#x2dd;" 
d="M210 710l82 -66l-134 -135l-52 48zM390 709l83 -65l-134 -135l-53 48z" />
    <glyph glyph-name="acutecomb" unicode="&#x301;" horiz-adv-x="2" 
d="M-202 715l94 -65l-152 -135l-65 48z" />
    <glyph glyph-name="uni0394" unicode="&#x394;" horiz-adv-x="669" 
d="M651 0h-633l247 667h136zM334 484l-129 -368h257z" />
    <glyph glyph-name="uni0394" unicode="&#x2206;" horiz-adv-x="669" 
d="M651 0h-633l247 667h136zM334 484l-129 -368h257z" />
    <glyph glyph-name="uni03A9" unicode="&#x3a9;" horiz-adv-x="688" 
d="M381 0v108q61 27 98 94q33 60 33 145q0 110 -59 167q-44 42 -109 42t-109 -42q-59 -57 -59 -167q0 -85 33 -145q37 -67 98 -94v-108h-268v116h133q-30 16 -56 41q-80 80 -80 208q0 142 88 230q87 87 220 87t220 -87q88 -88 88 -230q0 -128 -80 -208q-26 -25 -56 -41h133
v-116h-268z" />
    <glyph glyph-name="uni03A9" unicode="&#x2126;" horiz-adv-x="688" 
d="M381 0v108q61 27 98 94q33 60 33 145q0 110 -59 167q-44 42 -109 42t-109 -42q-59 -57 -59 -167q0 -85 33 -145q37 -67 98 -94v-108h-268v116h133q-30 16 -56 41q-80 80 -80 208q0 142 88 230q87 87 220 87t220 -87q88 -88 88 -230q0 -128 -80 -208q-26 -25 -56 -41h133
v-116h-268z" />
    <glyph glyph-name="pi" unicode="&#x3c0;" horiz-adv-x="676" 
d="M286 0h-144v330h-76v116h604v-116h-76v-330h-144v330h-164v-330z" />
    <glyph glyph-name="afii10023" unicode="&#x401;" horiz-adv-x="502" 
d="M450 667v-130h-223v-129h212v-130h-212v-148h223v-130h-377v667h377zM83 799q0 32 21.5 53.5t53.5 21.5t53.5 -21.5t21.5 -53.5t-21.5 -53.5t-53.5 -21.5t-53.5 21.5t-21.5 53.5zM292 799q0 32 21.5 53.5t53.5 21.5t53.5 -21.5t21.5 -53.5t-21.5 -53.5t-53.5 -21.5
t-53.5 21.5t-21.5 53.5z" />
    <glyph glyph-name="afii10051" unicode="&#x402;" horiz-adv-x="676" 
d="M138 0v537h-130v130h504v-130h-220v-145q57 23 120 23q82 0 141 -31q97 -53 97 -181q0 -119 -81 -172q-55 -37 -156 -37q-19 0 -57 6v122q27 -6 54 -6q36 0 56 16q26 21 26 66q0 56 -37 75q-10 5 -25.5 8t-26 4t-11.5 0q-13 0 -27.5 -2t-26.5 -5.5t-20.5 -6t-16.5 -6
t-9 -3.5v-262h-154z" />
    <glyph glyph-name="afii10052" unicode="&#x403;" horiz-adv-x="459" 
d="M447 667v-130h-220v-537h-154v667h374zM325 925l95 -72l-164 -129l-65 53z" />
    <glyph glyph-name="afii10053" unicode="&#x404;" horiz-adv-x="623" 
d="M573 194v-162q-77 -47 -198 -47q-72 0 -130 18t-108 70q-95 101 -95 262q0 166 96 258q89 89 244 89q97 0 191 -48v-164q-36 30 -69 47q-47 25 -110 25q-84 0 -133 -44q-42 -35 -54 -99h256v-124h-257q9 -69 61 -111q48 -39 131 -39q62 0 107 22q41 22 68 47z" />
    <glyph glyph-name="afii10054" unicode="&#x405;" horiz-adv-x="550" 
d="M486 616l-69 -112q-53 48 -112 48q-43 0 -65 -23q-17 -17 -17 -42q0 -23 15 -37q5 -4 10 -7.5t14 -7.5t15 -6.5t21 -8t24 -8.5l50 -19q61 -23 91 -51q49 -46 49 -124q0 -104 -59 -165q-65 -68 -189 -68q-75 0 -132 28q-49 24 -98 73l80 110q36 -36 62 -51q39 -24 84 -24
q42 0 70 23q24 20 24 54q0 30 -23 48q-8 7 -21.5 13.5t-34.5 15t-22 8.5l-55 19q-64 23 -93 53q-40 42 -40 116q0 91 58 150q60 61 165 61q111 0 198 -66z" />
    <glyph glyph-name="afii10055" unicode="&#x406;" horiz-adv-x="306" 
d="M76 667h154v-667h-154v667z" />
    <glyph glyph-name="afii10056" unicode="&#x407;" horiz-adv-x="337" 
d="M92 667h154v-667h-154v667zM188 811q0 32 20.5 55.5t49.5 23.5t49.5 -23.5t20.5 -55.5t-20.5 -55.5t-49.5 -23.5t-49.5 23.5t-20.5 55.5zM9 811q0 32 20.5 55.5t49.5 23.5t49.5 -23.5t20.5 -55.5t-20.5 -55.5t-49.5 -23.5t-49.5 23.5t-20.5 55.5z" />
    <glyph glyph-name="afii10057" unicode="&#x408;" horiz-adv-x="415" 
d="M188 667h154v-454q0 -123 -58 -178q-50 -50 -141 -50q-66 0 -106 24q-35 22 -63 56l96 108q18 -31 24 -37q15 -15 38 -15q22 0 36 14q20 20 20 79v453z" />
    <glyph glyph-name="afii10058" unicode="&#x409;" horiz-adv-x="983" 
d="M470 0v537h-181v-229q0 -193 -67 -263q-53 -53 -150 -53q-30 0 -62 8v138q16 -6 38 -6q39 0 61 22q30 30 30 140v373h485v-260h94q124 0 183 -56q56 -52 56 -148q0 -97 -54 -147q-59 -56 -190 -56h-243zM624 283v-159h68q55 0 80 18q29 19 29 62q0 46 -28 63
q-22 16 -80 16h-69z" />
    <glyph glyph-name="afii10059" unicode="&#x40a;" horiz-adv-x="1006" 
d="M493 0v283h-266v-283h-154v667h154v-254h266v254h154v-260h94q124 0 183 -56q56 -52 56 -148q0 -97 -54 -147q-59 -56 -190 -56h-243zM647 283v-159h68q55 0 80 18q29 19 29 62q0 46 -28 63q-22 16 -80 16h-69z" />
    <glyph glyph-name="afii10060" unicode="&#x40b;" horiz-adv-x="721" 
d="M138 0v537h-130v130h504v-130h-220v-132q72 10 133 10q138 0 198 -56q50 -48 50 -136v-223h-154v176q0 58 -24 82q-27 27 -105 27q-58 0 -98 -8v-277h-154z" />
    <glyph glyph-name="afii10061" unicode="&#x40c;" horiz-adv-x="670" 
d="M227 667v-278l228 278h188l-270 -316l291 -351h-198l-239 296v-296h-154v667h154zM390 925l95 -72l-164 -129l-65 53z" />
    <glyph glyph-name="afii10062" unicode="&#x40e;" horiz-adv-x="622" 
d="M4 667h172l140 -308l134 308h166l-305 -667h-166l97 192zM401 887l106 -45q-25 -59 -76 -90q-47 -28 -123 -28q-75 0 -122 28q-51 31 -76 90l106 45q11 -29 33 -48q23 -17 61 -17q36 0 59 17q23 18 32 48z" />
    <glyph glyph-name="afii10145" unicode="&#x40f;" horiz-adv-x="701" 
d="M73 0v667h154v-537h247v537h154v-667h-208v-166h-138v166h-209z" />
    <glyph glyph-name="afii10017" unicode="&#x410;" horiz-adv-x="677" 
d="M515 0l-50 126h-252l-51 -126h-160l269 667h141l263 -667h-160zM258 244h165l-82 224z" />
    <glyph glyph-name="afii10018" unicode="&#x411;" horiz-adv-x="597" 
d="M73 0v667h412v-130h-258v-133h86q126 0 188 -62q54 -54 54 -139q0 -89 -54 -143q-60 -60 -201 -60h-227zM227 124h61q56 0 83 21q26 23 26 59q0 40 -30 62q-25 18 -79 18h-61v-160z" />
    <glyph glyph-name="afii10019" unicode="&#x412;" horiz-adv-x="594" 
d="M73 667h204q114 0 170 -51q48 -45 48 -126q0 -51 -22 -85q-20 -33 -56 -49q56 -9 92 -45q43 -43 43 -119q0 -83 -52 -135q-60 -57 -176 -57h-251v667zM225 547v-151h25q51 0 78 19q27 20 27 59q0 36 -26 56q-23 17 -80 17h-24zM225 282v-162h37q86 0 114 27q22 19 22 56
t-21 54q-27 25 -110 25h-42z" />
    <glyph glyph-name="afii10020" unicode="&#x413;" horiz-adv-x="459" 
d="M447 667v-130h-220v-537h-154v667h374z" />
    <glyph glyph-name="afii10021" unicode="&#x414;" horiz-adv-x="701" 
d="M138 667h478v-539h75v-278h-138v150h-409v-150h-138v278q47 9 75 37q26 24 39.5 66.5t15.5 73.5t2 80v282zM286 539v-149q0 -109 -13 -156q-17 -62 -60 -106h251v411h-178z" />
    <glyph glyph-name="afii10022" unicode="&#x415;" horiz-adv-x="502" 
d="M450 667v-130h-223v-129h212v-130h-212v-148h223v-130h-377v667h377z" />
    <glyph glyph-name="afii10024" unicode="&#x416;" horiz-adv-x="941" 
d="M393 0v299l-201 -299h-186l250 346l-236 321h176l197 -286v286h154v-286l197 286h176l-236 -321l251 -346h-186l-202 299v-299h-154z" />
    <glyph glyph-name="afii10025" unicode="&#x417;" horiz-adv-x="590" 
d="M128 489l-68 118q40 33 91 51q64 24 130 24q118 0 179 -61q51 -48 51 -131q0 -50 -26 -87q-23 -33 -64 -49q51 -15 82 -47q45 -45 45 -119q0 -78 -54 -134q-66 -69 -201 -69q-96 0 -160 29q-52 22 -103 70l86 113q34 -37 68 -55q41 -21 91 -21q48 0 77 20q32 22 32 62
q0 31 -24 53q-32 25 -127 25h-25v124h23q82 0 110 26q19 16 19 45q0 32 -27 52q-24 18 -70 18q-43 0 -75 -17q-30 -13 -60 -40z" />
    <glyph glyph-name="afii10026" unicode="&#x418;" horiz-adv-x="745" 
d="M73 667h154v-436l309 444h136v-675h-154v437l-309 -445h-136v675z" />
    <glyph glyph-name="afii10027" unicode="&#x419;" horiz-adv-x="745" 
d="M73 667h154v-436l309 444h136v-675h-154v437l-309 -445h-136v675zM465 887l106 -45q-25 -59 -76 -90q-47 -28 -123 -28q-75 0 -122 28q-51 31 -76 90l106 45q11 -29 33 -48q23 -17 61 -17q36 0 59 17q23 18 32 48z" />
    <glyph glyph-name="afii10028" unicode="&#x41a;" horiz-adv-x="670" 
d="M227 667v-278l228 278h188l-270 -316l291 -351h-198l-239 296v-296h-154v667h154z" />
    <glyph glyph-name="afii10029" unicode="&#x41b;" horiz-adv-x="697" 
d="M139 667h485v-667h-154v537h-181v-229q0 -193 -67 -263q-53 -53 -150 -53q-30 0 -62 8v138q16 -6 38 -6q39 0 61 22q30 30 30 140v373z" />
    <glyph glyph-name="afii10030" unicode="&#x41c;" horiz-adv-x="886" 
d="M196 0h-154l107 667h128l166 -399l166 399h128l107 -667h-154l-53 398l-167 -398h-54l-167 398z" />
    <glyph glyph-name="afii10031" unicode="&#x41d;" horiz-adv-x="720" 
d="M227 667v-254h266v254h154v-667h-154v283h-266v-283h-154v667h154z" />
    <glyph glyph-name="afii10032" unicode="&#x41e;" horiz-adv-x="810" 
d="M406 682q158 0 258 -97q104 -99 104 -252q0 -147 -104 -250q-103 -98 -258 -98q-156 0 -260 98q-49 46 -76.5 110.5t-27.5 137.5q0 70 28.5 138.5t74.5 114.5q98 98 261 98zM405 540q-89 0 -146 -57q-59 -57 -59 -151q0 -90 61 -150q58 -55 143 -55q91 0 148 57
q58 54 58 149q0 92 -58 150q-59 57 -147 57z" />
    <glyph glyph-name="afii10033" unicode="&#x41f;" horiz-adv-x="707" 
d="M73 667h561v-667h-154v537h-253v-537h-154v667z" />
    <glyph glyph-name="afii10034" unicode="&#x420;" horiz-adv-x="572" 
d="M73 667h235q113 0 175 -55q65 -59 65 -162q0 -95 -57 -157q-59 -59 -170 -59h-94v-234h-154v667zM227 541v-181h55q57 0 83 25q25 25 25 66q0 40 -25 65t-86 25h-52z" />
    <glyph glyph-name="afii10035" unicode="&#x421;" horiz-adv-x="605" 
d="M555 198v-177q-70 -36 -147 -36q-163 0 -262 97q-104 102 -104 253q0 149 104 251q101 96 249 96q74 0 160 -37v-178q-69 71 -156 71q-83 0 -136 -52q-63 -61 -63 -154t58 -147q56 -56 144 -56q84 0 153 69z" />
    <glyph glyph-name="afii10036" unicode="&#x422;" horiz-adv-x="460" 
d="M452 537h-145v-537h-154v537h-145v130h444v-130z" />
    <glyph glyph-name="afii10037" unicode="&#x423;" horiz-adv-x="622" 
d="M4 667h172l140 -308l134 308h166l-305 -667h-166l97 192z" />
    <glyph glyph-name="afii10038" unicode="&#x424;" horiz-adv-x="852" 
d="M349 0v93h-8q-159 0 -236 83q-63 68 -63 183q0 110 65 179q81 84 234 84h8v92h154v-92h8q153 0 234 -84q65 -69 65 -179q0 -115 -63 -183q-77 -83 -236 -83h-8v-93h-154zM355 498h-6q-78 0 -117 -39q-36 -36 -36 -102q0 -65 36 -101q39 -39 117 -39h6v281zM497 498v-281
h6q78 0 117 39q36 36 36 101q0 66 -36 102q-39 39 -117 39h-6z" />
    <glyph glyph-name="afii10039" unicode="&#x425;" horiz-adv-x="686" 
d="M10 0l245 354l-207 313h185l110 -190l110 190h185l-207 -313l245 -354h-185l-148 231l-148 -231h-185z" />
    <glyph glyph-name="afii10040" unicode="&#x426;" horiz-adv-x="728" 
d="M73 0v667h154v-537h247v537h154v-537h90v-280h-138v150h-507z" />
    <glyph glyph-name="afii10041" unicode="&#x427;" horiz-adv-x="646" 
d="M419 0v266q-50 -10 -113 -10q-146 0 -207 59q-51 48 -51 147v205h154v-174q0 -58 29 -81q27 -22 97 -22q54 0 91 8v269h154v-667h-154z" />
    <glyph glyph-name="afii10042" unicode="&#x428;" horiz-adv-x="986" 
d="M73 0v667h154v-537h189v537h154v-537h189v537h154v-667h-840z" />
    <glyph glyph-name="afii10043" unicode="&#x429;" horiz-adv-x="1013" 
d="M865 0h-792v667h154v-537h189v537h154v-537h189v537h154v-537h90v-280h-138v150z" />
    <glyph glyph-name="afii10044" unicode="&#x42a;" horiz-adv-x="660" 
d="M147 0v537h-139v130h293v-260h94q124 0 183 -56q56 -52 56 -147q0 -96 -54 -148q-59 -56 -190 -56h-243zM301 283v-159h68q55 0 80 18q29 19 29 62q0 46 -28 63q-22 16 -80 16h-69z" />
    <glyph glyph-name="afii10045" unicode="&#x42b;" horiz-adv-x="847" 
d="M620 667h154v-667h-154v667zM73 0v667h154v-260h92q124 0 183 -56q56 -53 56 -148q0 -97 -54 -147q-59 -56 -190 -56h-241zM227 283v-159h68q55 0 80 18q29 19 29 62q0 46 -28 63q-22 16 -80 16h-69z" />
    <glyph glyph-name="afii10046" unicode="&#x42c;" horiz-adv-x="586" 
d="M73 0v667h154v-260h94q124 0 183 -56q56 -53 56 -148q0 -97 -54 -147q-59 -56 -190 -56h-243zM227 283v-159h68q55 0 80 18q29 19 29 62q0 46 -28 63q-22 16 -80 16h-69z" />
    <glyph glyph-name="afii10047" unicode="&#x42d;" horiz-adv-x="623" 
d="M50 32v162q27 -25 68 -47q45 -22 107 -22q83 0 131 39q52 41 63 111h-259v124h258q-12 61 -56 99q-49 44 -133 44q-63 0 -110 -25q-33 -17 -69 -47v164q94 48 191 48q155 0 244 -89q96 -92 96 -258q0 -161 -95 -262q-50 -52 -108 -70t-130 -18q-121 0 -198 47z" />
    <glyph glyph-name="afii10048" unicode="&#x42e;" horiz-adv-x="1058" 
d="M227 412h89q20 107 94 177q94 93 250 93t255 -96q101 -97 101 -248q0 -155 -101 -256q-97 -97 -256 -97q-157 0 -253 99q-80 83 -92 198h-87v-282h-154v667h154v-255zM662 540q-84 0 -137 -53q-61 -61 -61 -154q0 -89 54 -146q56 -60 146 -60q78 0 131 50q63 59 63 159
q0 89 -56 149q-53 55 -140 55z" />
    <glyph glyph-name="afii10049" unicode="&#x42f;" horiz-adv-x="602" 
d="M529 667v-667h-154v243h-20l-157 -243h-178l192 261q-58 11 -95 47q-56 52 -56 148q0 88 54 146q64 65 185 65h229zM375 361v180h-36q-62 0 -91 -24q-29 -29 -29 -67q0 -40 26 -64q28 -25 94 -25h36z" />
    <glyph glyph-name="afii10065" unicode="&#x430;" horiz-adv-x="598" 
d="M398 396v50h144v-446h-144v54q-45 -69 -132 -69q-103 0 -167 68q-65 71 -65 167q0 111 69 180q61 61 155 61t140 -65zM294 337q-47 0 -79 -32q-33 -33 -33 -81q0 -45 30 -80q33 -35 85 -35q44 0 75 31q35 35 35 84q0 51 -33 82q-34 31 -80 31z" />
    <glyph glyph-name="afii10066" unicode="&#x431;" horiz-adv-x="601" 
d="M422 730h126q-7 -74 -53 -117q-33 -33 -108 -54l-50 -14q-92 -26 -121 -52q-40 -37 -46 -94h5q53 61 153 61q110 0 173 -63q66 -63 66 -164q0 -107 -72 -179q-71 -69 -190 -69q-114 0 -184 66q-79 76 -79 230q0 207 88 301q53 55 160 79l27 6q6 1 21 4.5t20 5t16 5t16 6
t11 6t10 8.5q11 13 11 28zM304 338q-48 0 -80 -32q-34 -34 -34 -84q0 -48 33 -81q32 -32 83 -32q43 0 75 29q38 35 38 88q0 44 -33 79q-33 33 -82 33z" />
    <glyph glyph-name="afii10067" unicode="&#x432;" horiz-adv-x="502" 
d="M56 446h239q76 0 111 -29q36 -30 36 -87q0 -45 -27 -72q-12 -14 -37 -24q39 -7 65 -32q29 -29 29 -76q0 -53 -33 -86q-40 -40 -111 -40h-272v446zM200 268h59q23 0 36 9q15 11 15 33t-13 31q-12 9 -40 9h-57v-82zM200 96h65q30 0 43 12q14 12 14 35q0 17 -14 31
q-15 12 -49 12h-59v-90z" />
    <glyph glyph-name="afii10068" unicode="&#x433;" horiz-adv-x="366" 
d="M56 0v446h300v-118h-156v-328h-144z" />
    <glyph glyph-name="afii10069" unicode="&#x434;" horiz-adv-x="573" 
d="M104 446h395v-336h66v-236h-128v126h-305v-126h-128v236q35 4 61 28q25 24 32 55.5t7 79.5v173zM355 110v226h-119v-85q0 -49 -10 -82q-13 -34 -40 -59h169z" />
    <glyph glyph-name="afii10070" unicode="&#x435;" horiz-adv-x="547" 
d="M185 284h195q-8 32 -29 52q-27 25 -68 25q-44 0 -73 -29q-20 -21 -25 -48zM513 213v-15h-333q0 -48 27 -76t74 -28q36 0 58 13q2 1 6.5 4.5t12 12.5t12.5 20l136 -14q-25 -74 -86 -112q-53 -33 -141 -33q-114 0 -178 64q-67 67 -67 172t68 176q64 64 171 64
q113 0 177 -67q63 -67 63 -181z" />
    <glyph glyph-name="afii10072" unicode="&#x436;" horiz-adv-x="762" 
d="M311 446h140v-179l127 179h164l-162 -209l180 -237h-176l-133 193v-193h-140v193l-133 -193h-176l180 237l-162 209h164l127 -179v179z" />
    <glyph glyph-name="afii10073" unicode="&#x437;" horiz-adv-x="463" 
d="M96 312l-55 96q36 23 74 37q47 16 105 16q103 0 151 -46q33 -32 33 -82q0 -49 -27 -76q-17 -17 -38 -25q37 -9 60 -32q30 -27 30 -74q0 -54 -39 -93q-51 -48 -164 -48q-69 0 -122 20q-49 19 -80 47l61 95q25 -23 55 -36q33 -14 69 -14q31 0 52 11q20 13 20 34
q0 20 -21 30q-19 8 -52 8h-54v98h41q37 0 54 8q21 10 21 30t-22 29q-19 8 -45 8q-31 0 -59 -12q-27 -12 -48 -29z" />
    <glyph glyph-name="afii10074" unicode="&#x438;" horiz-adv-x="580" 
d="M56 446h144v-255l190 255h134v-446h-144v259l-190 -259h-134v446z" />
    <glyph glyph-name="afii10075" unicode="&#x439;" horiz-adv-x="580" 
d="M56 446h144v-255l190 255h134v-446h-144v259l-190 -259h-134v446zM371 665l100 -39q-18 -54 -64 -85q-44 -28 -117 -28t-117 28q-46 31 -64 85l100 39q6 -29 26 -46q21 -18 55 -18t55 18q20 17 26 46z" />
    <glyph glyph-name="afii10076" unicode="&#x43a;" horiz-adv-x="540" 
d="M56 0v446h144v-177l146 177h179l-191 -207l204 -239h-186l-152 198v-198h-144z" />
    <glyph glyph-name="afii10077" unicode="&#x43b;" horiz-adv-x="548" 
d="M492 446v-446h-144v330h-117v-137q0 -104 -44 -152q-43 -47 -123 -47q-31 0 -56 7v114q45 -12 69 13q18 24 18 71v247h397z" />
    <glyph glyph-name="afii10078" unicode="&#x43c;" horiz-adv-x="664" 
d="M24 0l78 446h114l116 -248l116 248h114l78 -446h-138l-36 237l-110 -237h-48l-110 237l-36 -237h-138z" />
    <glyph glyph-name="afii10079" unicode="&#x43d;" horiz-adv-x="561" 
d="M56 0v446h144v-155h161v155h144v-446h-144v175h-161v-175h-144z" />
    <glyph glyph-name="afii10080" unicode="&#x43e;" horiz-adv-x="592" 
d="M558 223q0 -99 -67 -166q-72 -72 -195 -72t-195 72q-67 67 -67 166t67 166q72 72 195 72t195 -72q67 -67 67 -166zM296 339q-49 0 -81 -32q-33 -33 -33 -84t33 -84q32 -32 82 -32q48 0 80 32q33 33 33 84t-33 84q-32 32 -81 32z" />
    <glyph glyph-name="afii10081" unicode="&#x43f;" horiz-adv-x="555" 
d="M56 0v446h443v-446h-144v330h-155v-330h-144z" />
    <glyph glyph-name="afii10082" unicode="&#x440;" horiz-adv-x="598" 
d="M200 51v-280h-144v675h144v-53q54 68 139 68q95 0 158 -63q67 -67 67 -174q0 -108 -71 -179q-60 -60 -151 -60q-93 0 -142 66zM304 337q-47 0 -80 -33q-34 -34 -34 -82q0 -44 32 -79q34 -34 82 -34q44 0 77 31q35 35 35 85q0 49 -34 81q-32 31 -78 31z" />
    <glyph glyph-name="afii10083" unicode="&#x441;" horiz-adv-x="431" 
d="M391 436v-131q-41 34 -94 34q-50 0 -82 -32q-33 -33 -33 -84q0 -50 30 -80q34 -36 87 -36q51 0 92 35v-130q-50 -27 -114 -27q-104 0 -173 67q-70 66 -70 170q0 107 74 176q68 63 170 63q62 0 113 -25z" />
    <glyph glyph-name="afii10084" unicode="&#x442;" horiz-adv-x="400" 
d="M392 330h-120v-330h-144v330h-120v116h384v-116z" />
    <glyph glyph-name="afii10085" unicode="&#x443;" horiz-adv-x="585" 
d="M58 -229l157 286l-213 389h166l126 -242l123 242h162l-359 -675h-162z" />
    <glyph glyph-name="afii10086" unicode="&#x444;" horiz-adv-x="718" 
d="M431 -229h-144v222h-6q-111 0 -183 67q-64 62 -64 165q0 109 77 174q68 54 169 54h7v214h144v-214h7q101 0 169 -54q77 -65 77 -174q0 -103 -64 -165q-72 -67 -183 -67h-6v-222zM424 337v-228q58 -2 90 34q29 32 29 82q0 52 -29 81q-36 36 -90 31zM294 109v228
q-54 5 -90 -31q-29 -29 -29 -81q0 -50 29 -82q32 -36 90 -34z" />
    <glyph glyph-name="afii10087" unicode="&#x445;" horiz-adv-x="620" 
d="M2 0l218 243l-177 203h184l83 -103l83 103h184l-177 -203l218 -243h-186l-122 144l-122 -144h-186z" />
    <glyph glyph-name="afii10088" unicode="&#x446;" horiz-adv-x="575" 
d="M56 0v446h144v-330h152v330h144v-330h73v-242h-128v126h-385z" />
    <glyph glyph-name="afii10089" unicode="&#x447;" horiz-adv-x="518" 
d="M318 0v150q-44 -11 -90 -11q-101 0 -147 43q-41 39 -41 115v149h142v-129q0 -33 18 -49q17 -15 58 -15q34 0 60 9v184h144v-446h-144z" />
    <glyph glyph-name="afii10090" unicode="&#x448;" horiz-adv-x="804" 
d="M56 0v446h144v-330h130v330h144v-330h130v330h144v-446h-692z" />
    <glyph glyph-name="afii10091" unicode="&#x449;" horiz-adv-x="827" 
d="M693 0h-637v446h144v-330h130v330h144v-330h130v330h144v-330h73v-242h-128v126z" />
    <glyph glyph-name="afii10092" unicode="&#x44a;" horiz-adv-x="552" 
d="M265 293h104q81 0 123 -42q36 -36 36 -101q0 -71 -40 -111q-40 -39 -125 -39h-242v330h-115v116h259v-153zM265 102h59q31 0 44 12q14 12 14 34q0 21 -14 32q-13 11 -43 11h-60v-89z" />
    <glyph glyph-name="afii10093" unicode="&#x44b;" horiz-adv-x="703" 
d="M505 446h142v-446h-142v446zM200 293h99q79 0 121 -42q37 -37 37 -102q0 -70 -40 -110q-40 -39 -123 -39h-238v446h144v-153zM200 102h59q31 0 44 12q14 12 14 34q0 21 -14 32q-13 11 -43 11h-60v-89z" />
    <glyph glyph-name="afii10094" unicode="&#x44c;" horiz-adv-x="487" 
d="M200 293h106q68 0 121 -42q36 -36 36 -101q0 -71 -40 -111q-40 -39 -123 -39h-244v446h144v-153zM200 102h59q31 0 44 12q14 12 14 34q0 21 -14 32q-13 11 -43 11h-60v-89z" />
    <glyph glyph-name="afii10095" unicode="&#x44d;" horiz-adv-x="460" 
d="M38 12v134q50 -45 122 -45q48 0 76 18q29 17 40 57h-170v98h170q-13 36 -44 54q-28 17 -73 17q-68 0 -121 -46v131q68 31 145 31q115 0 179 -64q64 -66 64 -169q0 -113 -68 -181q-39 -39 -82.5 -50.5t-98.5 -11.5q-75 0 -139 27z" />
    <glyph glyph-name="afii10096" unicode="&#x44e;" horiz-adv-x="789" 
d="M200 285h56q12 62 54 104q70 72 186 72q120 0 191 -71q68 -68 68 -166q0 -105 -67 -172t-187 -67q-118 0 -184 62q-16 13 -36 45t-27 77h-54v-169h-144v446h144v-161zM496 339q-47 0 -77 -28q-35 -33 -35 -89q0 -49 31 -81q33 -34 81 -34q45 0 76 29q35 32 35 89
q0 51 -32 83q-31 31 -79 31z" />
    <glyph glyph-name="afii10097" unicode="&#x44f;" horiz-adv-x="492" 
d="M18 0l128 161q-45 7 -77 39q-34 33 -34 90q0 69 41 110q48 46 147 46h213v-446h-144v149h-14l-104 -149h-156zM292 243v101h-51q-32 0 -45 -11q-17 -12 -17 -41q0 -21 14 -35q16 -14 51 -14h48z" />
    <glyph glyph-name="afii10071" unicode="&#x451;" horiz-adv-x="547" 
d="M513 213v-15h-333q0 -48 27 -76t74 -28q36 0 58 13q2 1 6.5 4.5t12 12.5t12.5 20l136 -14q-25 -74 -86 -112q-53 -33 -141 -33q-114 0 -178 64q-67 67 -67 172t68 176q64 64 171 64q113 0 177 -67q63 -67 63 -181zM185 284h195q-8 32 -29 52q-27 25 -68 25q-44 0 -73 -29
q-20 -21 -25 -48zM88 600q0 33 22.5 55.5t55.5 22.5t55.5 -22.5t22.5 -55.5t-22.5 -55.5t-55.5 -22.5t-55.5 22.5t-22.5 55.5zM302 600q0 33 22.5 55.5t55.5 22.5t55.5 -22.5t22.5 -55.5t-22.5 -55.5t-55.5 -22.5t-55.5 22.5t-22.5 55.5z" />
    <glyph glyph-name="afii10099" unicode="&#x452;" horiz-adv-x="583" 
d="M70 0v502h-80v94h80v133h144v-133h192v-94h-192v-149q26 31 54 46q37 19 87 19q81 0 126 -45q44 -44 44 -130v-293q0 -100 -37 -137q-38 -42 -126 -42q-34 0 -80 10v114q14 -6 37 -6q29 0 45 16q17 17 17 73v211q0 65 -24 89q-20 20 -56 20q-35 0 -57 -22
q-30 -30 -30 -93v-183h-144z" />
    <glyph glyph-name="afii10100" unicode="&#x453;" horiz-adv-x="366" 
d="M56 0v446h300v-118h-156v-328h-144zM256 715l94 -65l-152 -135l-65 48z" />
    <glyph glyph-name="afii10101" unicode="&#x454;" horiz-adv-x="460" 
d="M422 146v-134q-64 -27 -139 -27q-35 0 -59.5 2.5t-59.5 17.5t-62 42q-68 68 -68 181q0 103 64 169q64 64 179 64q77 0 145 -31v-131q-53 46 -121 46q-45 0 -73 -17q-31 -18 -44 -54h170v-98h-170q11 -40 40 -57q28 -18 76 -18q72 0 122 45z" />
    <glyph glyph-name="afii10102" unicode="&#x455;" horiz-adv-x="434" 
d="M386 423l-57 -91q-44 25 -79 25q-28 0 -41 -13q-9 -9 -9 -20q0 -12 14 -20q6 -4 21.5 -8.5t21.5 -6.5l38 -12q48 -15 74 -39q35 -31 35 -85q0 -71 -46 -117q-51 -51 -145 -51q-109 0 -183 64l61 97q30 -24 49 -33q25 -14 60 -14q33 0 45 10q15 12 15 29q0 16 -16 26
q-4 3 -44 16l-36 11q-44 13 -72 41q-32 35 -32 81q0 65 43 103q49 45 135 45q83 0 148 -38z" />
    <glyph glyph-name="afii10103" unicode="&#x456;" horiz-adv-x="276" 
d="M66 446h144v-446h-144v446zM54 636q0 35 24.5 59.5t59.5 24.5t59.5 -24.5t24.5 -59.5t-24.5 -59.5t-59.5 -24.5t-59.5 24.5t-24.5 59.5z" />
    <glyph glyph-name="afii10104" unicode="&#x457;" horiz-adv-x="340" 
d="M97 446h144v-446h-144v446zM254 720q26 0 46 -21t20 -58t-20 -58t-46 -21t-46 21t-20 58t20 58t46 21zM86 720q26 0 46 -21t20 -58t-20 -58t-46 -21t-46 21t-20 58t20 58t46 21z" />
    <glyph glyph-name="afii10105" unicode="&#x458;" horiz-adv-x="276" 
d="M66 446h144v-675h-144v675zM54 636q0 35 24.5 59.5t59.5 24.5t59.5 -24.5t24.5 -59.5t-24.5 -59.5t-59.5 -24.5t-59.5 24.5t-24.5 59.5z" />
    <glyph glyph-name="afii10106" unicode="&#x459;" horiz-adv-x="779" 
d="M492 293h106q68 0 121 -42q36 -36 36 -101q0 -71 -40 -111q-40 -39 -123 -39h-244v330h-117v-137q0 -104 -44 -152q-43 -47 -123 -47q-31 0 -56 7v114q45 -12 69 13q18 24 18 71v247h397v-153zM492 102h59q31 0 44 12q14 12 14 34q0 21 -14 32q-13 11 -43 11h-60v-89z
" />
    <glyph glyph-name="afii10107" unicode="&#x45a;" horiz-adv-x="792" 
d="M505 293h106q68 0 121 -42q36 -36 36 -101q0 -71 -40 -111q-40 -39 -123 -39h-244v191h-161v-191h-144v446h144v-153h161v153h144v-153zM505 102h59q31 0 44 12q14 12 14 34q0 21 -14 32q-13 11 -43 11h-60v-89z" />
    <glyph glyph-name="afii10108" unicode="&#x45b;" horiz-adv-x="581" 
d="M70 0v502h-80v94h80v133h144v-133h192v-94h-192v-149q26 31 54 46q37 19 87 19q81 0 126 -45q44 -44 44 -130v-243h-144v189q0 65 -24 89q-20 20 -56 20q-35 0 -57 -22q-30 -30 -30 -93v-183h-144z" />
    <glyph glyph-name="afii10109" unicode="&#x45c;" horiz-adv-x="540" 
d="M56 0v446h144v-177l146 177h179l-191 -207l204 -239h-186l-152 198v-198h-144zM331 715l94 -65l-152 -135l-65 48z" />
    <glyph glyph-name="afii10110" unicode="&#x45e;" horiz-adv-x="585" 
d="M58 -229l157 286l-213 389h166l126 -242l123 242h162l-359 -675h-162zM386 665l100 -39q-18 -54 -64 -85q-44 -28 -117 -28t-117 28q-46 31 -64 85l100 39q6 -29 26 -46q21 -18 55 -18t55 18q20 17 26 46z" />
    <glyph glyph-name="afii10193" unicode="&#x45f;" horiz-adv-x="552" 
d="M56 0v446h144v-330h152v330h144v-446h-156v-136h-128v136h-156z" />
    <glyph glyph-name="afii10146" unicode="&#x462;" horiz-adv-x="641" 
d="M128 0v481h-120v120h120v113h154v-113h166v-120h-166v-74h94q124 0 183 -56q56 -53 56 -148q0 -97 -54 -147q-59 -56 -190 -56h-243zM282 283v-159h68q55 0 80 18q29 19 29 62q0 46 -28 63q-22 16 -80 16h-69z" />
    <glyph glyph-name="afii10194" unicode="&#x463;" horiz-adv-x="533" 
d="M246 352v-65h106q68 0 121 -42q36 -36 36 -101t-40 -105q-40 -39 -123 -39h-244v352h-96v94h96v221h144v-221h154v-94h-154zM246 102h59q31 0 44 12q14 12 14 34q0 21 -14 32q-13 11 -43 11h-60v-89z" />
    <glyph glyph-name="afii10147" unicode="&#x472;" horiz-adv-x="810" 
d="M406 682q158 0 258 -97q104 -99 104 -252q0 -147 -104 -250q-103 -98 -258 -98q-156 0 -260 98q-49 46 -76.5 110.5t-27.5 137.5q0 70 28.5 138.5t74.5 114.5q98 98 261 98zM210 399h390q-16 63 -69 104q-50 37 -127 37q-76 0 -129 -43q-47 -37 -65 -98zM601 269h-393
q21 -68 66 -102q50 -40 132 -40q79 0 129 38q51 39 66 104z" />
    <glyph glyph-name="afii10195" unicode="&#x473;" horiz-adv-x="592" 
d="M558 223q0 -99 -67 -166q-72 -72 -195 -72t-195 72q-67 67 -67 166t67 166q72 72 195 72t195 -72q67 -67 67 -166zM189 266h214q-14 39 -36 57q-27 22 -71 22q-50 0 -79 -29q-19 -19 -28 -50zM405 188h-218q0 -7 8.5 -26t24.5 -35q30 -26 76 -26q43 0 72 23q28 24 37 64z
" />
    <glyph glyph-name="afii10148" unicode="&#x474;" horiz-adv-x="678" 
d="M4 667h166l169 -427l169 427h166l-283 -667h-104z" />
    <glyph glyph-name="afii10196" unicode="&#x475;" horiz-adv-x="546" 
d="M2 446h158l113 -239l113 239h158l-226 -446h-90z" />
    <glyph glyph-name="afii10050" unicode="&#x490;" horiz-adv-x="482" 
d="M73 667h256v150h138v-279v-1h-240v-537h-154v667z" />
    <glyph glyph-name="afii10098" unicode="&#x491;" horiz-adv-x="411" 
d="M56 0v446h212v126h128v-244h-196v-328h-144z" />
    <glyph glyph-name="uni0492" unicode="&#x492;" horiz-adv-x="502" 
d="M472 667v-130h-220v-129h162v-124h-162v-284h-154v284h-98v124h98v259h374z" />
    <glyph glyph-name="uni0493" unicode="&#x493;" horiz-adv-x="388" 
d="M78 0v142h-73v96h73v208h300v-118h-156v-90h107v-96h-107v-142h-144z" />
    <glyph glyph-name="uni0494" unicode="&#x494;" horiz-adv-x="611" 
d="M467 667v-130h-240v-145q57 23 117 23q86 0 144 -31q97 -52 97 -181q0 -119 -81 -172q-55 -37 -156 -37q-19 0 -57 6v122q27 -6 54 -6q36 0 56 16q26 21 26 66q0 56 -37 75q-10 5 -25.5 8t-26 4t-11.5 0q-13 0 -27.5 -2t-26.5 -5.5t-20.5 -6t-16.5 -6t-9 -3.5v-262h-154
v667h394z" />
    <glyph glyph-name="uni0495" unicode="&#x495;" horiz-adv-x="484" 
d="M56 0v446h300v-118h-156v-90h14q63 0 108 -12.5t79 -47.5q53 -57 53 -142q0 -106 -70 -176q-68 -63 -175 -68v112q37 3 67 31q34 34 34 91q0 49 -29 78q-26 24 -76 24h-5v-128h-144z" />
    <glyph glyph-name="uni0496" unicode="&#x496;" horiz-adv-x="942" 
d="M393 0v299l-201 -299h-186l250 346l-236 321h176l197 -286v286h154v-286l197 286h176l-236 -321l158 -216h90v-280h-138v150h-45l-202 299v-299h-154z" />
    <glyph glyph-name="uni0497" unicode="&#x497;" horiz-adv-x="767" 
d="M311 446h140v-179l127 179h164l-162 -209l88 -121h79v-242h-128v126h-35l-133 193v-193h-140v193l-133 -193h-176l180 237l-162 209h164l127 -179v179z" />
    <glyph glyph-name="uni0498" unicode="&#x498;" horiz-adv-x="590" 
d="M128 489l-68 118q40 33 91 51q64 24 130 24q118 0 179 -61q51 -48 51 -131q0 -50 -26 -87q-23 -33 -64 -49q51 -15 82 -47q45 -45 45 -117q0 -78 -54 -136q-53 -57 -133 -64v-156h-138v154q-104 12 -193 96l86 113q34 -37 68 -55q41 -21 91 -21q48 0 77 20q32 22 32 62
q0 31 -24 53q-32 25 -127 25h-25v124h23q82 0 110 26q19 16 19 45q0 32 -27 52q-24 18 -70 18q-43 0 -75 -17q-30 -13 -60 -40z" />
    <glyph glyph-name="uni0499" unicode="&#x499;" horiz-adv-x="463" 
d="M96 312l-55 96q36 23 74 37q47 16 105 16q92 0 139 -37q45 -37 45 -96q0 -43 -27 -71q-17 -17 -38 -25q36 -8 60 -32q30 -30 30 -73q0 -55 -39 -94q-36 -37 -95 -43v-126h-128v125q-80 9 -143 63l61 95q25 -23 55 -36q33 -14 69 -14q31 0 52 11q20 13 20 34q0 20 -21 30
q-19 8 -52 8h-54v98h41q37 0 54 8q21 10 21 30t-22 29q-19 8 -45 8q-31 0 -59 -12q-27 -12 -48 -29z" />
    <glyph glyph-name="uni049A" unicode="&#x49a;" horiz-adv-x="654" 
d="M227 667v-278l228 278h188l-270 -316l181 -221h90v-280h-138v150h-40l-239 296v-296h-154v667h154z" />
    <glyph glyph-name="uni049B" unicode="&#x49b;" horiz-adv-x="527" 
d="M56 0v446h144v-177l146 177h179l-191 -207l105 -123h79v-242h-128v126h-38l-152 198v-198h-144z" />
    <glyph glyph-name="uni049C" unicode="&#x49c;" horiz-adv-x="771" 
d="M73 667h154v-266h59v150h104v-150l188 266h174l-229 -312l242 -355h-184l-191 299v-155h-104v155h-59v-299h-154v667z" />
    <glyph glyph-name="uni049D" unicode="&#x49d;" horiz-adv-x="614" 
d="M56 446h144v-175h48v99h82v-104l118 180h158l-155 -210l161 -236h-164l-118 194v-120h-82v113h-48v-187h-144v446z" />
    <glyph glyph-name="uni04A0" unicode="&#x4a0;" horiz-adv-x="747" 
d="M304 667v-278l228 278h188l-270 -316l291 -351h-198l-239 296v-296h-154v537h-144v130h298z" />
    <glyph glyph-name="uni04A1" unicode="&#x4a1;" horiz-adv-x="600" 
d="M116 0v328h-110v118h254v-177l146 177h179l-191 -207l204 -239h-186l-152 198v-198h-144z" />
    <glyph glyph-name="uni04A2" unicode="&#x4a2;" horiz-adv-x="747" 
d="M227 667v-254h266v254h154v-537h90v-280h-138v150h-106v283h-266v-283h-154v667h154z" />
    <glyph glyph-name="uni04A3" unicode="&#x4a3;" horiz-adv-x="584" 
d="M56 0v446h144v-155h161v155h144v-330h73v-242h-128v126h-89v175h-161v-175h-144z" />
    <glyph glyph-name="uni04A4" unicode="&#x4a4;" horiz-adv-x="864" 
d="M852 667v-130h-205v-537h-154v283h-266v-283h-154v667h154v-254h266v254h359z" />
    <glyph glyph-name="uni04A5" unicode="&#x4a5;" horiz-adv-x="655" 
d="M361 0v175h-161v-175h-144v446h144v-155h161v155h286v-118h-142v-328h-144z" />
    <glyph glyph-name="uni04AA" unicode="&#x4aa;" horiz-adv-x="605" 
d="M555 198v-177q-41 -21 -84 -30v-157h-138v157q-110 15 -187 91q-104 102 -104 253q0 149 104 251q101 96 249 96q74 0 160 -37v-178q-69 71 -156 71q-83 0 -136 -52q-63 -61 -63 -154t58 -147q56 -56 144 -56q84 0 153 69z" />
    <glyph glyph-name="uni04AB" unicode="&#x4ab;" horiz-adv-x="431" 
d="M391 436v-131q-41 34 -94 34q-50 0 -82 -32q-33 -33 -33 -84q0 -50 30 -80q34 -36 87 -36q51 0 92 35v-130q-25 -16 -50 -20v-128h-128v129q-63 13 -109 59q-70 70 -70 170q0 107 74 176q68 63 170 63q62 0 113 -25z" />
    <glyph glyph-name="uni04AE" unicode="&#x4ae;" horiz-adv-x="632" 
d="M239 0v311l-239 356h182l134 -207l134 207h182l-239 -356v-311h-154z" />
    <glyph glyph-name="uni04AF" unicode="&#x4af;" horiz-adv-x="520" 
d="M2 446h152l106 -247l106 247h152l-186 -395v-280h-144v279z" />
    <glyph glyph-name="uni04B0" unicode="&#x4b0;" horiz-adv-x="632" 
d="M239 0v179h-179v120h179v12l-239 356h182l134 -207l134 207h182l-239 -356v-12h179v-120h-179v-179h-154z" />
    <glyph glyph-name="uni04B1" unicode="&#x4b1;" horiz-adv-x="520" 
d="M2 446h152l106 -247l106 247h152l-186 -395v-30h140v-100h-140v-150h-144v150h-139v100h139v29z" />
    <glyph glyph-name="uni04B2" unicode="&#x4b2;" horiz-adv-x="684" 
d="M10 0l245 354l-207 313h185l110 -190l110 190h185l-207 -313l153 -224h90v-280h-138v150h-45l-148 231l-148 -231h-185z" />
    <glyph glyph-name="uni04B3" unicode="&#x4b3;" horiz-adv-x="595" 
d="M2 0l218 243l-177 203h184l83 -103l83 103h184l-177 -203l114 -127h79v-242h-128v126h-37l-118 144l-122 -144h-186z" />
    <glyph glyph-name="uni04B6" unicode="&#x4b6;" horiz-adv-x="673" 
d="M202 667v-174q0 -58 29 -81q27 -22 97 -22q54 0 91 8v269h154v-537h90v-280h-138v150h-106v266q-50 -10 -113 -10q-146 0 -207 59q-51 48 -51 147v205h154z" />
    <glyph glyph-name="uni04B7" unicode="&#x4b7;" horiz-adv-x="541" 
d="M407 0h-89v150q-44 -11 -90 -11q-101 0 -147 43q-41 39 -41 115v149h142v-129q0 -33 18 -49q17 -15 58 -15q34 0 60 9v184h144v-330h73v-242h-128v126z" />
    <glyph glyph-name="uni04B8" unicode="&#x4b8;" horiz-adv-x="701" 
d="M474 0v274q-43 -8 -77 -8v-141h-104v139q-133 0 -195 62q-50 50 -50 141v200h154v-174q0 -57 23 -83q28 -28 68 -24v165h104v-166q38 -2 77 6v276h154v-667h-154z" />
    <glyph glyph-name="uni04B9" unicode="&#x4b9;" horiz-adv-x="573" 
d="M373 0v162q-29 -6 -52 -7v-88h-82v82q-43 -2 -87 9t-72 36q-40 35 -40 99v153h140v-134q0 -33 18 -49q16 -13 41 -13v115h82v-115q22 0 52 7v189h144v-446h-144z" />
    <glyph glyph-name="uni04BA" unicode="&#x4ba;" horiz-adv-x="656" 
d="M227 667v-255q72 10 133 10q138 0 198 -56q50 -48 50 -136v-230h-154v183q0 58 -24 82q-27 27 -105 27q-58 0 -98 -8v-284h-154v667h154z" />
    <glyph glyph-name="uni04BB" unicode="&#x4bb;" horiz-adv-x="571" 
d="M60 0v729h144v-336q26 31 54 46q37 19 87 19q81 0 126 -45q44 -44 44 -130v-283h-144v229q0 65 -24 89q-20 20 -56 20q-35 0 -57 -22q-30 -30 -30 -93v-223h-144z" />
    <glyph glyph-name="uni04C0" unicode="&#x4c0;" horiz-adv-x="306" 
d="M76 667h154v-667h-154v667z" />
    <glyph glyph-name="uni04C1" unicode="&#x4c1;" horiz-adv-x="941" 
d="M393 0v299l-201 -299h-186l250 346l-236 321h176l197 -286v286h154v-286l197 286h176l-236 -321l251 -346h-186l-202 299v-299h-154zM563 887l106 -45q-25 -59 -76 -90q-47 -28 -123 -28q-75 0 -122 28q-51 31 -76 90l106 45q11 -29 33 -48q23 -17 61 -17q36 0 59 17
q23 18 32 48z" />
    <glyph glyph-name="uni04C2" unicode="&#x4c2;" horiz-adv-x="762" 
d="M311 446h140v-179l127 179h164l-162 -209l180 -237h-176l-133 193v-193h-140v193l-133 -193h-176l180 237l-162 209h164l127 -179v179zM462 665l100 -39q-18 -54 -64 -85q-44 -28 -117 -28t-117 28q-46 31 -64 85l100 39q6 -29 26 -46q21 -18 55 -18t55 18q20 17 26 46z
" />
    <glyph glyph-name="uni04C3" unicode="&#x4c3;" horiz-adv-x="643" 
d="M227 667v-278l228 278h182l-231 -267q97 0 156 -59q50 -50 50 -135q0 -97 -54 -155q-55 -58 -150 -58q-47 0 -92 17l17 118q19 -13 46 -13q38 0 58 25q17 21 17 54q0 47 -31 72q-32 25 -92 25q-51 0 -104 -12v-279h-154v667h154z" />
    <glyph glyph-name="uni04C4" unicode="&#x4c4;" horiz-adv-x="511" 
d="M56 0v446h144v-177l138 177h171l-187 -221q69 -10 110 -55q48 -49 48 -134q0 -110 -70 -176q-68 -63 -175 -68v112q37 2 67 32q34 34 34 90q0 52 -31 83q-29 29 -80 29h-25v-138h-144z" />
    <glyph glyph-name="uni04C7" unicode="&#x4c7;" horiz-adv-x="720" 
d="M227 667v-254h266v254h154v-736q0 -86 -40 -123q-37 -37 -128 -37q-48 0 -84 10v116q15 -8 38 -8q33 0 46 15q14 14 14 57v322h-266v-283h-154v667h154z" />
    <glyph glyph-name="uni04C8" unicode="&#x4c8;" horiz-adv-x="561" 
d="M56 0v446h144v-155h161v155h144v-496q0 -100 -37 -137q-38 -42 -126 -42q-34 0 -80 10v114q14 -6 37 -6q29 0 45 16q17 17 17 73v197h-161v-175h-144z" />
    <glyph glyph-name="uni04D0" unicode="&#x4d0;" horiz-adv-x="677" 
d="M515 0l-50 126h-252l-51 -126h-160l269 667h141l263 -667h-160zM258 244h165l-82 224zM431 887l106 -45q-25 -59 -76 -90q-47 -28 -123 -28q-75 0 -122 28q-51 31 -76 90l106 45q11 -29 33 -48q23 -17 61 -17q36 0 59 17q23 18 32 48z" />
    <glyph glyph-name="uni04D1" unicode="&#x4d1;" horiz-adv-x="598" 
d="M398 396v50h144v-446h-144v54q-45 -69 -132 -69q-103 0 -167 68q-65 71 -65 167q0 111 69 180q61 61 155 61t140 -65zM294 337q-47 0 -79 -32q-33 -33 -33 -81q0 -45 30 -80q33 -35 85 -35q44 0 75 31q35 35 35 84q0 51 -33 82q-34 31 -80 31zM380 665l100 -39
q-18 -54 -64 -85q-44 -28 -117 -28t-117 28q-46 31 -64 85l100 39q6 -29 26 -46q21 -18 55 -18t55 18q20 17 26 46z" />
    <glyph glyph-name="uni04D2" unicode="&#x4d2;" horiz-adv-x="677" 
d="M515 0l-50 126h-252l-51 -126h-160l269 667h141l263 -667h-160zM258 244h165l-82 224zM150 811q0 32 23.5 55.5t55.5 23.5t55.5 -23.5t23.5 -55.5t-23.5 -55.5t-55.5 -23.5t-55.5 23.5t-23.5 55.5zM368 811q0 32 23.5 55.5t55.5 23.5t55.5 -23.5t23.5 -55.5t-23.5 -55.5
t-55.5 -23.5t-55.5 23.5t-23.5 55.5z" />
    <glyph glyph-name="uni04D3" unicode="&#x4d3;" horiz-adv-x="598" 
d="M398 396v50h144v-446h-144v54q-45 -69 -132 -69q-103 0 -167 68q-65 71 -65 167q0 111 69 180q61 61 155 61t140 -65zM294 337q-47 0 -79 -32q-33 -33 -33 -81q0 -45 30 -80q33 -35 85 -35q44 0 75 31q35 35 35 84q0 51 -33 82q-34 31 -80 31zM329 599q0 32 23.5 55.5
t55.5 23.5t55.5 -23.5t23.5 -55.5t-23.5 -55.5t-55.5 -23.5t-55.5 23.5t-23.5 55.5zM111 599q0 32 23.5 55.5t55.5 23.5t55.5 -23.5t23.5 -55.5t-23.5 -55.5t-55.5 -23.5t-55.5 23.5t-23.5 55.5z" />
    <glyph glyph-name="uni04D4" unicode="&#x4d4;" horiz-adv-x="920" 
d="M522 0l-51 129h-255l-50 -129h-160l273 667h144h235l48 -130h-232l51 -129h230l50 -130h-231l59 -148h232l49 -130h-232h-160zM261 247h168l-82 219z" />
    <glyph glyph-name="uni04D5" unicode="&#x4d5;" horiz-adv-x="840" 
d="M666 144l135 -9q-26 -75 -87 -116q-52 -34 -136 -34q-72 0 -109 20q-32 16 -64 53q-30 -39 -75 -57q-38 -16 -107 -16q-101 0 -150 49q-39 39 -39 100q0 56 37 93q52 52 157 52q60 0 105 -27v9q0 40 -26 66q-28 28 -87 28q-49 0 -115 -22v110q65 18 131 18q117 0 165 -77
q60 77 171 77t174 -68q60 -65 60 -181v-14h-326q1 -45 30 -77q24 -28 73 -28q30 0 51 12q23 14 32 39zM247 191q-43 0 -66 -23q-13 -13 -13 -31t13 -31q23 -23 65 -23q47 0 70 23q13 13 13 31t-13 31q-23 23 -69 23zM484 284h187q-6 32 -29 54q-25 23 -64 23t-62 -21
t-32 -56z" />
    <glyph glyph-name="uni04D6" unicode="&#x4d6;" horiz-adv-x="502" 
d="M450 667v-130h-223v-129h212v-130h-212v-148h223v-130h-377v667h377zM349 887l106 -45q-25 -59 -76 -90q-47 -28 -123 -28q-75 0 -122 28q-51 31 -76 90l106 45q11 -29 33 -48q23 -17 61 -17q36 0 59 17q23 18 32 48z" />
    <glyph glyph-name="uni04D7" unicode="&#x4d7;" horiz-adv-x="547" 
d="M185 284h195q-8 32 -29 52q-27 25 -68 25q-44 0 -73 -29q-20 -21 -25 -48zM513 213v-15h-333q0 -48 27 -76t74 -28q36 0 58 13q2 1 6.5 4.5t12 12.5t12.5 20l136 -14q-25 -74 -86 -112q-53 -33 -141 -33q-114 0 -178 64q-67 67 -67 172t68 176q64 64 171 64
q113 0 177 -67q63 -67 63 -181zM354 665l100 -39q-18 -54 -64 -85q-44 -28 -117 -28t-117 28q-46 31 -64 85l100 39q6 -29 26 -46q21 -18 55 -18t55 18q20 17 26 46z" />
    <glyph glyph-name="uni04D8" unicode="&#x4d8;" horiz-adv-x="765" 
d="M42 375h520q0 15 -12.5 50.5t-39.5 64.5q-49 50 -134 50q-58 0 -100 -23q-39 -21 -66 -65l-142 55q45 77 115 122q84 53 206 53q147 0 237 -90q97 -97 97 -255q0 -167 -102 -265q-52 -50 -109 -68.5t-130 -18.5q-74 0 -127 18.5t-100 66.5q-58 58 -85.5 142t-27.5 159v4z
M559 267h-346q7 -57 44 -97q43 -47 127 -47q75 0 122 42q44 40 53 102z" />
    <glyph glyph-name="afii10846" unicode="&#x4d9;" horiz-adv-x="547" 
d="M362 168h-195q6 -33 29 -55q25 -25 69 -25t72 29q20 20 25 51zM34 233v18h332q0 43 -26 72q-27 29 -72 29q-40 0 -60 -13q-2 -1 -6.5 -4.5t-12 -12.5t-12.5 -20l-136 14q24 75 86 112q51 33 142 33q113 0 177 -64q67 -69 67 -170q0 -110 -68 -178q-64 -64 -173 -64
q-112 0 -175 67t-63 181z" />
    <glyph glyph-name="uni04DA" unicode="&#x4da;" horiz-adv-x="765" 
d="M42 375h520q0 15 -12.5 50.5t-39.5 64.5q-49 50 -134 50q-58 0 -100 -23q-39 -21 -66 -65l-142 55q45 77 115 122q84 53 206 53q147 0 237 -90q97 -97 97 -255q0 -167 -102 -265q-52 -50 -109 -68.5t-130 -18.5q-74 0 -127 18.5t-100 66.5q-58 58 -85.5 142t-27.5 159v4z
M559 267h-346q7 -57 44 -97q43 -47 127 -47q75 0 122 42q44 40 53 102zM194 811q0 32 23.5 55.5t55.5 23.5t55.5 -23.5t23.5 -55.5t-23.5 -55.5t-55.5 -23.5t-55.5 23.5t-23.5 55.5zM412 811q0 32 23.5 55.5t55.5 23.5t55.5 -23.5t23.5 -55.5t-23.5 -55.5t-55.5 -23.5
t-55.5 23.5t-23.5 55.5z" />
    <glyph glyph-name="uni04DB" unicode="&#x4db;" horiz-adv-x="547" 
d="M362 168h-195q6 -33 29 -55q25 -25 69 -25t72 29q20 20 25 51zM34 233v18h332q0 43 -26 72q-27 29 -72 29q-40 0 -60 -13q-2 -1 -6.5 -4.5t-12 -12.5t-12.5 -20l-136 14q24 75 86 112q51 33 142 33q113 0 177 -64q67 -69 67 -170q0 -110 -68 -178q-64 -64 -173 -64
q-112 0 -175 67t-63 181zM303 599q0 32 23.5 55.5t55.5 23.5t55.5 -23.5t23.5 -55.5t-23.5 -55.5t-55.5 -23.5t-55.5 23.5t-23.5 55.5zM85 599q0 32 23.5 55.5t55.5 23.5t55.5 -23.5t23.5 -55.5t-23.5 -55.5t-55.5 -23.5t-55.5 23.5t-23.5 55.5z" />
    <glyph glyph-name="uni04DC" unicode="&#x4dc;" horiz-adv-x="941" 
d="M393 0v299l-201 -299h-186l250 346l-236 321h176l197 -286v286h154v-286l197 286h176l-236 -321l251 -346h-186l-202 299v-299h-154zM282 811q0 32 23.5 55.5t55.5 23.5t55.5 -23.5t23.5 -55.5t-23.5 -55.5t-55.5 -23.5t-55.5 23.5t-23.5 55.5zM500 811q0 32 23.5 55.5
t55.5 23.5t55.5 -23.5t23.5 -55.5t-23.5 -55.5t-55.5 -23.5t-55.5 23.5t-23.5 55.5z" />
    <glyph glyph-name="uni04DD" unicode="&#x4dd;" horiz-adv-x="762" 
d="M311 446h140v-179l127 179h164l-162 -209l180 -237h-176l-133 193v-193h-140v193l-133 -193h-176l180 237l-162 209h164l127 -179v179zM411 599q0 32 23.5 55.5t55.5 23.5t55.5 -23.5t23.5 -55.5t-23.5 -55.5t-55.5 -23.5t-55.5 23.5t-23.5 55.5zM193 599q0 32 23.5 55.5
t55.5 23.5t55.5 -23.5t23.5 -55.5t-23.5 -55.5t-55.5 -23.5t-55.5 23.5t-23.5 55.5z" />
    <glyph glyph-name="uni04DE" unicode="&#x4de;" horiz-adv-x="590" 
d="M128 489l-68 118q40 33 91 51q64 24 130 24q118 0 179 -61q51 -48 51 -131q0 -50 -26 -87q-23 -33 -64 -49q51 -15 82 -47q45 -45 45 -119q0 -78 -54 -134q-66 -69 -201 -69q-96 0 -160 29q-52 22 -103 70l86 113q34 -37 68 -55q41 -21 91 -21q48 0 77 20q32 22 32 62
q0 31 -24 53q-32 25 -127 25h-25v124h23q82 0 110 26q19 16 19 45q0 32 -27 52q-24 18 -70 18q-43 0 -75 -17q-30 -13 -60 -40zM92 811q0 32 23.5 55.5t55.5 23.5t55.5 -23.5t23.5 -55.5t-23.5 -55.5t-55.5 -23.5t-55.5 23.5t-23.5 55.5zM310 811q0 32 23.5 55.5t55.5 23.5
t55.5 -23.5t23.5 -55.5t-23.5 -55.5t-55.5 -23.5t-55.5 23.5t-23.5 55.5z" />
    <glyph glyph-name="uni04DF" unicode="&#x4df;" horiz-adv-x="463" 
d="M96 312l-55 96q36 23 74 37q47 16 105 16q103 0 151 -46q33 -32 33 -82q0 -49 -27 -76q-17 -17 -38 -25q37 -9 60 -32q30 -27 30 -74q0 -54 -39 -93q-51 -48 -164 -48q-69 0 -122 20q-49 19 -80 47l61 95q25 -23 55 -36q33 -14 69 -14q31 0 52 11q20 13 20 34
q0 20 -21 30q-19 8 -52 8h-54v98h41q37 0 54 8q21 10 21 30t-22 29q-19 8 -45 8q-31 0 -59 -12q-27 -12 -48 -29zM255 599q0 32 23.5 55.5t55.5 23.5t55.5 -23.5t23.5 -55.5t-23.5 -55.5t-55.5 -23.5t-55.5 23.5t-23.5 55.5zM37 599q0 32 23.5 55.5t55.5 23.5t55.5 -23.5
t23.5 -55.5t-23.5 -55.5t-55.5 -23.5t-55.5 23.5t-23.5 55.5z" />
    <glyph glyph-name="uni04E2" unicode="&#x4e2;" horiz-adv-x="745" 
d="M73 667h154v-436l309 444h136v-675h-154v437l-309 -445h-136v675zM174 753v92h388v-92h-388z" />
    <glyph glyph-name="uni04E3" unicode="&#x4e3;" horiz-adv-x="580" 
d="M56 446h144v-255l190 255h134v-446h-144v259l-190 -259h-134v446zM100 543v90h380v-90h-380z" />
    <glyph glyph-name="uni04E4" unicode="&#x4e4;" horiz-adv-x="745" 
d="M73 667h154v-436l309 444h136v-675h-154v437l-309 -445h-136v675zM188 811q0 32 23.5 55.5t55.5 23.5t55.5 -23.5t23.5 -55.5t-23.5 -55.5t-55.5 -23.5t-55.5 23.5t-23.5 55.5zM406 811q0 32 23.5 55.5t55.5 23.5t55.5 -23.5t23.5 -55.5t-23.5 -55.5t-55.5 -23.5
t-55.5 23.5t-23.5 55.5z" />
    <glyph glyph-name="uni04E5" unicode="&#x4e5;" horiz-adv-x="580" 
d="M56 446h144v-255l190 255h134v-446h-144v259l-190 -259h-134v446zM320 599q0 32 23.5 55.5t55.5 23.5t55.5 -23.5t23.5 -55.5t-23.5 -55.5t-55.5 -23.5t-55.5 23.5t-23.5 55.5zM102 599q0 32 23.5 55.5t55.5 23.5t55.5 -23.5t23.5 -55.5t-23.5 -55.5t-55.5 -23.5
t-55.5 23.5t-23.5 55.5z" />
    <glyph glyph-name="uni04E6" unicode="&#x4e6;" horiz-adv-x="810" 
d="M406 682q158 0 258 -97q104 -99 104 -252q0 -147 -104 -250q-103 -98 -258 -98q-156 0 -260 98q-49 46 -76.5 110.5t-27.5 137.5q0 70 28.5 138.5t74.5 114.5q98 98 261 98zM405 540q-89 0 -146 -57q-59 -57 -59 -151q0 -90 61 -150q58 -55 143 -55q91 0 148 57
q58 54 58 149q0 92 -58 150q-59 57 -147 57zM217 811q0 32 23.5 55.5t55.5 23.5t55.5 -23.5t23.5 -55.5t-23.5 -55.5t-55.5 -23.5t-55.5 23.5t-23.5 55.5zM435 811q0 32 23.5 55.5t55.5 23.5t55.5 -23.5t23.5 -55.5t-23.5 -55.5t-55.5 -23.5t-55.5 23.5t-23.5 55.5z" />
    <glyph glyph-name="uni04E7" unicode="&#x4e7;" horiz-adv-x="592" 
d="M558 223q0 -99 -67 -166q-72 -72 -195 -72t-195 72q-67 67 -67 166t67 166q72 72 195 72t195 -72q67 -67 67 -166zM296 339q-49 0 -81 -32q-33 -33 -33 -84t33 -84q32 -32 82 -32q48 0 80 32q33 33 33 84t-33 84q-32 32 -81 32zM326 599q0 32 23.5 55.5t55.5 23.5
t55.5 -23.5t23.5 -55.5t-23.5 -55.5t-55.5 -23.5t-55.5 23.5t-23.5 55.5zM108 599q0 32 23.5 55.5t55.5 23.5t55.5 -23.5t23.5 -55.5t-23.5 -55.5t-55.5 -23.5t-55.5 23.5t-23.5 55.5z" />
    <glyph glyph-name="uni04E8" unicode="&#x4e8;" horiz-adv-x="810" 
d="M406 682q158 0 258 -97q104 -99 104 -252q0 -147 -104 -250q-103 -98 -258 -98q-156 0 -260 98q-49 46 -76.5 110.5t-27.5 137.5q0 70 28.5 138.5t74.5 114.5q98 98 261 98zM210 399h390q-16 63 -69 104q-50 37 -127 37q-76 0 -129 -43q-47 -37 -65 -98zM601 269h-393
q21 -68 66 -102q50 -40 132 -40q79 0 129 38q51 39 66 104z" />
    <glyph glyph-name="uni04E9" unicode="&#x4e9;" horiz-adv-x="592" 
d="M558 223q0 -99 -67 -166q-72 -72 -195 -72t-195 72q-67 67 -67 166t67 166q72 72 195 72t195 -72q67 -67 67 -166zM189 266h214q-14 39 -36 57q-27 22 -71 22q-50 0 -79 -29q-19 -19 -28 -50zM405 188h-218q0 -7 8.5 -26t24.5 -35q30 -26 76 -26q43 0 72 23q28 24 37 64z
" />
    <glyph glyph-name="uni04EA" unicode="&#x4ea;" horiz-adv-x="810" 
d="M406 682q158 0 258 -97q104 -99 104 -252q0 -147 -104 -250q-103 -98 -258 -98q-156 0 -260 98q-49 46 -76.5 110.5t-27.5 137.5q0 70 28.5 138.5t74.5 114.5q98 98 261 98zM210 399h390q-16 63 -69 104q-50 37 -127 37q-76 0 -129 -43q-47 -37 -65 -98zM601 269h-393
q21 -68 66 -102q50 -40 132 -40q79 0 129 38q51 39 66 104zM217 811q0 32 23.5 55.5t55.5 23.5t55.5 -23.5t23.5 -55.5t-23.5 -55.5t-55.5 -23.5t-55.5 23.5t-23.5 55.5zM435 811q0 32 23.5 55.5t55.5 23.5t55.5 -23.5t23.5 -55.5t-23.5 -55.5t-55.5 -23.5t-55.5 23.5
t-23.5 55.5z" />
    <glyph glyph-name="uni04EB" unicode="&#x4eb;" horiz-adv-x="592" 
d="M558 223q0 -99 -67 -166q-72 -72 -195 -72t-195 72q-67 67 -67 166t67 166q72 72 195 72t195 -72q67 -67 67 -166zM189 266h214q-14 39 -36 57q-27 22 -71 22q-50 0 -79 -29q-19 -19 -28 -50zM405 188h-218q0 -7 8.5 -26t24.5 -35q30 -26 76 -26q43 0 72 23q28 24 37 64z
M326 599q0 32 23.5 55.5t55.5 23.5t55.5 -23.5t23.5 -55.5t-23.5 -55.5t-55.5 -23.5t-55.5 23.5t-23.5 55.5zM108 599q0 32 23.5 55.5t55.5 23.5t55.5 -23.5t23.5 -55.5t-23.5 -55.5t-55.5 -23.5t-55.5 23.5t-23.5 55.5z" />
    <glyph glyph-name="uni04EE" unicode="&#x4ee;" horiz-adv-x="622" 
d="M4 667h172l140 -308l134 308h166l-305 -667h-166l97 192zM113 753v92h388v-92h-388z" />
    <glyph glyph-name="uni04EF" unicode="&#x4ef;" horiz-adv-x="585" 
d="M58 -229l157 286l-213 389h166l126 -242l123 242h162l-359 -675h-162zM94 543v90h380v-90h-380z" />
    <glyph glyph-name="uni04F0" unicode="&#x4f0;" horiz-adv-x="622" 
d="M4 667h172l140 -308l134 308h166l-305 -667h-166l97 192zM123 811q0 32 23.5 55.5t55.5 23.5t55.5 -23.5t23.5 -55.5t-23.5 -55.5t-55.5 -23.5t-55.5 23.5t-23.5 55.5zM341 811q0 32 23.5 55.5t55.5 23.5t55.5 -23.5t23.5 -55.5t-23.5 -55.5t-55.5 -23.5t-55.5 23.5
t-23.5 55.5z" />
    <glyph glyph-name="uni04F1" unicode="&#x4f1;" horiz-adv-x="585" 
d="M58 -229l157 286l-213 389h166l126 -242l123 242h162l-359 -675h-162zM322 599q0 32 23.5 55.5t55.5 23.5t55.5 -23.5t23.5 -55.5t-23.5 -55.5t-55.5 -23.5t-55.5 23.5t-23.5 55.5zM104 599q0 32 23.5 55.5t55.5 23.5t55.5 -23.5t23.5 -55.5t-23.5 -55.5t-55.5 -23.5
t-55.5 23.5t-23.5 55.5z" />
    <glyph glyph-name="uni04F2" unicode="&#x4f2;" horiz-adv-x="622" 
d="M4 667h172l140 -308l134 308h166l-305 -667h-166l97 192zM276 925l86 -66l-140 -135l-55 48zM462 925l87 -66l-140 -135l-56 48z" />
    <glyph glyph-name="uni04F3" unicode="&#x4f3;" horiz-adv-x="585" 
d="M58 -229l157 286l-213 389h166l126 -242l123 242h162l-359 -675h-162zM244 710l82 -66l-134 -135l-52 48zM424 709l83 -65l-134 -135l-53 48z" />
    <glyph glyph-name="uni04F4" unicode="&#x4f4;" horiz-adv-x="646" 
d="M419 0v266q-50 -10 -113 -10q-146 0 -207 59q-51 48 -51 147v205h154v-174q0 -58 29 -81q27 -22 97 -22q54 0 91 8v269h154v-667h-154zM135 811q0 32 23.5 55.5t55.5 23.5t55.5 -23.5t23.5 -55.5t-23.5 -55.5t-55.5 -23.5t-55.5 23.5t-23.5 55.5zM353 811q0 32 23.5 55.5
t55.5 23.5t55.5 -23.5t23.5 -55.5t-23.5 -55.5t-55.5 -23.5t-55.5 23.5t-23.5 55.5z" />
    <glyph glyph-name="uni04F5" unicode="&#x4f5;" horiz-adv-x="518" 
d="M318 0v150q-44 -11 -90 -11q-101 0 -147 43q-41 39 -41 115v149h142v-129q0 -33 18 -49q17 -15 58 -15q34 0 60 9v184h144v-446h-144zM289 599q0 32 23.5 55.5t55.5 23.5t55.5 -23.5t23.5 -55.5t-23.5 -55.5t-55.5 -23.5t-55.5 23.5t-23.5 55.5zM71 599q0 32 23.5 55.5
t55.5 23.5t55.5 -23.5t23.5 -55.5t-23.5 -55.5t-55.5 -23.5t-55.5 23.5t-23.5 55.5z" />
    <glyph glyph-name="uni04F8" unicode="&#x4f8;" horiz-adv-x="847" 
d="M620 667h154v-667h-154v667zM73 0v667h154v-260h92q124 0 183 -56q56 -53 56 -148q0 -97 -54 -147q-59 -56 -190 -56h-241zM227 283v-159h68q55 0 80 18q29 19 29 62q0 46 -28 63q-22 16 -80 16h-69zM231 811q0 32 23.5 55.5t55.5 23.5t55.5 -23.5t23.5 -55.5
t-23.5 -55.5t-55.5 -23.5t-55.5 23.5t-23.5 55.5zM449 811q0 32 23.5 55.5t55.5 23.5t55.5 -23.5t23.5 -55.5t-23.5 -55.5t-55.5 -23.5t-55.5 23.5t-23.5 55.5z" />
    <glyph glyph-name="uni04F9" unicode="&#x4f9;" horiz-adv-x="703" 
d="M505 446h142v-446h-142v446zM200 293h99q79 0 121 -42q37 -37 37 -102q0 -70 -40 -110q-40 -39 -123 -39h-238v446h144v-153zM200 102h59q31 0 44 12q14 12 14 34q0 21 -14 32q-13 11 -43 11h-60v-89zM369 599q0 32 23.5 55.5t55.5 23.5t55.5 -23.5t23.5 -55.5
t-23.5 -55.5t-55.5 -23.5t-55.5 23.5t-23.5 55.5zM151 599q0 32 23.5 55.5t55.5 23.5t55.5 -23.5t23.5 -55.5t-23.5 -55.5t-55.5 -23.5t-55.5 23.5t-23.5 55.5z" />
    <glyph glyph-name="uni1E9E" unicode="&#x1e9e;" horiz-adv-x="594" 
d="M225 0h-152v460q0 104 66 167q58 55 151 55q92 0 146 -39q73 -55 77 -157l-95 -112q65 -24 99 -66q35 -43 35 -112q0 -94 -77 -154q-64 -49 -187 -56v120q57 7 78 24q32 25 32 75q0 43 -35 68q-26 19 -75 24v92l73 100q0 33 -18 54q-19 19 -50 19q-34 0 -50 -22
q-18 -25 -18 -60v-480z" />
    <glyph glyph-name="uni2010" unicode="&#x2010;" horiz-adv-x="356" 
d="M50 190v126h256v-126h-256z" />
    <glyph glyph-name="uni2011" unicode="&#x2011;" horiz-adv-x="356" 
d="M50 190v126h256v-126h-256z" />
    <glyph glyph-name="figuredash" unicode="&#x2012;" horiz-adv-x="607" 
d="M70 282v118h467v-118h-467z" />
    <glyph glyph-name="endash" unicode="&#x2013;" horiz-adv-x="607" 
d="M70 194v118h467v-118h-467z" />
    <glyph glyph-name="emdash" unicode="&#x2014;" horiz-adv-x="874" 
d="M70 194v118h734v-118h-734z" />
    <glyph glyph-name="afii00208" unicode="&#x2015;" horiz-adv-x="874" 
d="M70 194v118h734v-118h-734z" />
    <glyph glyph-name="quoteleft" unicode="&#x2018;" horiz-adv-x="327" 
d="M283 667l-110 -282l-131 7l151 279z" />
    <glyph glyph-name="quoteright" unicode="&#x2019;" horiz-adv-x="394" 
d="M42 392l110 282l132 -7l-152 -279z" />
    <glyph glyph-name="quotesinglbase" unicode="&#x201a;" horiz-adv-x="394" 
d="M42 -128l110 282l132 -7l-152 -279z" />
    <glyph glyph-name="quotedblleft" unicode="&#x201c;" horiz-adv-x="535" 
d="M491 667l-111 -282l-131 7l152 279zM283 667l-110 -282l-131 7l151 279z" />
    <glyph glyph-name="quotedblright" unicode="&#x201d;" horiz-adv-x="613" 
d="M62 392l110 282l132 -7l-152 -279zM269 392l111 282l131 -7l-152 -279z" />
    <glyph glyph-name="quotedblbase" unicode="&#x201e;" horiz-adv-x="613" 
d="M52 -128l110 282l132 -7l-152 -279zM259 -128l111 282l131 -7l-152 -279z" />
    <glyph glyph-name="dagger" unicode="&#x2020;" horiz-adv-x="582" 
d="M225 527v202h132v-202h157v-116h-157v-595h-132v595h-157v116h157z" />
    <glyph glyph-name="daggerdbl" unicode="&#x2021;" horiz-adv-x="581" 
d="M225 527v202h131v-202h157v-116h-157v-229h157v-115h-157v-251h-131v251h-157v115h157v229h-157v116h157z" />
    <glyph glyph-name="bullet" unicode="&#x2022;" horiz-adv-x="1000" 
d="M360 340q0 58 41 99t99 41t99 -41t41 -99t-41 -99t-99 -41t-99 41t-41 99z" />
    <glyph glyph-name="ellipsis" unicode="&#x2026;" horiz-adv-x="894" 
d="M63 76q0 38 26.5 64.5t64.5 26.5t64.5 -26.5t26.5 -64.5t-26.5 -64.5t-64.5 -26.5t-64.5 26.5t-26.5 64.5zM356 76q0 38 26.5 64.5t64.5 26.5t64.5 -26.5t26.5 -64.5t-26.5 -64.5t-64.5 -26.5t-64.5 26.5t-26.5 64.5zM649 76q0 38 26.5 64.5t64.5 26.5t64.5 -26.5
t26.5 -64.5t-26.5 -64.5t-64.5 -26.5t-64.5 26.5t-26.5 64.5z" />
    <glyph glyph-name="perthousand" unicode="&#x2030;" horiz-adv-x="1245" 
d="M185 2l391 676l70 -15l-392 -677zM205 595q-36 0 -57 -23q-22 -22 -22 -58t22 -58q21 -23 57 -23t57 23q22 22 22 58t-22 58q-21 23 -57 23zM380 514q0 -69 -43 -112q-48 -50 -132 -50t-132 50q-43 43 -43 112t43 112q48 50 132 50t132 -50q43 -43 43 -112zM625 234
q-36 0 -57 -23q-22 -22 -22 -58t22 -58q21 -23 57 -23t57 23q22 22 22 58t-22 58q-21 23 -57 23zM800 153q0 -69 -43 -112q-48 -50 -132 -50t-132 50q-43 43 -43 112t43 112q48 50 132 50t132 -50q43 -43 43 -112zM1040 234q-36 0 -57 -23q-22 -22 -22 -58t22 -58
q21 -23 57 -23t57 23q22 22 22 58t-22 58q-21 23 -57 23zM1215 153q0 -69 -43 -112q-48 -50 -132 -50t-132 50q-43 43 -43 112t43 112q48 50 132 50t132 -50q43 -43 43 -112z" />
    <glyph glyph-name="guilsinglleft" unicode="&#x2039;" horiz-adv-x="326" 
d="M274 384l-116 -160l118 -159l-81 -57l-155 216l155 215z" />
    <glyph glyph-name="guilsinglright" unicode="&#x203a;" horiz-adv-x="326" 
d="M168 224l-116 160l79 55l155 -215l-155 -216l-81 57z" />
    <glyph glyph-name="fraction" unicode="&#x2044;" horiz-adv-x="258" 
d="M-100 10l390 668l68 -23l-390 -669z" />
    <glyph glyph-name="Euro" unicode="&#x20ac;" horiz-adv-x="600" 
d="M546 181v-153q-74 -43 -176 -43q-127 0 -204 59q-80 61 -99 169h-87l36 90h40q-2 27 0 57h-76l36 90h51q23 85 78 141q91 91 252 91q90 0 169 -39l-54 -129q-53 33 -124 33q-59 0 -104 -27q-39 -26 -53 -70h264l-36 -90h-243q-4 -26 1 -57h223l-36 -90h-170
q18 -48 56 -70q39 -23 100 -23q104 0 156 61z" />
    <glyph glyph-name="uni20B4" unicode="&#x20b4;" horiz-adv-x="600" 
d="M164 504l-69 112q40 26 91 44q66 22 140 22q98 0 146 -46q44 -42 44 -102q0 -44 -30 -82h74v-97h-143l-70 -63h213v-97h-304q-18 -13 -18 -32q0 -21 24 -32q21 -10 53 -10q58 0 90 14q23 10 58 31l73 -110q-43 -32 -98 -50q-62 -21 -152 -21t-140 36q-53 36 -53 99
q0 42 25 75h-81v97h155l70 63h-225v97h300q21 21 21 48q0 23 -18 38q-16 14 -51 14q-38 0 -78 -19q-27 -13 -47 -29z" />
    <glyph glyph-name="uni20B6" unicode="&#x20b6;" horiz-adv-x="600" 
d="M96 667h235q113 0 175 -55q65 -58 65 -162q0 -98 -57 -149q-58 -53 -170 -53h-94v-63h180v-97h-180v-88h-154v88h-72v97h72v63h-72v112h72v307zM250 541v-181h55q57 0 83 25q25 25 25 66q0 40 -25 65t-86 25h-52z" />
    <glyph glyph-name="uni20B6" unicode="&#x20cf;" horiz-adv-x="600" 
d="M96 667h235q113 0 175 -55q65 -58 65 -162q0 -98 -57 -149q-58 -53 -170 -53h-94v-63h180v-97h-180v-88h-154v88h-72v97h72v63h-72v112h72v307zM250 541v-181h55q57 0 83 25q25 25 25 66q0 40 -25 65t-86 25h-52z" />
    <glyph glyph-name="uni20B6" unicode="&#x20ce;" horiz-adv-x="600" 
d="M96 667h235q113 0 175 -55q65 -58 65 -162q0 -98 -57 -149q-58 -53 -170 -53h-94v-63h180v-97h-180v-88h-154v88h-72v97h72v63h-72v112h72v307zM250 541v-181h55q57 0 83 25q25 25 25 66q0 40 -25 65t-86 25h-52z" />
    <glyph glyph-name="uni20B6" unicode="&#x20cd;" horiz-adv-x="600" 
d="M96 667h235q113 0 175 -55q65 -58 65 -162q0 -98 -57 -149q-58 -53 -170 -53h-94v-63h180v-97h-180v-88h-154v88h-72v97h72v63h-72v112h72v307zM250 541v-181h55q57 0 83 25q25 25 25 66q0 40 -25 65t-86 25h-52z" />
    <glyph glyph-name="uni20B6" unicode="&#x20cc;" horiz-adv-x="600" 
d="M96 667h235q113 0 175 -55q65 -58 65 -162q0 -98 -57 -149q-58 -53 -170 -53h-94v-63h180v-97h-180v-88h-154v88h-72v97h72v63h-72v112h72v307zM250 541v-181h55q57 0 83 25q25 25 25 66q0 40 -25 65t-86 25h-52z" />
    <glyph glyph-name="uni20B6" unicode="&#x20cb;" horiz-adv-x="600" 
d="M96 667h235q113 0 175 -55q65 -58 65 -162q0 -98 -57 -149q-58 -53 -170 -53h-94v-63h180v-97h-180v-88h-154v88h-72v97h72v63h-72v112h72v307zM250 541v-181h55q57 0 83 25q25 25 25 66q0 40 -25 65t-86 25h-52z" />
    <glyph glyph-name="uni20B6" unicode="&#x20ca;" horiz-adv-x="600" 
d="M96 667h235q113 0 175 -55q65 -58 65 -162q0 -98 -57 -149q-58 -53 -170 -53h-94v-63h180v-97h-180v-88h-154v88h-72v97h72v63h-72v112h72v307zM250 541v-181h55q57 0 83 25q25 25 25 66q0 40 -25 65t-86 25h-52z" />
    <glyph glyph-name="uni20B6" unicode="&#x20c9;" horiz-adv-x="600" 
d="M96 667h235q113 0 175 -55q65 -58 65 -162q0 -98 -57 -149q-58 -53 -170 -53h-94v-63h180v-97h-180v-88h-154v88h-72v97h72v63h-72v112h72v307zM250 541v-181h55q57 0 83 25q25 25 25 66q0 40 -25 65t-86 25h-52z" />
    <glyph glyph-name="uni20B6" unicode="&#x20c8;" horiz-adv-x="600" 
d="M96 667h235q113 0 175 -55q65 -58 65 -162q0 -98 -57 -149q-58 -53 -170 -53h-94v-63h180v-97h-180v-88h-154v88h-72v97h72v63h-72v112h72v307zM250 541v-181h55q57 0 83 25q25 25 25 66q0 40 -25 65t-86 25h-52z" />
    <glyph glyph-name="uni20B6" unicode="&#x20c7;" horiz-adv-x="600" 
d="M96 667h235q113 0 175 -55q65 -58 65 -162q0 -98 -57 -149q-58 -53 -170 -53h-94v-63h180v-97h-180v-88h-154v88h-72v97h72v63h-72v112h72v307zM250 541v-181h55q57 0 83 25q25 25 25 66q0 40 -25 65t-86 25h-52z" />
    <glyph glyph-name="uni20B6" unicode="&#x20c6;" horiz-adv-x="600" 
d="M96 667h235q113 0 175 -55q65 -58 65 -162q0 -98 -57 -149q-58 -53 -170 -53h-94v-63h180v-97h-180v-88h-154v88h-72v97h72v63h-72v112h72v307zM250 541v-181h55q57 0 83 25q25 25 25 66q0 40 -25 65t-86 25h-52z" />
    <glyph glyph-name="uni20B6" unicode="&#x20c5;" horiz-adv-x="600" 
d="M96 667h235q113 0 175 -55q65 -58 65 -162q0 -98 -57 -149q-58 -53 -170 -53h-94v-63h180v-97h-180v-88h-154v88h-72v97h72v63h-72v112h72v307zM250 541v-181h55q57 0 83 25q25 25 25 66q0 40 -25 65t-86 25h-52z" />
    <glyph glyph-name="uni20B6" unicode="&#x20c4;" horiz-adv-x="600" 
d="M96 667h235q113 0 175 -55q65 -58 65 -162q0 -98 -57 -149q-58 -53 -170 -53h-94v-63h180v-97h-180v-88h-154v88h-72v97h72v63h-72v112h72v307zM250 541v-181h55q57 0 83 25q25 25 25 66q0 40 -25 65t-86 25h-52z" />
    <glyph glyph-name="uni20B6" unicode="&#x20c3;" horiz-adv-x="600" 
d="M96 667h235q113 0 175 -55q65 -58 65 -162q0 -98 -57 -149q-58 -53 -170 -53h-94v-63h180v-97h-180v-88h-154v88h-72v97h72v63h-72v112h72v307zM250 541v-181h55q57 0 83 25q25 25 25 66q0 40 -25 65t-86 25h-52z" />
    <glyph glyph-name="uni20B6" unicode="&#x20c2;" horiz-adv-x="600" 
d="M96 667h235q113 0 175 -55q65 -58 65 -162q0 -98 -57 -149q-58 -53 -170 -53h-94v-63h180v-97h-180v-88h-154v88h-72v97h72v63h-72v112h72v307zM250 541v-181h55q57 0 83 25q25 25 25 66q0 40 -25 65t-86 25h-52z" />
    <glyph glyph-name="uni20B6" unicode="&#x20c1;" horiz-adv-x="600" 
d="M96 667h235q113 0 175 -55q65 -58 65 -162q0 -98 -57 -149q-58 -53 -170 -53h-94v-63h180v-97h-180v-88h-154v88h-72v97h72v63h-72v112h72v307zM250 541v-181h55q57 0 83 25q25 25 25 66q0 40 -25 65t-86 25h-52z" />
    <glyph glyph-name="uni20B6" unicode="&#x20c0;" horiz-adv-x="600" 
d="M96 667h235q113 0 175 -55q65 -58 65 -162q0 -98 -57 -149q-58 -53 -170 -53h-94v-63h180v-97h-180v-88h-154v88h-72v97h72v63h-72v112h72v307zM250 541v-181h55q57 0 83 25q25 25 25 66q0 40 -25 65t-86 25h-52z" />
    <glyph glyph-name="uni20B6" unicode="&#x20bf;" horiz-adv-x="600" 
d="M96 667h235q113 0 175 -55q65 -58 65 -162q0 -98 -57 -149q-58 -53 -170 -53h-94v-63h180v-97h-180v-88h-154v88h-72v97h72v63h-72v112h72v307zM250 541v-181h55q57 0 83 25q25 25 25 66q0 40 -25 65t-86 25h-52z" />
    <glyph glyph-name="uni20B6" unicode="&#x20be;" horiz-adv-x="600" 
d="M96 667h235q113 0 175 -55q65 -58 65 -162q0 -98 -57 -149q-58 -53 -170 -53h-94v-63h180v-97h-180v-88h-154v88h-72v97h72v63h-72v112h72v307zM250 541v-181h55q57 0 83 25q25 25 25 66q0 40 -25 65t-86 25h-52z" />
    <glyph glyph-name="uni20B6" unicode="&#x20bd;" horiz-adv-x="600" 
d="M96 667h235q113 0 175 -55q65 -58 65 -162q0 -98 -57 -149q-58 -53 -170 -53h-94v-63h180v-97h-180v-88h-154v88h-72v97h72v63h-72v112h72v307zM250 541v-181h55q57 0 83 25q25 25 25 66q0 40 -25 65t-86 25h-52z" />
    <glyph glyph-name="uni20B6" unicode="&#x20bc;" horiz-adv-x="600" 
d="M96 667h235q113 0 175 -55q65 -58 65 -162q0 -98 -57 -149q-58 -53 -170 -53h-94v-63h180v-97h-180v-88h-154v88h-72v97h72v63h-72v112h72v307zM250 541v-181h55q57 0 83 25q25 25 25 66q0 40 -25 65t-86 25h-52z" />
    <glyph glyph-name="uni20B6" unicode="&#x20bb;" horiz-adv-x="600" 
d="M96 667h235q113 0 175 -55q65 -58 65 -162q0 -98 -57 -149q-58 -53 -170 -53h-94v-63h180v-97h-180v-88h-154v88h-72v97h72v63h-72v112h72v307zM250 541v-181h55q57 0 83 25q25 25 25 66q0 40 -25 65t-86 25h-52z" />
    <glyph glyph-name="uni20B6" unicode="&#x20ba;" horiz-adv-x="600" 
d="M96 667h235q113 0 175 -55q65 -58 65 -162q0 -98 -57 -149q-58 -53 -170 -53h-94v-63h180v-97h-180v-88h-154v88h-72v97h72v63h-72v112h72v307zM250 541v-181h55q57 0 83 25q25 25 25 66q0 40 -25 65t-86 25h-52z" />
    <glyph glyph-name="uni20B6" unicode="&#x20b9;" horiz-adv-x="600" 
d="M96 667h235q113 0 175 -55q65 -58 65 -162q0 -98 -57 -149q-58 -53 -170 -53h-94v-63h180v-97h-180v-88h-154v88h-72v97h72v63h-72v112h72v307zM250 541v-181h55q57 0 83 25q25 25 25 66q0 40 -25 65t-86 25h-52z" />
    <glyph glyph-name="uni20B6" unicode="&#x20b7;" horiz-adv-x="600" 
d="M96 667h235q113 0 175 -55q65 -58 65 -162q0 -98 -57 -149q-58 -53 -170 -53h-94v-63h180v-97h-180v-88h-154v88h-72v97h72v63h-72v112h72v307zM250 541v-181h55q57 0 83 25q25 25 25 66q0 40 -25 65t-86 25h-52z" />
    <glyph glyph-name="uni20B8" unicode="&#x20b8;" horiz-adv-x="600" 
d="M522 417h-146v-417h-154v417h-144v120h444v-120zM522 577h-444v90h444v-90z" />
    <glyph glyph-name="afii61352" unicode="&#x2116;" horiz-adv-x="1151" 
d="M787 195v90h300v-90h-300zM225 0h-152v667h132l335 -428v428h152v-667h-132l-335 430v-430zM1109 508q0 -65 -44 -109q-48 -48 -128 -48t-128 48q-44 44 -44 109q0 67 44 111q48 48 128 48t128 -48q44 -44 44 -111zM937 583q-31 0 -52 -21q-20 -20 -20 -53q0 -34 20 -54
t52 -20t52 20t20 54q0 33 -20 53q-21 21 -52 21z" />
    <glyph glyph-name="uni2117" unicode="&#x2117;" horiz-adv-x="761" 
d="M251 529h142q79 0 118 -40q33 -34 33 -89q0 -54 -31 -87q-36 -36 -119 -36h-35v-127h-108v379zM359 447v-88h15q33 0 50 12q14 13 14 33q0 19 -14 32q-15 11 -51 11h-14zM380 620q-49 0 -101 -21t-90 -57q-38 -37 -62 -93t-24 -115q0 -60 24 -116t62 -93q38 -36 90 -57
t101 -21t101 21t90 57q38 37 62 93t24 116q0 59 -24 115t-62 93q-38 36 -90 57t-101 21zM727 333q0 -146 -103 -249q-101 -99 -244 -99t-244 99q-103 103 -103 249q0 147 103 250q101 99 244 99t244 -99q103 -103 103 -250z" />
    <glyph glyph-name="trademark" unicode="&#x2122;" horiz-adv-x="766" 
d="M265 585h-82v-298h-94v298h-81v82h257v-82zM375 287h-94l65 380h83l82 -209l88 209h82l59 -380h-94l-28 208l-87 -208h-40l-85 208z" />
    <glyph glyph-name="partialdiff" unicode="&#x2202;" horiz-adv-x="561" 
d="M87 567l17 110q198 -15 308 -119q63 -59 89 -136t26 -147q0 -139 -76 -218q-65 -69 -175 -69q-105 0 -172 64q-70 67 -70 169q0 96 67 161q59 57 145 57q71 0 123 -40q-34 80 -106 120q-72 41 -176 48zM281 110q39 0 68 27q34 34 34 82q0 52 -35 82q-29 24 -71 24
q-44 0 -70 -25q-35 -32 -35 -81q0 -47 32 -79q30 -30 77 -30z" />
    <glyph glyph-name="product" unicode="&#x220f;" horiz-adv-x="738" 
d="M40 634v116h658v-116h-82v-768h82v-116h-292v116h80v768h-234v-768h80v-116h-292v116h82v768h-82z" />
    <glyph glyph-name="summation" unicode="&#x2211;" horiz-adv-x="672" 
d="M22 750h599v-247h-117l-13 131h-323l250 -367l-250 -401h332l8 134h122v-250h-608v130l243 387l-243 353v130z" />
    <glyph glyph-name="minus" unicode="&#x2212;" 
d="M33 282v116h434v-116h-434z" />
    <glyph glyph-name="uni2215" unicode="&#x2215;" horiz-adv-x="700" 
d="M15 -184l527 933l113 -20l-527 -933z" />
    <glyph glyph-name="uni2219" unicode="&#x2219;" horiz-adv-x="256" 
d="M20 334q0 46 31 77t77 31t77 -31t31 -77t-31 -77t-77 -31t-77 31t-31 77z" />
    <glyph glyph-name="radical" unicode="&#x221a;" horiz-adv-x="668" 
d="M378 827h290v-114h-180l-169 -713h-166l-59 272h-94v114h198l11 -52q12 -49 17 -94q6 -59 6 -87h11q7 91 17 149q11 69 29 145z" />
    <glyph glyph-name="infinity" unicode="&#x221e;" horiz-adv-x="674" 
d="M472 391q-25 0 -45 -17q-16 -13 -30 -35l10 -12q10 -12 15 -17q26 -22 50 -22q26 0 41 15t15 39q0 20 -15 34q-18 15 -41 15zM337 258q-24 -33 -63 -56q-45 -25 -95 -25q-66 0 -108 41q-51 49 -51 125q0 71 47 114q47 45 118 45q45 0 86 -24q35 -22 66 -56q31 34 66 56
q41 24 86 24q71 0 118 -45q47 -43 47 -114q0 -76 -51 -125q-44 -41 -108 -41q-45 0 -95 27q-37 20 -63 54zM202 391q-23 0 -41 -15q-15 -14 -15 -34q0 -24 15 -39t41 -15q24 0 50 22q15 13 25 29q-14 22 -30 35q-20 17 -45 17z" />
    <glyph glyph-name="integral" unicode="&#x222b;" horiz-adv-x="507" 
d="M318 558v-589q0 -59 -9 -101.5t-39 -72.5q-42 -45 -132 -45q-46 0 -85 10l23 112q27 -10 55 -10q31 0 43 17q14 17 14 63v572q0 144 48 192q42 44 129 44q50 0 89 -10l-24 -112q-24 10 -51 10q-29 0 -44 -15q-17 -17 -17 -65z" />
    <glyph glyph-name="approxequal" unicode="&#x2248;" 
d="M257 170l-41 15q-42 17 -65 17q-28 0 -46 -18q-9 -8 -29 -44l-70 44q22 64 58 100q37 39 94 39q33 0 81 -19l43 -16q39 -16 66 -16q25 0 41 13q18 13 32 40l72 -41q-20 -50 -58 -92q-41 -41 -96 -41q-34 0 -82 19zM257 371l-41 15q-42 17 -65 17q-28 0 -46 -18
q-9 -8 -29 -44l-70 44q25 67 58 100q39 39 94 39q34 0 81 -19l43 -16q39 -16 66 -16q25 0 41 13q18 13 32 40l72 -41q-20 -50 -58 -92q-41 -41 -96 -41q-34 0 -82 19z" />
    <glyph glyph-name="notequal" unicode="&#x2260;" 
d="M33 366v110h232l52 106h99l-51 -106h101v-110h-153l-33 -70h186v-110h-237l-51 -104h-99l50 104h-96v110h147l34 70h-181z" />
    <glyph glyph-name="lessequal" unicode="&#x2264;" 
d="M33 458l434 207v-117l-305 -143l305 -136v-118l-434 202v105zM33 122h434v-114h-434v114z" />
    <glyph glyph-name="greaterequal" unicode="&#x2265;" 
d="M467 458v-105l-434 -202v118l305 136l-305 143v117zM467 122v-114h-434v114h434z" />
    <glyph glyph-name="dotmath" unicode="&#x22c5;" horiz-adv-x="256" 
d="M20 334q0 46 31 77t77 31t77 -31t31 -77t-31 -77t-77 -31t-77 31t-31 77z" />
    <glyph glyph-name="lozenge" unicode="&#x25ca;" horiz-adv-x="700" 
d="M90 334l260 360l260 -360l-260 -360zM463 334l-113 155l-113 -155l113 -155z" />
    <glyph glyph-name="openbullet" unicode="&#x25e6;" horiz-adv-x="502" 
d="M175 515q0 -30 22 -52t54 -22t54 22t22 52t-22 52t-54 22t-54 -22t-22 -52zM97 515q0 63 44.5 107.5t109.5 44.5t109.5 -44.5t44.5 -107.5t-44.5 -107.5t-109.5 -44.5t-109.5 44.5t-44.5 107.5z" />
    <glyph glyph-name="uniF400" unicode="&#xf400;" horiz-adv-x="2" 
d="M-202 715l94 -65l-152 -135l-65 48z" />
    <glyph glyph-name="uniF401" unicode="&#xf401;" horiz-adv-x="2" 
d="M-220 925l95 -72l-164 -129l-65 53z" />
    <glyph glyph-name="uniF406" unicode="&#xf406;" 
d="M326 874h96q-12 -71 -46 -105q-44 -44 -126 -44t-126 44q-34 34 -46 105h96q5 -24 19 -42q18 -21 57 -21t57 21q14 18 19 42z" />
    <glyph glyph-name="uniF407" unicode="&#xf407;" 
d="M258 -46l100 -44l-112 -146l-80 40z" />
    <glyph glyph-name="uniF408" unicode="&#xf408;" 
d="M125 726l-64 71l188 140l189 -140l-66 -71l-123 93z" />
    <glyph glyph-name="uniF409" unicode="&#xf409;" 
d="M120 -248l56 198l134 -16l-98 -194z" />
    <glyph glyph-name="uniF40A" unicode="&#xf40a;" 
d="M120 472l70 208l130 -30l-112 -198z" />
    <glyph glyph-name="uniF40B" unicode="&#xf40b;" 
d="M165 815q0 36 24.5 60.5t60.5 24.5t60.5 -24.5t24.5 -60.5t-24.5 -60.5t-60.5 -24.5t-60.5 24.5t-24.5 60.5z" />
    <glyph glyph-name="uniF40C" unicode="&#xf40c;" 
d="M366 827q0 -39 -27 -66q-35 -32 -89 -32t-89 32q-27 27 -27 66t27 66q35 32 89 32t89 -32q27 -27 27 -66zM250 866q-22 0 -34 -12t-12 -27t12 -27t34 -12t34 12t12 27t-12 27t-34 12z" />
    <glyph glyph-name="uniF40D" unicode="&#xf40d;" 
d="M364 867l71 -50q-18 -34 -42 -58q-31 -31 -71 -31q-21 0 -62 16l-41 16q-25 11 -37 11q-31 0 -46 -39l-71 50q19 41 37 59q27 30 73 30q26 0 60 -14l40 -16q33 -12 41 -12q31 0 48 38z" />
    <glyph glyph-name="uniF40E" unicode="&#xf40e;" 
d="M376 -95l-18 -77q-27 -17 -66 -17q-44 0 -68 24q-23 23 -23 56q0 29 21 61q17 24 43 48h66q-4 -4 -14 -14.5t-13 -13.5q-19 -22 -19 -44q0 -18 12 -28q10 -10 29 -10q23 0 50 15z" />
    <glyph glyph-name="uniF4C6" unicode="&#xf4c6;" horiz-adv-x="646" 
d="M419 667h154v-736q0 -86 -40 -123q-37 -37 -128 -37q-48 0 -84 10v116q15 -8 38 -8q33 0 46 15q14 14 14 57v305q-50 -10 -113 -10q-146 0 -207 59q-51 48 -51 147v205h154v-174q0 -58 29 -81q27 -22 97 -22q54 0 91 8v269z" />
    <glyph glyph-name="uniF4C7" unicode="&#xf4c7;" horiz-adv-x="518" 
d="M318 446h144v-496q0 -100 -37 -137q-38 -42 -126 -42q-34 0 -80 10v114q14 -6 37 -6q29 0 45 16q17 17 17 73v172q-44 -11 -90 -11q-101 0 -147 43q-41 39 -41 115v149h142v-129q0 -33 18 -49q17 -15 58 -15q34 0 60 9v184z" />
    <glyph glyph-name="uniF4CC" unicode="&#xf4cc;" horiz-adv-x="622" 
d="M4 667h172l140 -308l134 308h166l-305 -667h-166l97 192zM375 925l95 -72l-164 -129l-65 53z" />
    <glyph glyph-name="uniF4CD" unicode="&#xf4cd;" horiz-adv-x="585" 
d="M58 -229l157 286l-213 389h166l126 -242l123 242h162l-359 -675h-162zM354 715l94 -65l-152 -135l-65 48z" />
    <glyph glyph-name="dollar.fitted" unicode="&#xf5f5;" horiz-adv-x="507" 
d="M224 775h90v-101q85 -8 152 -64l-67 -107q-54 47 -109 47q-43 0 -63 -19q-20 -20 -20 -42q0 -23 19 -39q7 -7 16.5 -12t26.5 -11.5t24 -9.5l56 -24q65 -28 94 -57q47 -50 47 -123q0 -89 -55 -149q-47 -50 -121 -62v-114h-90v110q-68 5 -120 33q-51 28 -90 68l74 110
q32 -32 65 -52q46 -27 93 -27q42 0 67 21q24 20 24 51q0 33 -30 54q-7 5 -15.5 8.5t-25 10t-28.5 11.5l-35 14q-70 30 -101 61q-45 46 -45 110q0 91 57 148q44 44 110 55v101z" />
    <glyph glyph-name="Euro.fitted" unicode="&#xf5f6;" horiz-adv-x="638" 
d="M585 181v-153q-74 -43 -176 -43q-127 0 -204 59q-80 61 -99 169h-87l36 90h40q-1 27 0 57h-76l36 90h51q22 85 78 141q91 91 252 91q90 0 169 -39l-54 -129q-53 33 -124 33q-59 0 -104 -27q-39 -26 -53 -70h264l-36 -90h-243q-4 -26 1 -57h223l-36 -90h-170
q18 -48 56 -70q39 -23 100 -23q104 0 156 61z" />
    <glyph glyph-name="cent.fitted" unicode="&#xf5f7;" horiz-adv-x="390" 
d="M211 660h90v-94q36 -3 63 -19v-133q-34 38 -86 38q-47 0 -82 -32q-34 -32 -34 -86q0 -52 34 -86q29 -28 80 -28q55 0 88 37v-134q-33 -14 -63 -17v-93h-90v89q-76 10 -130 63q-67 66 -67 164q0 107 69 176q52 52 128 65v90z" />
    <glyph glyph-name="sterling.fitted" unicode="&#xf5f8;" horiz-adv-x="608" 
d="M157 248h-112v92h68q-30 49 -30 114q0 97 63 158q70 69 188 69q113 0 175 -60q62 -59 62 -165q0 -16 -1 -24h-153q0 68 -25 95q-26 26 -65 26q-37 0 -63 -23q-32 -30 -32 -80q0 -12 2.5 -25.5t7 -27t8 -22.5t9 -21t6.5 -14h149v-92h-125q8 -30 8 -47q0 -25 -10 -59
l58 -19q55 -18 83 -18q26 0 39 14q8 8 15 34l98 -12q-9 -74 -49 -115q-41 -41 -103 -41q-45 0 -115 23l-39 13q-42 14 -76 14q-33 0 -49 -13q-13 -9 -19 -27l-104 9q16 67 54 105q35 35 83 43q8 26 8 46q0 26 -14 50z" />
    <glyph glyph-name="yen.fitted" unicode="&#xf5f9;" horiz-adv-x="619" 
d="M212 347h-140v97h82l-134 223h174l117 -212l114 212h176l-138 -223h86v-97h-146l-23 -35v-28h169v-97h-169v-187h-146v187h-162v97h162v28z" />
    <glyph glyph-name="florin.fitted" unicode="&#xf5fa;" horiz-adv-x="575" 
d="M200 118l43 238h-68l15 90h69l20 115q15 83 60 130q46 49 128 49q55 0 99 -20l-23 -123q-26 17 -58 17q-27 0 -43 -15q-21 -19 -30 -76l-13 -77h102l-16 -90h-102l-48 -268q-25 -153 -89 -214q-61 -58 -176 -58q-29 0 -61 7l23 128q20 -5 41 -5q53 0 77 28q29 32 50 144z
" />
    <glyph glyph-name="uni20B4.fitted" unicode="&#xf5fb;" horiz-adv-x="567" 
d="M148 504l-69 112q40 26 91 44q66 22 140 22q98 0 146 -46q44 -42 44 -102q0 -44 -30 -82h74v-97h-143l-70 -63h213v-97h-304q-18 -13 -18 -32q0 -21 24 -32q21 -10 53 -10q58 0 90 14q23 10 58 31l73 -110q-43 -32 -98 -50q-62 -21 -152 -21t-140 36q-53 36 -53 99
q0 42 25 75h-81v97h155l70 63h-225v97h300q21 21 21 48q0 23 -18 38q-16 14 -51 14q-38 0 -78 -19q-27 -13 -47 -29z" />
    <glyph glyph-name="uni20B6.fitted" unicode="&#xf5fc;" horiz-adv-x="586" 
d="M96 667h235q113 0 175 -55q65 -58 65 -162q0 -98 -57 -149q-58 -53 -170 -53h-94v-63h180v-97h-180v-88h-154v88h-72v97h72v63h-72v112h72v307zM250 541v-181h55q57 0 83 25q25 25 25 66q0 40 -25 65t-86 25h-52z" />
    <glyph glyph-name="uni20B8.fitted" unicode="&#xf5fd;" horiz-adv-x="474" 
d="M460 417h-146v-417h-154v417h-144v120h444v-120zM460 577h-444v90h444v-90z" />
    <glyph glyph-name="numbersign.fitted" unicode="&#xf5ff;" horiz-adv-x="631" 
d="M481 295h102l-17 -111h-102l-30 -184h-128l30 184h-89l-30 -184h-128l30 184h-101l18 111h100l15 92h-100l17 110h100l28 170h128l-28 -170h89l28 170h128l-28 -170h101l-17 -110h-101zM353 295l15 92h-89l-15 -92h89z" />
    <glyph glyph-name="uniF639" unicode="&#xf639;" horiz-adv-x="606" 
d="M576 333q0 -184 -96 -279q-69 -69 -179 -69q-106 0 -177 69q-96 95 -96 279q0 185 96 280q71 69 177 69q110 0 179 -69q96 -95 96 -280zM302 550q-34 0 -62 -25q-56 -56 -56 -191q0 -138 56 -192q28 -25 62 -25t62 25q56 54 56 192q0 135 -56 191q-28 25 -62 25z" />
    <glyph glyph-name="uniF63A" unicode="&#xf63a;" horiz-adv-x="568" 
d="M534 130v-130h-510l200 218q84 98 109 136q40 60 40 113q0 42 -26 66q-20 19 -61 19q-40 0 -61 -24q-28 -29 -28 -82h-154q9 104 69 167q63 69 184 69q110 0 173 -63q62 -62 62 -160q0 -77 -50 -147q-30 -42 -107 -115l-70 -67h230z" />
    <glyph glyph-name="uniF63B" unicode="&#xf63b;" horiz-adv-x="564" 
d="M193 467h-148q12 95 66 151q61 63 169 63q116 0 175 -59q51 -49 51 -136q0 -54 -27 -91q-21 -28 -50 -42q50 -20 76 -54q31 -42 31 -105q0 -91 -67 -152q-64 -58 -176 -58q-126 0 -195 69q-64 64 -74 165h154q5 -48 32 -75t74 -27q42 0 67 23q27 25 27 68q0 40 -29 64
q-27 21 -82 21h-12v106h9q44 0 67 19q25 20 25 60q0 34 -22 54t-57 20q-38 0 -60 -22t-24 -62z" />
    <glyph glyph-name="uniF63C" unicode="&#xf63c;" horiz-adv-x="588" 
d="M484 667v-419h80v-122h-80v-126h-148v126h-326v88l294 453h180zM172 248h164v259z" />
    <glyph glyph-name="uniF63D" unicode="&#xf63d;" horiz-adv-x="545" 
d="M474 667v-130h-225l-18 -89q32 5 55 5q108 0 170 -65q61 -61 61 -161q0 -104 -68 -172q-71 -70 -202 -70q-127 0 -222 73l35 143q35 -37 64 -55q43 -29 101 -29q61 0 95 27q39 30 39 84q0 46 -34 78q-35 35 -111 35q-75 0 -136 -35l68 361h328z" />
    <glyph glyph-name="uniF63E" unicode="&#xf63e;" horiz-adv-x="586" 
d="M283 682l165 -17l-176 -219q31 11 70 11q105 0 165 -64q58 -58 58 -154q0 -110 -63 -179q-69 -75 -205 -75q-144 0 -216 78q-58 62 -58 162q0 72 27 129.5t80 126.5zM292 111q45 0 80 30q35 31 35 88q0 51 -35 82q-30 28 -80 28q-52 0 -81 -29q-34 -31 -34 -85
q0 -52 34 -83q31 -31 81 -31z" />
    <glyph glyph-name="uniF63F" unicode="&#xf63f;" horiz-adv-x="578" 
d="M36 20l302 517h-294v130h530l-395 -682z" />
    <glyph glyph-name="uniF640" unicode="&#xf640;" horiz-adv-x="551" 
d="M275 -15q-57 0 -100 10t-82 46q-64 59 -64 145q0 67 45 114q35 35 83 50q-38 16 -61 41q-41 41 -41 106q0 75 49 124q59 61 173 61q112 0 171 -61q49 -49 49 -124q0 -65 -41 -106q-23 -25 -61 -41q48 -15 83 -50q45 -47 45 -114q0 -86 -64 -145q-39 -36 -82 -46t-102 -10
zM276 568q-33 0 -59 -22q-25 -24 -25 -57q0 -34 25 -57q25 -22 59 -22q35 0 58 22q25 24 25 57t-25 58q-26 21 -58 21zM274 288q-39 0 -63 -24q-26 -26 -26 -66q0 -44 26 -67q26 -24 65 -24q40 0 65 24q26 26 26 68q0 39 -26 65q-24 24 -67 24z" />
    <glyph glyph-name="uniF641" unicode="&#xf641;" horiz-adv-x="587" 
d="M306 -15l-165 17l176 218q-31 -10 -67 -10q-106 0 -168 62q-58 58 -58 161q0 109 65 174q72 75 209 75q127 0 200 -67q68 -64 68 -169q0 -68 -30 -136q-24 -53 -78 -124zM297 556q-49 0 -80 -30q-35 -32 -35 -84q0 -56 34 -86q31 -28 81 -28q49 0 81 29q34 32 34 88
q0 48 -34 81q-32 30 -81 30z" />
    <glyph glyph-name="uniF6BA" unicode="&#xf6ba;" horiz-adv-x="356" 
d="M50 278v126h256v-126h-256z" />
    <glyph glyph-name="uniF6BB" unicode="&#xf6bb;" horiz-adv-x="607" 
d="M70 282v118h467v-118h-467z" />
    <glyph glyph-name="uniF6BC" unicode="&#xf6bc;" horiz-adv-x="874" 
d="M70 282v118h734v-118h-734z" />
    <glyph glyph-name="uniF6C3" unicode="&#xf6c3;" 
d="M140 -238l56 188l134 -16l-98 -184z" />
    <glyph glyph-name="uniF6C9" unicode="&#xf6c9;" 
d="M305 925l95 -72l-164 -129l-65 53z" />
    <glyph glyph-name="uniF6CA" unicode="&#xf6ca;" 
d="M249 844l123 93l66 -70l-189 -141l-188 141l64 70z" />
    <glyph glyph-name="uniF6CB" unicode="&#xf6cb;" 
d="M62 811q0 32 23.5 55.5t55.5 23.5t55.5 -23.5t23.5 -55.5t-23.5 -55.5t-55.5 -23.5t-55.5 23.5t-23.5 55.5zM280 811q0 32 23.5 55.5t55.5 23.5t55.5 -23.5t23.5 -55.5t-23.5 -55.5t-55.5 -23.5t-55.5 23.5t-23.5 55.5z" />
    <glyph glyph-name="uniF6CE" unicode="&#xf6ce;" 
d="M265 724l-164 129l96 72l133 -148z" />
    <glyph glyph-name="uniF6CF" unicode="&#xf6cf;" 
d="M206 925l86 -66l-140 -135l-55 48zM392 925l87 -66l-140 -135l-56 48z" />
    <glyph glyph-name="uniF6D0" unicode="&#xf6d0;" 
d="M56 753v92h388v-92h-388z" />
    <glyph glyph-name="uniF6D1" unicode="&#xf6d1;" 
d="M342 887l106 -45q-25 -59 -76 -90q-47 -28 -123 -28q-75 0 -122 28q-51 31 -76 90l106 45q11 -29 33 -48q23 -17 61 -17q36 0 59 17q23 18 32 48z" />
    <glyph glyph-name="uniF6D4" unicode="&#xf6d4;" 
d="M331 665l100 -39q-18 -54 -64 -85q-44 -28 -117 -28t-117 28q-46 31 -64 85l100 39q6 -29 26 -46q21 -18 55 -18t55 18q20 17 26 46z" />
    <glyph glyph-name="uniF6DC" unicode="&#xf6dc;" horiz-adv-x="308" 
d="M114 0v537h-95v130h249v-667h-154z" />
    <glyph glyph-name="uniF6DE" unicode="&#xf6de;" horiz-adv-x="655" 
d="M52 194v118h551v-118h-551z" />
    <glyph glyph-name="NULL" horiz-adv-x="0" 
 />
    <glyph glyph-name="CR" horiz-adv-x="233" 
 />
    <glyph glyph-name="nbspace" horiz-adv-x="233" 
 />
    <glyph glyph-name="hyphenminus" horiz-adv-x="356" 
d="M50 190v126h256v-126h-256z" />
    <glyph glyph-name="dotlessi1" horiz-adv-x="276" 
d="M66 446h144v-446h-144v446z" />
    </font>
</defs>
</svg>
